<mxfile host="Electron" modified="2024-01-27T02:47:13.150Z" agent="Mozilla/5.0 (Windows NT 10.0; Win64; x64) AppleWebKit/537.36 (KHTML, like Gecko) draw.io/23.0.2 Chrome/120.0.6099.109 Electron/28.1.0 Safari/537.36" etag="ClvCA6Gor8t9k4Vdokdw" version="23.0.2" type="device" pages="9">
  <diagram name="Page-1" id="IwY_0OasKtBQ6U8GhJoq">
    <mxGraphModel dx="1434" dy="844" grid="1" gridSize="10" guides="1" tooltips="1" connect="1" arrows="1" fold="1" page="1" pageScale="1" pageWidth="850" pageHeight="1100" background="#ffffff" math="0" shadow="0">
      <root>
        <mxCell id="0" />
        <mxCell id="1" parent="0" />
        <mxCell id="egbWyd5UZdhMcLycnGTo-12" style="edgeStyle=orthogonalEdgeStyle;rounded=0;orthogonalLoop=1;jettySize=auto;html=1;exitX=0.5;exitY=1;exitDx=0;exitDy=0;entryX=0.5;entryY=0;entryDx=0;entryDy=0;strokeWidth=2;" edge="1" parent="1" source="egbWyd5UZdhMcLycnGTo-2" target="egbWyd5UZdhMcLycnGTo-3">
          <mxGeometry relative="1" as="geometry" />
        </mxCell>
        <mxCell id="egbWyd5UZdhMcLycnGTo-2" value="&lt;b&gt;Author: &lt;/b&gt;Cesar Franco&lt;br&gt;&lt;b&gt;Created on&lt;/b&gt;&amp;nbsp;January 26, 2024, 2:29 PM&lt;br&gt;&lt;b&gt;Purpose: &lt;/b&gt;Flowchart for Midterm problem 1" style="rounded=1;whiteSpace=wrap;html=1;strokeWidth=2;labelBackgroundColor=none;" vertex="1" parent="1">
          <mxGeometry x="130" y="50" width="280" height="90" as="geometry" />
        </mxCell>
        <mxCell id="egbWyd5UZdhMcLycnGTo-13" style="edgeStyle=orthogonalEdgeStyle;rounded=0;orthogonalLoop=1;jettySize=auto;html=1;exitX=0.5;exitY=1;exitDx=0;exitDy=0;entryX=0.5;entryY=0;entryDx=0;entryDy=0;strokeWidth=2;" edge="1" parent="1" source="egbWyd5UZdhMcLycnGTo-3" target="egbWyd5UZdhMcLycnGTo-4">
          <mxGeometry relative="1" as="geometry" />
        </mxCell>
        <mxCell id="egbWyd5UZdhMcLycnGTo-3" value="&lt;b&gt;System Libraries&lt;/b&gt;&lt;br&gt;I/O Objects&lt;br&gt;Standard Namespace" style="rounded=1;whiteSpace=wrap;html=1;strokeWidth=2;labelBackgroundColor=none;" vertex="1" parent="1">
          <mxGeometry x="50" y="200" width="140" height="70" as="geometry" />
        </mxCell>
        <mxCell id="egbWyd5UZdhMcLycnGTo-14" style="edgeStyle=orthogonalEdgeStyle;rounded=0;orthogonalLoop=1;jettySize=auto;html=1;exitX=0.5;exitY=1;exitDx=0;exitDy=0;entryX=0.5;entryY=0;entryDx=0;entryDy=0;strokeWidth=2;" edge="1" parent="1" source="egbWyd5UZdhMcLycnGTo-4" target="egbWyd5UZdhMcLycnGTo-5">
          <mxGeometry relative="1" as="geometry" />
        </mxCell>
        <mxCell id="egbWyd5UZdhMcLycnGTo-4" value="&lt;b&gt;User Libraries&lt;/b&gt;&lt;br&gt;none" style="rounded=1;whiteSpace=wrap;html=1;strokeWidth=2;labelBackgroundColor=none;" vertex="1" parent="1">
          <mxGeometry x="50" y="300" width="140" height="60" as="geometry" />
        </mxCell>
        <mxCell id="egbWyd5UZdhMcLycnGTo-15" style="edgeStyle=orthogonalEdgeStyle;rounded=0;orthogonalLoop=1;jettySize=auto;html=1;exitX=0.5;exitY=1;exitDx=0;exitDy=0;entryX=0.5;entryY=0;entryDx=0;entryDy=0;strokeWidth=2;" edge="1" parent="1" source="egbWyd5UZdhMcLycnGTo-5" target="egbWyd5UZdhMcLycnGTo-6">
          <mxGeometry relative="1" as="geometry" />
        </mxCell>
        <mxCell id="egbWyd5UZdhMcLycnGTo-5" value="&lt;b&gt;Global Constants&lt;/b&gt;&lt;br&gt;none" style="rounded=1;whiteSpace=wrap;html=1;strokeWidth=2;" vertex="1" parent="1">
          <mxGeometry x="50" y="390" width="140" height="60" as="geometry" />
        </mxCell>
        <mxCell id="egbWyd5UZdhMcLycnGTo-16" style="edgeStyle=orthogonalEdgeStyle;rounded=0;orthogonalLoop=1;jettySize=auto;html=1;exitX=1;exitY=0.5;exitDx=0;exitDy=0;entryX=0;entryY=0.5;entryDx=0;entryDy=0;strokeWidth=2;" edge="1" parent="1" source="egbWyd5UZdhMcLycnGTo-6" target="egbWyd5UZdhMcLycnGTo-7">
          <mxGeometry relative="1" as="geometry">
            <Array as="points">
              <mxPoint x="300" y="510" />
              <mxPoint x="300" y="195" />
            </Array>
          </mxGeometry>
        </mxCell>
        <mxCell id="egbWyd5UZdhMcLycnGTo-6" value="&lt;b&gt;Function Prototypes&lt;/b&gt;&lt;br&gt;void shapeX (int)" style="rounded=1;whiteSpace=wrap;html=1;strokeWidth=2;" vertex="1" parent="1">
          <mxGeometry x="50" y="480" width="140" height="60" as="geometry" />
        </mxCell>
        <mxCell id="egbWyd5UZdhMcLycnGTo-17" style="edgeStyle=orthogonalEdgeStyle;rounded=0;orthogonalLoop=1;jettySize=auto;html=1;exitX=0.5;exitY=1;exitDx=0;exitDy=0;entryX=0.5;entryY=0;entryDx=0;entryDy=0;strokeWidth=2;" edge="1" parent="1" source="egbWyd5UZdhMcLycnGTo-7" target="egbWyd5UZdhMcLycnGTo-8">
          <mxGeometry relative="1" as="geometry" />
        </mxCell>
        <mxCell id="egbWyd5UZdhMcLycnGTo-7" value="&lt;b&gt;main&lt;/b&gt;" style="ellipse;whiteSpace=wrap;html=1;strokeWidth=2;" vertex="1" parent="1">
          <mxGeometry x="500" y="160" width="100" height="70" as="geometry" />
        </mxCell>
        <mxCell id="egbWyd5UZdhMcLycnGTo-18" style="edgeStyle=orthogonalEdgeStyle;rounded=0;orthogonalLoop=1;jettySize=auto;html=1;exitX=0.5;exitY=1;exitDx=0;exitDy=0;entryX=0.5;entryY=0;entryDx=0;entryDy=0;strokeWidth=2;" edge="1" parent="1" source="egbWyd5UZdhMcLycnGTo-8" target="egbWyd5UZdhMcLycnGTo-10">
          <mxGeometry relative="1" as="geometry" />
        </mxCell>
        <mxCell id="egbWyd5UZdhMcLycnGTo-8" value="&lt;b&gt;Declare Variables&lt;br&gt;&lt;/b&gt;size&lt;br&gt;shape" style="rounded=1;whiteSpace=wrap;html=1;strokeWidth=2;" vertex="1" parent="1">
          <mxGeometry x="462.5" y="260" width="175" height="60" as="geometry" />
        </mxCell>
        <mxCell id="egbWyd5UZdhMcLycnGTo-19" style="edgeStyle=orthogonalEdgeStyle;rounded=0;orthogonalLoop=1;jettySize=auto;html=1;exitX=0.5;exitY=1;exitDx=0;exitDy=0;strokeWidth=2;" edge="1" parent="1" source="egbWyd5UZdhMcLycnGTo-10" target="egbWyd5UZdhMcLycnGTo-11">
          <mxGeometry relative="1" as="geometry" />
        </mxCell>
        <mxCell id="egbWyd5UZdhMcLycnGTo-10" value="&lt;b&gt;Prompt for Input&lt;/b&gt;&lt;br&gt;&quot;Create a numbered shape that can be sized.&quot;&lt;br&gt;&quot;Input an integer number [1-50] and a character [x, b, f].&quot;&lt;br&gt;&lt;br&gt;size &lt;br&gt;shape" style="shape=parallelogram;perimeter=parallelogramPerimeter;whiteSpace=wrap;html=1;fixedSize=1;size=20;rounded=1;strokeWidth=2;" vertex="1" parent="1">
          <mxGeometry x="375" y="360" width="350" height="110" as="geometry" />
        </mxCell>
        <mxCell id="egbWyd5UZdhMcLycnGTo-11" value="Page 2" style="ellipse;whiteSpace=wrap;html=1;aspect=fixed;strokeWidth=2;" vertex="1" parent="1">
          <mxGeometry x="510" y="550" width="80" height="80" as="geometry" />
        </mxCell>
      </root>
    </mxGraphModel>
  </diagram>
  <diagram id="4x4t6SVOaeAbHL-ScOhl" name="Page-2">
    <mxGraphModel dx="1098" dy="828" grid="1" gridSize="10" guides="1" tooltips="1" connect="1" arrows="1" fold="1" page="1" pageScale="1" pageWidth="850" pageHeight="1400" math="0" shadow="0">
      <root>
        <mxCell id="0" />
        <mxCell id="1" parent="0" />
        <mxCell id="mGW6AiN0Dq-u_zNQgsq6-3" value="&lt;font style=&quot;font-size: 12px;&quot;&gt;True&lt;/font&gt;" style="edgeLabel;resizable=0;html=1;align=center;verticalAlign=middle;" connectable="0" vertex="1" parent="1">
          <mxGeometry x="180" y="540" as="geometry">
            <mxPoint x="9" y="2" as="offset" />
          </mxGeometry>
        </mxCell>
        <mxCell id="-idmYDyvV52S_DasJy1z-11" style="edgeStyle=orthogonalEdgeStyle;rounded=0;orthogonalLoop=1;jettySize=auto;html=1;exitX=0.5;exitY=1;exitDx=0;exitDy=0;entryX=0.5;entryY=0;entryDx=0;entryDy=0;strokeWidth=2;" edge="1" parent="1" source="AVHm4QTrlz94VFmX7ydY-1" target="AVHm4QTrlz94VFmX7ydY-2">
          <mxGeometry relative="1" as="geometry" />
        </mxCell>
        <mxCell id="AVHm4QTrlz94VFmX7ydY-1" value="Page 2" style="ellipse;whiteSpace=wrap;html=1;aspect=fixed;strokeWidth=2;" vertex="1" parent="1">
          <mxGeometry x="80" y="30" width="80" height="80" as="geometry" />
        </mxCell>
        <mxCell id="-idmYDyvV52S_DasJy1z-12" style="edgeStyle=orthogonalEdgeStyle;rounded=0;orthogonalLoop=1;jettySize=auto;html=1;exitX=0.5;exitY=1;exitDx=0;exitDy=0;entryX=0.5;entryY=0;entryDx=0;entryDy=0;strokeWidth=2;" edge="1" parent="1" source="AVHm4QTrlz94VFmX7ydY-2" target="-idmYDyvV52S_DasJy1z-2">
          <mxGeometry relative="1" as="geometry" />
        </mxCell>
        <mxCell id="AVHm4QTrlz94VFmX7ydY-2" value="&lt;font face=&quot;Helvetica&quot;&gt;shape == &lt;b&gt;&#39;x&#39;&lt;/b&gt;&lt;/font&gt;" style="rhombus;whiteSpace=wrap;html=1;strokeWidth=2;" vertex="1" parent="1">
          <mxGeometry x="70" y="150" width="100" height="100" as="geometry" />
        </mxCell>
        <mxCell id="FPq2Ixr5h7C1LUMFeH7b-1" style="edgeStyle=orthogonalEdgeStyle;rounded=0;orthogonalLoop=1;jettySize=auto;html=1;exitX=1;exitY=0.5;exitDx=0;exitDy=0;strokeWidth=2;entryX=0;entryY=0.5;entryDx=0;entryDy=0;" edge="1" parent="1" source="-idmYDyvV52S_DasJy1z-1" target="PR00CUC9b5P_wxrPkuNw-1">
          <mxGeometry relative="1" as="geometry">
            <mxPoint x="430" y="200" as="targetPoint" />
          </mxGeometry>
        </mxCell>
        <mxCell id="-idmYDyvV52S_DasJy1z-1" value="shapeX (size)" style="shape=process;whiteSpace=wrap;html=1;backgroundOutline=1;strokeWidth=2;" vertex="1" parent="1">
          <mxGeometry x="250" y="170" width="120" height="60" as="geometry" />
        </mxCell>
        <mxCell id="qvcFiyHrPILfumzYFaB4-1" style="edgeStyle=orthogonalEdgeStyle;rounded=0;orthogonalLoop=1;jettySize=auto;html=1;exitX=0.5;exitY=1;exitDx=0;exitDy=0;entryX=0.5;entryY=0;entryDx=0;entryDy=0;strokeWidth=2;" edge="1" parent="1" source="-idmYDyvV52S_DasJy1z-2" target="PSkZcZ4t7A2qw4pC1qYr-1">
          <mxGeometry relative="1" as="geometry" />
        </mxCell>
        <mxCell id="-idmYDyvV52S_DasJy1z-2" value="&lt;font face=&quot;Helvetica&quot;&gt;shape == &lt;b&gt;&#39;b&#39;&lt;/b&gt;&lt;/font&gt;" style="rhombus;whiteSpace=wrap;html=1;strokeWidth=2;" vertex="1" parent="1">
          <mxGeometry x="70" y="290" width="100" height="100" as="geometry" />
        </mxCell>
        <mxCell id="-idmYDyvV52S_DasJy1z-4" value="" style="endArrow=classic;html=1;rounded=0;strokeWidth=2;exitX=1;exitY=0.5;exitDx=0;exitDy=0;entryX=0;entryY=0.5;entryDx=0;entryDy=0;" edge="1" parent="1" source="AVHm4QTrlz94VFmX7ydY-2" target="-idmYDyvV52S_DasJy1z-1">
          <mxGeometry relative="1" as="geometry">
            <mxPoint x="370" y="430" as="sourcePoint" />
            <mxPoint x="470" y="430" as="targetPoint" />
          </mxGeometry>
        </mxCell>
        <mxCell id="-idmYDyvV52S_DasJy1z-5" value="True" style="edgeLabel;resizable=0;html=1;align=center;verticalAlign=middle;" connectable="0" vertex="1" parent="-idmYDyvV52S_DasJy1z-4">
          <mxGeometry relative="1" as="geometry" />
        </mxCell>
        <mxCell id="-idmYDyvV52S_DasJy1z-9" value="" style="endArrow=classic;html=1;rounded=0;strokeWidth=2;exitX=1;exitY=0.5;exitDx=0;exitDy=0;entryX=0;entryY=0.5;entryDx=0;entryDy=0;" edge="1" parent="1" target="-idmYDyvV52S_DasJy1z-14">
          <mxGeometry relative="1" as="geometry">
            <mxPoint x="170" y="339.5" as="sourcePoint" />
            <mxPoint x="255" y="339.5" as="targetPoint" />
          </mxGeometry>
        </mxCell>
        <mxCell id="-idmYDyvV52S_DasJy1z-10" value="True" style="edgeLabel;resizable=0;html=1;align=center;verticalAlign=middle;" connectable="0" vertex="1" parent="-idmYDyvV52S_DasJy1z-9">
          <mxGeometry relative="1" as="geometry" />
        </mxCell>
        <mxCell id="KvOQ9KqcWxjVEI5UXMjI-22" style="edgeStyle=orthogonalEdgeStyle;rounded=0;orthogonalLoop=1;jettySize=auto;html=1;exitX=0.5;exitY=1;exitDx=0;exitDy=0;strokeWidth=2;" edge="1" parent="1" source="-idmYDyvV52S_DasJy1z-14" target="KvOQ9KqcWxjVEI5UXMjI-21">
          <mxGeometry relative="1" as="geometry" />
        </mxCell>
        <mxCell id="-idmYDyvV52S_DasJy1z-14" value="&lt;div style=&quot;&quot;&gt;&lt;b style=&quot;background-color: initial;&quot;&gt;Odd&lt;/b&gt;&lt;/div&gt;size%2 != 0" style="rhombus;whiteSpace=wrap;html=1;strokeWidth=2;align=center;" vertex="1" parent="1">
          <mxGeometry x="230" y="290" width="100" height="100" as="geometry" />
        </mxCell>
        <mxCell id="-idmYDyvV52S_DasJy1z-15" value="" style="endArrow=classic;html=1;rounded=0;strokeWidth=2;exitX=1;exitY=0.5;exitDx=0;exitDy=0;" edge="1" parent="1">
          <mxGeometry relative="1" as="geometry">
            <mxPoint x="330" y="339.5" as="sourcePoint" />
            <mxPoint x="390" y="340" as="targetPoint" />
          </mxGeometry>
        </mxCell>
        <mxCell id="-idmYDyvV52S_DasJy1z-16" value="True" style="edgeLabel;resizable=0;html=1;align=center;verticalAlign=middle;" connectable="0" vertex="1" parent="-idmYDyvV52S_DasJy1z-15">
          <mxGeometry relative="1" as="geometry" />
        </mxCell>
        <mxCell id="-idmYDyvV52S_DasJy1z-19" style="edgeStyle=orthogonalEdgeStyle;rounded=0;orthogonalLoop=1;jettySize=auto;html=1;exitX=0.5;exitY=1;exitDx=0;exitDy=0;entryX=0.5;entryY=0;entryDx=0;entryDy=0;strokeWidth=2;" edge="1" parent="1" source="-idmYDyvV52S_DasJy1z-17" target="-idmYDyvV52S_DasJy1z-18">
          <mxGeometry relative="1" as="geometry">
            <Array as="points">
              <mxPoint x="440" y="410" />
              <mxPoint x="350" y="410" />
            </Array>
          </mxGeometry>
        </mxCell>
        <mxCell id="-idmYDyvV52S_DasJy1z-17" value="Declare and Initialize In &lt;i&gt;row &lt;/i&gt;For Loop&lt;br&gt;&lt;br&gt;row = 1&amp;nbsp;" style="rounded=1;whiteSpace=wrap;html=1;strokeWidth=2;" vertex="1" parent="1">
          <mxGeometry x="390" y="300" width="100" height="80" as="geometry" />
        </mxCell>
        <mxCell id="KvOQ9KqcWxjVEI5UXMjI-20" style="edgeStyle=orthogonalEdgeStyle;rounded=0;orthogonalLoop=1;jettySize=auto;html=1;exitX=0.5;exitY=1;exitDx=0;exitDy=0;entryX=0.5;entryY=0;entryDx=0;entryDy=0;strokeWidth=2;" edge="1" parent="1" source="-idmYDyvV52S_DasJy1z-18">
          <mxGeometry relative="1" as="geometry">
            <mxPoint x="350" y="590" as="targetPoint" />
          </mxGeometry>
        </mxCell>
        <mxCell id="-idmYDyvV52S_DasJy1z-18" value="row &lt;b&gt;&amp;lt;=&lt;/b&gt; size" style="rhombus;whiteSpace=wrap;html=1;strokeWidth=2;" vertex="1" parent="1">
          <mxGeometry x="305" y="450" width="90" height="90" as="geometry" />
        </mxCell>
        <mxCell id="-idmYDyvV52S_DasJy1z-30" style="edgeStyle=orthogonalEdgeStyle;rounded=0;orthogonalLoop=1;jettySize=auto;html=1;exitX=0.5;exitY=1;exitDx=0;exitDy=0;entryX=0.5;entryY=0;entryDx=0;entryDy=0;strokeWidth=2;" edge="1" parent="1" source="-idmYDyvV52S_DasJy1z-20" target="-idmYDyvV52S_DasJy1z-23">
          <mxGeometry relative="1" as="geometry" />
        </mxCell>
        <mxCell id="-idmYDyvV52S_DasJy1z-20" value="Declare and Initialize In &lt;i&gt;column &lt;/i&gt;For Loop&lt;br&gt;&lt;br&gt;col = 1" style="rounded=1;whiteSpace=wrap;html=1;strokeWidth=2;" vertex="1" parent="1">
          <mxGeometry x="460" y="455" width="100" height="80" as="geometry" />
        </mxCell>
        <mxCell id="-idmYDyvV52S_DasJy1z-21" value="" style="endArrow=classic;html=1;rounded=0;strokeWidth=2;exitX=1;exitY=0.5;exitDx=0;exitDy=0;entryX=0;entryY=0.506;entryDx=0;entryDy=0;entryPerimeter=0;" edge="1" parent="1">
          <mxGeometry relative="1" as="geometry">
            <mxPoint x="390" y="494.5" as="sourcePoint" />
            <mxPoint x="460" y="494.98" as="targetPoint" />
          </mxGeometry>
        </mxCell>
        <mxCell id="-idmYDyvV52S_DasJy1z-22" value="True" style="edgeLabel;resizable=0;html=1;align=center;verticalAlign=middle;" connectable="0" vertex="1" parent="-idmYDyvV52S_DasJy1z-21">
          <mxGeometry relative="1" as="geometry" />
        </mxCell>
        <mxCell id="-idmYDyvV52S_DasJy1z-23" value="col &lt;b&gt;&amp;lt; &lt;/b&gt;row" style="rhombus;whiteSpace=wrap;html=1;strokeWidth=2;" vertex="1" parent="1">
          <mxGeometry x="430" y="610" width="80" height="80" as="geometry" />
        </mxCell>
        <mxCell id="-idmYDyvV52S_DasJy1z-24" value="" style="endArrow=classic;html=1;rounded=0;strokeWidth=2;exitX=1;exitY=0.5;exitDx=0;exitDy=0;entryX=0;entryY=0.506;entryDx=0;entryDy=0;entryPerimeter=0;" edge="1" parent="1">
          <mxGeometry relative="1" as="geometry">
            <mxPoint x="510" y="649.5" as="sourcePoint" />
            <mxPoint x="580" y="649.5" as="targetPoint" />
          </mxGeometry>
        </mxCell>
        <mxCell id="-idmYDyvV52S_DasJy1z-25" value="True" style="edgeLabel;resizable=0;html=1;align=center;verticalAlign=middle;" connectable="0" vertex="1" parent="-idmYDyvV52S_DasJy1z-24">
          <mxGeometry relative="1" as="geometry" />
        </mxCell>
        <mxCell id="-idmYDyvV52S_DasJy1z-27" value="&lt;b&gt;Increment&lt;/b&gt;&lt;br&gt;col++" style="rounded=1;whiteSpace=wrap;html=1;strokeWidth=2;" vertex="1" parent="1">
          <mxGeometry x="590" y="530" width="90" height="60" as="geometry" />
        </mxCell>
        <mxCell id="-idmYDyvV52S_DasJy1z-29" style="edgeStyle=orthogonalEdgeStyle;rounded=0;orthogonalLoop=1;jettySize=auto;html=1;exitX=1;exitY=0.5;exitDx=0;exitDy=0;entryX=1;entryY=0.5;entryDx=0;entryDy=0;strokeWidth=2;" edge="1" parent="1" source="-idmYDyvV52S_DasJy1z-28" target="-idmYDyvV52S_DasJy1z-27">
          <mxGeometry relative="1" as="geometry">
            <Array as="points">
              <mxPoint x="710" y="650" />
              <mxPoint x="710" y="560" />
            </Array>
          </mxGeometry>
        </mxCell>
        <mxCell id="-idmYDyvV52S_DasJy1z-28" value="&lt;b&gt;Output Space&lt;br style=&quot;border-color: var(--border-color);&quot;&gt;&lt;/b&gt;&lt;span style=&quot;font-weight: bold; border-color: var(--border-color);&quot;&gt;&quot; &quot;&lt;/span&gt;" style="shape=parallelogram;perimeter=parallelogramPerimeter;whiteSpace=wrap;html=1;fixedSize=1;rounded=1;strokeWidth=2;" vertex="1" parent="1">
          <mxGeometry x="570" y="620" width="110" height="60" as="geometry" />
        </mxCell>
        <mxCell id="-idmYDyvV52S_DasJy1z-31" value="" style="endArrow=none;html=1;rounded=0;entryX=0;entryY=0.5;entryDx=0;entryDy=0;strokeWidth=2;" edge="1" parent="1" target="-idmYDyvV52S_DasJy1z-27">
          <mxGeometry width="50" height="50" relative="1" as="geometry">
            <mxPoint x="510" y="560" as="sourcePoint" />
            <mxPoint x="540" y="570" as="targetPoint" />
          </mxGeometry>
        </mxCell>
        <mxCell id="-idmYDyvV52S_DasJy1z-32" value="" style="endArrow=classic;html=1;rounded=0;exitX=0.5;exitY=1;exitDx=0;exitDy=0;strokeWidth=2;entryX=0.5;entryY=0;entryDx=0;entryDy=0;" edge="1" parent="1" source="-idmYDyvV52S_DasJy1z-23" target="-idmYDyvV52S_DasJy1z-37">
          <mxGeometry relative="1" as="geometry">
            <mxPoint x="490" y="750" as="sourcePoint" />
            <mxPoint x="470" y="720" as="targetPoint" />
          </mxGeometry>
        </mxCell>
        <mxCell id="-idmYDyvV52S_DasJy1z-33" value="&lt;font style=&quot;font-size: 12px;&quot;&gt;False&lt;/font&gt;" style="edgeLabel;resizable=0;html=1;align=center;verticalAlign=middle;" connectable="0" vertex="1" parent="-idmYDyvV52S_DasJy1z-32">
          <mxGeometry relative="1" as="geometry">
            <mxPoint x="-20" y="-5" as="offset" />
          </mxGeometry>
        </mxCell>
        <mxCell id="-idmYDyvV52S_DasJy1z-36" style="edgeStyle=orthogonalEdgeStyle;rounded=0;orthogonalLoop=1;jettySize=auto;html=1;exitX=0.5;exitY=1;exitDx=0;exitDy=0;entryX=0.5;entryY=0;entryDx=0;entryDy=0;strokeWidth=2;" edge="1" parent="1" source="-idmYDyvV52S_DasJy1z-34" target="-idmYDyvV52S_DasJy1z-35">
          <mxGeometry relative="1" as="geometry" />
        </mxCell>
        <mxCell id="-idmYDyvV52S_DasJy1z-34" value="Declare and Initialize In &lt;i&gt;spaces&amp;nbsp;&lt;/i&gt;For Loop&lt;br style=&quot;border-color: var(--border-color);&quot;&gt;&lt;br style=&quot;border-color: var(--border-color);&quot;&gt;space = 1" style="rounded=1;whiteSpace=wrap;html=1;strokeWidth=2;" vertex="1" parent="1">
          <mxGeometry x="410" y="810" width="120" height="70" as="geometry" />
        </mxCell>
        <mxCell id="KvOQ9KqcWxjVEI5UXMjI-13" style="edgeStyle=orthogonalEdgeStyle;rounded=0;orthogonalLoop=1;jettySize=auto;html=1;exitX=0.5;exitY=1;exitDx=0;exitDy=0;entryX=0.5;entryY=0;entryDx=0;entryDy=0;strokeWidth=2;" edge="1" parent="1" source="-idmYDyvV52S_DasJy1z-35" target="KvOQ9KqcWxjVEI5UXMjI-12">
          <mxGeometry relative="1" as="geometry" />
        </mxCell>
        <mxCell id="-idmYDyvV52S_DasJy1z-35" value="space &lt;b&gt;&amp;lt;=&lt;/b&gt; (size-row)" style="rhombus;whiteSpace=wrap;html=1;strokeWidth=2;" vertex="1" parent="1">
          <mxGeometry x="405" y="920" width="130" height="100" as="geometry" />
        </mxCell>
        <mxCell id="KvOQ9KqcWxjVEI5UXMjI-9" style="edgeStyle=orthogonalEdgeStyle;rounded=0;orthogonalLoop=1;jettySize=auto;html=1;exitX=0.5;exitY=1;exitDx=0;exitDy=0;entryX=0.5;entryY=0;entryDx=0;entryDy=0;strokeWidth=2;" edge="1" parent="1" source="-idmYDyvV52S_DasJy1z-37" target="-idmYDyvV52S_DasJy1z-34">
          <mxGeometry relative="1" as="geometry" />
        </mxCell>
        <mxCell id="-idmYDyvV52S_DasJy1z-37" value="&lt;b&gt;Output&lt;/b&gt;&lt;br&gt;(size+1-row)" style="shape=parallelogram;perimeter=parallelogramPerimeter;whiteSpace=wrap;html=1;fixedSize=1;rounded=1;strokeWidth=2;" vertex="1" parent="1">
          <mxGeometry x="410" y="720" width="120" height="60" as="geometry" />
        </mxCell>
        <mxCell id="KvOQ9KqcWxjVEI5UXMjI-2" value="" style="endArrow=classic;html=1;rounded=0;strokeWidth=2;exitX=1;exitY=0.5;exitDx=0;exitDy=0;entryX=0;entryY=0.5;entryDx=0;entryDy=0;" edge="1" parent="1">
          <mxGeometry relative="1" as="geometry">
            <mxPoint x="535" y="969.5" as="sourcePoint" />
            <mxPoint x="590" y="970" as="targetPoint" />
          </mxGeometry>
        </mxCell>
        <mxCell id="KvOQ9KqcWxjVEI5UXMjI-3" value="True" style="edgeLabel;resizable=0;html=1;align=center;verticalAlign=middle;" connectable="0" vertex="1" parent="KvOQ9KqcWxjVEI5UXMjI-2">
          <mxGeometry relative="1" as="geometry" />
        </mxCell>
        <mxCell id="KvOQ9KqcWxjVEI5UXMjI-5" value="&lt;b&gt;Output Space&lt;br style=&quot;border-color: var(--border-color);&quot;&gt;&lt;/b&gt;&lt;span style=&quot;font-weight: bold; border-color: var(--border-color);&quot;&gt;&quot; &quot;&lt;/span&gt;" style="shape=parallelogram;perimeter=parallelogramPerimeter;whiteSpace=wrap;html=1;fixedSize=1;rounded=1;strokeWidth=2;" vertex="1" parent="1">
          <mxGeometry x="580" y="940" width="110" height="60" as="geometry" />
        </mxCell>
        <mxCell id="KvOQ9KqcWxjVEI5UXMjI-6" value="&lt;b&gt;Increment&lt;/b&gt;&lt;br&gt;space++" style="rounded=1;whiteSpace=wrap;html=1;strokeWidth=2;" vertex="1" parent="1">
          <mxGeometry x="610" y="850" width="90" height="60" as="geometry" />
        </mxCell>
        <mxCell id="KvOQ9KqcWxjVEI5UXMjI-7" style="edgeStyle=orthogonalEdgeStyle;rounded=0;orthogonalLoop=1;jettySize=auto;html=1;exitX=1;exitY=0.5;exitDx=0;exitDy=0;strokeWidth=2;" edge="1" parent="1">
          <mxGeometry relative="1" as="geometry">
            <mxPoint x="680" y="970" as="sourcePoint" />
            <mxPoint x="700" y="880" as="targetPoint" />
            <Array as="points">
              <mxPoint x="730" y="970" />
              <mxPoint x="730" y="880" />
            </Array>
          </mxGeometry>
        </mxCell>
        <mxCell id="KvOQ9KqcWxjVEI5UXMjI-8" value="" style="endArrow=none;html=1;rounded=0;strokeWidth=2;" edge="1" parent="1">
          <mxGeometry width="50" height="50" relative="1" as="geometry">
            <mxPoint x="470" y="900" as="sourcePoint" />
            <mxPoint x="610" y="880" as="targetPoint" />
            <Array as="points">
              <mxPoint x="570" y="900" />
              <mxPoint x="570" y="880" />
            </Array>
          </mxGeometry>
        </mxCell>
        <mxCell id="KvOQ9KqcWxjVEI5UXMjI-12" value="&lt;b&gt;Output New Line&lt;br style=&quot;border-color: var(--border-color);&quot;&gt;&lt;/b&gt;endl" style="shape=parallelogram;perimeter=parallelogramPerimeter;whiteSpace=wrap;html=1;fixedSize=1;rounded=1;strokeWidth=2;" vertex="1" parent="1">
          <mxGeometry x="402.5" y="1070" width="135" height="60" as="geometry" />
        </mxCell>
        <mxCell id="KvOQ9KqcWxjVEI5UXMjI-14" value="&lt;font style=&quot;font-size: 12px;&quot;&gt;False&lt;/font&gt;" style="edgeLabel;resizable=0;html=1;align=center;verticalAlign=middle;" connectable="0" vertex="1" parent="1">
          <mxGeometry x="450" y="1040" as="geometry">
            <mxPoint x="15" y="1" as="offset" />
          </mxGeometry>
        </mxCell>
        <mxCell id="KvOQ9KqcWxjVEI5UXMjI-15" value="" style="endArrow=none;html=1;rounded=0;exitX=1;exitY=0.5;exitDx=0;exitDy=0;strokeWidth=2;" edge="1" parent="1" source="KvOQ9KqcWxjVEI5UXMjI-12">
          <mxGeometry width="50" height="50" relative="1" as="geometry">
            <mxPoint x="610" y="1120" as="sourcePoint" />
            <mxPoint x="780" y="410" as="targetPoint" />
            <Array as="points">
              <mxPoint x="780" y="1100" />
            </Array>
          </mxGeometry>
        </mxCell>
        <mxCell id="KvOQ9KqcWxjVEI5UXMjI-16" value="&lt;b&gt;Increment&lt;/b&gt;&lt;br&gt;row++" style="rounded=1;whiteSpace=wrap;html=1;strokeWidth=2;" vertex="1" parent="1">
          <mxGeometry x="610" y="380" width="90" height="60" as="geometry" />
        </mxCell>
        <mxCell id="KvOQ9KqcWxjVEI5UXMjI-17" value="" style="endArrow=classic;html=1;rounded=0;entryX=1;entryY=0.5;entryDx=0;entryDy=0;strokeWidth=2;" edge="1" parent="1" target="KvOQ9KqcWxjVEI5UXMjI-16">
          <mxGeometry width="50" height="50" relative="1" as="geometry">
            <mxPoint x="780" y="410" as="sourcePoint" />
            <mxPoint x="830" y="340" as="targetPoint" />
          </mxGeometry>
        </mxCell>
        <mxCell id="KvOQ9KqcWxjVEI5UXMjI-18" value="" style="endArrow=none;html=1;rounded=0;entryX=0;entryY=0.5;entryDx=0;entryDy=0;strokeWidth=2;" edge="1" parent="1">
          <mxGeometry width="50" height="50" relative="1" as="geometry">
            <mxPoint x="350" y="420" as="sourcePoint" />
            <mxPoint x="610" y="400" as="targetPoint" />
            <Array as="points">
              <mxPoint x="520" y="420" />
              <mxPoint x="520" y="400" />
            </Array>
          </mxGeometry>
        </mxCell>
        <mxCell id="KvOQ9KqcWxjVEI5UXMjI-21" value="Page 3" style="ellipse;whiteSpace=wrap;html=1;aspect=fixed;strokeWidth=2;" vertex="1" parent="1">
          <mxGeometry x="180" y="450" width="70" height="70" as="geometry" />
        </mxCell>
        <mxCell id="KvOQ9KqcWxjVEI5UXMjI-23" value="&lt;font style=&quot;font-size: 12px;&quot;&gt;False&lt;/font&gt;" style="edgeLabel;resizable=0;html=1;align=center;verticalAlign=middle;" connectable="0" vertex="1" parent="1">
          <mxGeometry x="240" y="410" as="geometry" />
        </mxCell>
        <mxCell id="mGW6AiN0Dq-u_zNQgsq6-2" style="edgeStyle=orthogonalEdgeStyle;rounded=0;orthogonalLoop=1;jettySize=auto;html=1;exitX=1;exitY=0.5;exitDx=0;exitDy=0;entryX=0.5;entryY=0;entryDx=0;entryDy=0;strokeWidth=2;" edge="1" parent="1" source="PSkZcZ4t7A2qw4pC1qYr-1" target="mGW6AiN0Dq-u_zNQgsq6-1">
          <mxGeometry relative="1" as="geometry" />
        </mxCell>
        <mxCell id="mYTQmxzmRxWy2Dl618JO-2" style="edgeStyle=orthogonalEdgeStyle;rounded=0;orthogonalLoop=1;jettySize=auto;html=1;exitX=0.5;exitY=1;exitDx=0;exitDy=0;entryX=0.5;entryY=0;entryDx=0;entryDy=0;strokeWidth=2;" edge="1" parent="1" source="PSkZcZ4t7A2qw4pC1qYr-1">
          <mxGeometry relative="1" as="geometry">
            <mxPoint x="120" y="660" as="targetPoint" />
          </mxGeometry>
        </mxCell>
        <mxCell id="PSkZcZ4t7A2qw4pC1qYr-1" value="&lt;font face=&quot;Helvetica&quot;&gt;shape == &lt;b&gt;&#39;f&#39;&lt;/b&gt;&lt;/font&gt;" style="rhombus;whiteSpace=wrap;html=1;strokeWidth=2;" vertex="1" parent="1">
          <mxGeometry x="70" y="500" width="100" height="100" as="geometry" />
        </mxCell>
        <mxCell id="mGW6AiN0Dq-u_zNQgsq6-1" value="Page 4" style="ellipse;whiteSpace=wrap;html=1;aspect=fixed;strokeWidth=2;" vertex="1" parent="1">
          <mxGeometry x="190" y="600" width="70" height="70" as="geometry" />
        </mxCell>
        <mxCell id="M8xby6EWhmfruPky9yT3-1" value="&lt;font style=&quot;font-size: 12px;&quot;&gt;False&lt;/font&gt;" style="edgeLabel;resizable=0;html=1;align=center;verticalAlign=middle;" connectable="0" vertex="1" parent="1">
          <mxGeometry x="350" y="560" as="geometry">
            <mxPoint x="16" as="offset" />
          </mxGeometry>
        </mxCell>
        <mxCell id="PR00CUC9b5P_wxrPkuNw-1" value="Exit Main&lt;br&gt;&lt;b&gt;return 0&lt;/b&gt;" style="ellipse;whiteSpace=wrap;html=1;strokeWidth=2;" vertex="1" parent="1">
          <mxGeometry x="427.5" y="165" width="110" height="70" as="geometry" />
        </mxCell>
        <mxCell id="PR00CUC9b5P_wxrPkuNw-2" value="Exit Main&lt;br&gt;&lt;b&gt;return 0&lt;/b&gt;" style="ellipse;whiteSpace=wrap;html=1;strokeWidth=2;" vertex="1" parent="1">
          <mxGeometry x="295" y="590" width="110" height="70" as="geometry" />
        </mxCell>
        <mxCell id="PR00CUC9b5P_wxrPkuNw-3" value="Exit Main&lt;br&gt;&lt;b&gt;return 0&lt;/b&gt;" style="ellipse;whiteSpace=wrap;html=1;strokeWidth=2;" vertex="1" parent="1">
          <mxGeometry x="65" y="660" width="110" height="70" as="geometry" />
        </mxCell>
      </root>
    </mxGraphModel>
  </diagram>
  <diagram id="4fhCyNlNCg2B_Y2FmmJQ" name="Page-3">
    <mxGraphModel dx="1098" dy="1928" grid="1" gridSize="10" guides="1" tooltips="1" connect="1" arrows="1" fold="1" page="1" pageScale="1" pageWidth="850" pageHeight="1100" math="0" shadow="0">
      <root>
        <mxCell id="0" />
        <mxCell id="1" parent="0" />
        <mxCell id="DnYy7_rO0HkVGrwxEHZh-1" value="Page 3" style="ellipse;whiteSpace=wrap;html=1;aspect=fixed;strokeWidth=2;" vertex="1" parent="1">
          <mxGeometry x="80" y="-1035" width="70" height="70" as="geometry" />
        </mxCell>
        <mxCell id="Ko-R9MRRwcQ64pfk7p8N-39" value="" style="endArrow=classic;html=1;rounded=0;strokeWidth=2;exitX=1;exitY=0.5;exitDx=0;exitDy=0;" edge="1" parent="1" source="DnYy7_rO0HkVGrwxEHZh-1">
          <mxGeometry relative="1" as="geometry">
            <mxPoint x="220" y="-1000.5" as="sourcePoint" />
            <mxPoint x="280" y="-1000" as="targetPoint" />
          </mxGeometry>
        </mxCell>
        <mxCell id="g6zsjgpkkRmQODUS_kDY-3" style="edgeStyle=orthogonalEdgeStyle;rounded=0;orthogonalLoop=1;jettySize=auto;html=1;exitX=0.5;exitY=1;exitDx=0;exitDy=0;entryX=0.5;entryY=0;entryDx=0;entryDy=0;strokeWidth=2;" edge="1" parent="1" target="cMIOmmHfhrredYDEQK7q-1">
          <mxGeometry relative="1" as="geometry">
            <mxPoint x="350" y="-965" as="sourcePoint" />
            <mxPoint x="260" y="-895" as="targetPoint" />
            <Array as="points">
              <mxPoint x="350" y="-945" />
              <mxPoint x="240" y="-945" />
            </Array>
          </mxGeometry>
        </mxCell>
        <mxCell id="Ko-R9MRRwcQ64pfk7p8N-42" value="Declare and Initialize In &lt;i&gt;row &lt;/i&gt;For Loop&lt;br&gt;&lt;br&gt;row = 1&amp;nbsp;" style="rounded=1;whiteSpace=wrap;html=1;strokeWidth=2;" vertex="1" parent="1">
          <mxGeometry x="280" y="-1040" width="100" height="80" as="geometry" />
        </mxCell>
        <mxCell id="Ko-R9MRRwcQ64pfk7p8N-43" style="edgeStyle=orthogonalEdgeStyle;rounded=0;orthogonalLoop=1;jettySize=auto;html=1;exitX=0.5;exitY=1;exitDx=0;exitDy=0;entryX=0.5;entryY=0;entryDx=0;entryDy=0;strokeWidth=2;" edge="1" parent="1" source="cMIOmmHfhrredYDEQK7q-1">
          <mxGeometry relative="1" as="geometry">
            <mxPoint x="235" y="-800" as="sourcePoint" />
            <mxPoint x="240" y="-760" as="targetPoint" />
          </mxGeometry>
        </mxCell>
        <mxCell id="Ko-R9MRRwcQ64pfk7p8N-45" style="edgeStyle=orthogonalEdgeStyle;rounded=0;orthogonalLoop=1;jettySize=auto;html=1;exitX=0.5;exitY=1;exitDx=0;exitDy=0;entryX=0.5;entryY=0;entryDx=0;entryDy=0;strokeWidth=2;" edge="1" parent="1" source="Ko-R9MRRwcQ64pfk7p8N-46" target="Ko-R9MRRwcQ64pfk7p8N-49">
          <mxGeometry relative="1" as="geometry" />
        </mxCell>
        <mxCell id="Ko-R9MRRwcQ64pfk7p8N-46" value="Declare and Initialize In &lt;i&gt;column &lt;/i&gt;For Loop&lt;br&gt;&lt;br&gt;col = 1" style="rounded=1;whiteSpace=wrap;html=1;strokeWidth=2;" vertex="1" parent="1">
          <mxGeometry x="350" y="-885" width="100" height="80" as="geometry" />
        </mxCell>
        <mxCell id="Ko-R9MRRwcQ64pfk7p8N-47" value="" style="endArrow=classic;html=1;rounded=0;strokeWidth=2;exitX=1;exitY=0.5;exitDx=0;exitDy=0;entryX=0;entryY=0.506;entryDx=0;entryDy=0;entryPerimeter=0;" edge="1" parent="1">
          <mxGeometry relative="1" as="geometry">
            <mxPoint x="280" y="-845.5" as="sourcePoint" />
            <mxPoint x="350" y="-845.02" as="targetPoint" />
          </mxGeometry>
        </mxCell>
        <mxCell id="Ko-R9MRRwcQ64pfk7p8N-48" value="True" style="edgeLabel;resizable=0;html=1;align=center;verticalAlign=middle;" connectable="0" vertex="1" parent="Ko-R9MRRwcQ64pfk7p8N-47">
          <mxGeometry relative="1" as="geometry" />
        </mxCell>
        <mxCell id="Ko-R9MRRwcQ64pfk7p8N-49" value="col &lt;b&gt;&amp;lt; &lt;/b&gt;row" style="rhombus;whiteSpace=wrap;html=1;strokeWidth=2;" vertex="1" parent="1">
          <mxGeometry x="320" y="-730" width="80" height="80" as="geometry" />
        </mxCell>
        <mxCell id="Ko-R9MRRwcQ64pfk7p8N-50" value="" style="endArrow=classic;html=1;rounded=0;strokeWidth=2;exitX=1;exitY=0.5;exitDx=0;exitDy=0;entryX=0;entryY=0.506;entryDx=0;entryDy=0;entryPerimeter=0;" edge="1" parent="1">
          <mxGeometry relative="1" as="geometry">
            <mxPoint x="400" y="-690.5" as="sourcePoint" />
            <mxPoint x="470" y="-690.5" as="targetPoint" />
          </mxGeometry>
        </mxCell>
        <mxCell id="Ko-R9MRRwcQ64pfk7p8N-51" value="True" style="edgeLabel;resizable=0;html=1;align=center;verticalAlign=middle;" connectable="0" vertex="1" parent="Ko-R9MRRwcQ64pfk7p8N-50">
          <mxGeometry relative="1" as="geometry" />
        </mxCell>
        <mxCell id="Ko-R9MRRwcQ64pfk7p8N-52" value="&lt;b&gt;Increment&lt;/b&gt;&lt;br&gt;col++" style="rounded=1;whiteSpace=wrap;html=1;strokeWidth=2;" vertex="1" parent="1">
          <mxGeometry x="480" y="-810" width="90" height="60" as="geometry" />
        </mxCell>
        <mxCell id="Ko-R9MRRwcQ64pfk7p8N-53" style="edgeStyle=orthogonalEdgeStyle;rounded=0;orthogonalLoop=1;jettySize=auto;html=1;exitX=1;exitY=0.5;exitDx=0;exitDy=0;entryX=1;entryY=0.5;entryDx=0;entryDy=0;strokeWidth=2;" edge="1" parent="1" source="Ko-R9MRRwcQ64pfk7p8N-54" target="Ko-R9MRRwcQ64pfk7p8N-52">
          <mxGeometry relative="1" as="geometry">
            <Array as="points">
              <mxPoint x="600" y="-690" />
              <mxPoint x="600" y="-780" />
            </Array>
          </mxGeometry>
        </mxCell>
        <mxCell id="Ko-R9MRRwcQ64pfk7p8N-54" value="&lt;b&gt;Output Space&lt;br style=&quot;border-color: var(--border-color);&quot;&gt;&lt;/b&gt;&lt;span style=&quot;font-weight: bold; border-color: var(--border-color);&quot;&gt;&quot; &quot;&lt;/span&gt;" style="shape=parallelogram;perimeter=parallelogramPerimeter;whiteSpace=wrap;html=1;fixedSize=1;rounded=1;strokeWidth=2;" vertex="1" parent="1">
          <mxGeometry x="460" y="-720" width="110" height="60" as="geometry" />
        </mxCell>
        <mxCell id="Ko-R9MRRwcQ64pfk7p8N-55" value="" style="endArrow=none;html=1;rounded=0;entryX=0;entryY=0.5;entryDx=0;entryDy=0;strokeWidth=2;" edge="1" parent="1" target="Ko-R9MRRwcQ64pfk7p8N-52">
          <mxGeometry width="50" height="50" relative="1" as="geometry">
            <mxPoint x="400" y="-780" as="sourcePoint" />
            <mxPoint x="430" y="-770" as="targetPoint" />
          </mxGeometry>
        </mxCell>
        <mxCell id="Ko-R9MRRwcQ64pfk7p8N-56" value="" style="endArrow=classic;html=1;rounded=0;exitX=0.5;exitY=1;exitDx=0;exitDy=0;strokeWidth=2;entryX=0.5;entryY=0;entryDx=0;entryDy=0;" edge="1" parent="1" source="Ko-R9MRRwcQ64pfk7p8N-49" target="Ko-R9MRRwcQ64pfk7p8N-63">
          <mxGeometry relative="1" as="geometry">
            <mxPoint x="380" y="-590" as="sourcePoint" />
            <mxPoint x="360" y="-620" as="targetPoint" />
          </mxGeometry>
        </mxCell>
        <mxCell id="Ko-R9MRRwcQ64pfk7p8N-57" value="&lt;font style=&quot;font-size: 12px;&quot;&gt;False&lt;/font&gt;" style="edgeLabel;resizable=0;html=1;align=center;verticalAlign=middle;" connectable="0" vertex="1" parent="Ko-R9MRRwcQ64pfk7p8N-56">
          <mxGeometry relative="1" as="geometry">
            <mxPoint x="-20" y="-5" as="offset" />
          </mxGeometry>
        </mxCell>
        <mxCell id="Ko-R9MRRwcQ64pfk7p8N-58" style="edgeStyle=orthogonalEdgeStyle;rounded=0;orthogonalLoop=1;jettySize=auto;html=1;exitX=0.5;exitY=1;exitDx=0;exitDy=0;entryX=0.5;entryY=0;entryDx=0;entryDy=0;strokeWidth=2;" edge="1" parent="1" source="Ko-R9MRRwcQ64pfk7p8N-59" target="Ko-R9MRRwcQ64pfk7p8N-61">
          <mxGeometry relative="1" as="geometry" />
        </mxCell>
        <mxCell id="Ko-R9MRRwcQ64pfk7p8N-59" value="Declare and Initialize In &lt;i&gt;spaces&amp;nbsp;&lt;/i&gt;For Loop&lt;br style=&quot;border-color: var(--border-color);&quot;&gt;&lt;br style=&quot;border-color: var(--border-color);&quot;&gt;space = 1" style="rounded=1;whiteSpace=wrap;html=1;strokeWidth=2;" vertex="1" parent="1">
          <mxGeometry x="300" y="-530" width="120" height="70" as="geometry" />
        </mxCell>
        <mxCell id="Ko-R9MRRwcQ64pfk7p8N-60" style="edgeStyle=orthogonalEdgeStyle;rounded=0;orthogonalLoop=1;jettySize=auto;html=1;exitX=0.5;exitY=1;exitDx=0;exitDy=0;entryX=0.5;entryY=0;entryDx=0;entryDy=0;strokeWidth=2;" edge="1" parent="1" source="Ko-R9MRRwcQ64pfk7p8N-61" target="Ko-R9MRRwcQ64pfk7p8N-70">
          <mxGeometry relative="1" as="geometry" />
        </mxCell>
        <mxCell id="Ko-R9MRRwcQ64pfk7p8N-61" value="space &lt;b&gt;&amp;lt;=&lt;/b&gt; (size-row)" style="rhombus;whiteSpace=wrap;html=1;strokeWidth=2;" vertex="1" parent="1">
          <mxGeometry x="295" y="-420" width="130" height="100" as="geometry" />
        </mxCell>
        <mxCell id="Ko-R9MRRwcQ64pfk7p8N-62" style="edgeStyle=orthogonalEdgeStyle;rounded=0;orthogonalLoop=1;jettySize=auto;html=1;exitX=0.5;exitY=1;exitDx=0;exitDy=0;entryX=0.5;entryY=0;entryDx=0;entryDy=0;strokeWidth=2;" edge="1" parent="1" source="Ko-R9MRRwcQ64pfk7p8N-63" target="Ko-R9MRRwcQ64pfk7p8N-59">
          <mxGeometry relative="1" as="geometry" />
        </mxCell>
        <mxCell id="Ko-R9MRRwcQ64pfk7p8N-63" value="&lt;b&gt;Output&lt;/b&gt;&lt;br&gt;row" style="shape=parallelogram;perimeter=parallelogramPerimeter;whiteSpace=wrap;html=1;fixedSize=1;rounded=1;strokeWidth=2;" vertex="1" parent="1">
          <mxGeometry x="300" y="-620" width="120" height="60" as="geometry" />
        </mxCell>
        <mxCell id="Ko-R9MRRwcQ64pfk7p8N-64" value="" style="endArrow=classic;html=1;rounded=0;strokeWidth=2;exitX=1;exitY=0.5;exitDx=0;exitDy=0;entryX=0;entryY=0.5;entryDx=0;entryDy=0;" edge="1" parent="1">
          <mxGeometry relative="1" as="geometry">
            <mxPoint x="425" y="-370.5" as="sourcePoint" />
            <mxPoint x="480" y="-370" as="targetPoint" />
          </mxGeometry>
        </mxCell>
        <mxCell id="Ko-R9MRRwcQ64pfk7p8N-65" value="True" style="edgeLabel;resizable=0;html=1;align=center;verticalAlign=middle;" connectable="0" vertex="1" parent="Ko-R9MRRwcQ64pfk7p8N-64">
          <mxGeometry relative="1" as="geometry" />
        </mxCell>
        <mxCell id="Ko-R9MRRwcQ64pfk7p8N-66" value="&lt;b&gt;Output Space&lt;br style=&quot;border-color: var(--border-color);&quot;&gt;&lt;/b&gt;&lt;span style=&quot;font-weight: bold; border-color: var(--border-color);&quot;&gt;&quot; &quot;&lt;/span&gt;" style="shape=parallelogram;perimeter=parallelogramPerimeter;whiteSpace=wrap;html=1;fixedSize=1;rounded=1;strokeWidth=2;" vertex="1" parent="1">
          <mxGeometry x="470" y="-400" width="110" height="60" as="geometry" />
        </mxCell>
        <mxCell id="Ko-R9MRRwcQ64pfk7p8N-67" value="&lt;b&gt;Increment&lt;/b&gt;&lt;br&gt;space++" style="rounded=1;whiteSpace=wrap;html=1;strokeWidth=2;" vertex="1" parent="1">
          <mxGeometry x="500" y="-490" width="90" height="60" as="geometry" />
        </mxCell>
        <mxCell id="Ko-R9MRRwcQ64pfk7p8N-68" style="edgeStyle=orthogonalEdgeStyle;rounded=0;orthogonalLoop=1;jettySize=auto;html=1;exitX=1;exitY=0.5;exitDx=0;exitDy=0;strokeWidth=2;" edge="1" parent="1">
          <mxGeometry relative="1" as="geometry">
            <mxPoint x="570" y="-370" as="sourcePoint" />
            <mxPoint x="590" y="-460" as="targetPoint" />
            <Array as="points">
              <mxPoint x="620" y="-370" />
              <mxPoint x="620" y="-460" />
            </Array>
          </mxGeometry>
        </mxCell>
        <mxCell id="Ko-R9MRRwcQ64pfk7p8N-69" value="" style="endArrow=none;html=1;rounded=0;strokeWidth=2;" edge="1" parent="1">
          <mxGeometry width="50" height="50" relative="1" as="geometry">
            <mxPoint x="360" y="-440" as="sourcePoint" />
            <mxPoint x="500" y="-460" as="targetPoint" />
            <Array as="points">
              <mxPoint x="460" y="-440" />
              <mxPoint x="460" y="-460" />
            </Array>
          </mxGeometry>
        </mxCell>
        <mxCell id="Ko-R9MRRwcQ64pfk7p8N-70" value="&lt;b&gt;Output New Line&lt;br style=&quot;border-color: var(--border-color);&quot;&gt;&lt;/b&gt;endl" style="shape=parallelogram;perimeter=parallelogramPerimeter;whiteSpace=wrap;html=1;fixedSize=1;rounded=1;strokeWidth=2;" vertex="1" parent="1">
          <mxGeometry x="292.5" y="-270" width="135" height="60" as="geometry" />
        </mxCell>
        <mxCell id="Ko-R9MRRwcQ64pfk7p8N-71" value="&lt;font style=&quot;font-size: 12px;&quot;&gt;False&lt;/font&gt;" style="edgeLabel;resizable=0;html=1;align=center;verticalAlign=middle;" connectable="0" vertex="1" parent="1">
          <mxGeometry x="340" y="-300" as="geometry">
            <mxPoint x="15" y="1" as="offset" />
          </mxGeometry>
        </mxCell>
        <mxCell id="Ko-R9MRRwcQ64pfk7p8N-72" value="" style="endArrow=none;html=1;rounded=0;exitX=1;exitY=0.5;exitDx=0;exitDy=0;strokeWidth=2;" edge="1" parent="1" source="Ko-R9MRRwcQ64pfk7p8N-70">
          <mxGeometry width="50" height="50" relative="1" as="geometry">
            <mxPoint x="500" y="-220" as="sourcePoint" />
            <mxPoint x="670" y="-920" as="targetPoint" />
            <Array as="points">
              <mxPoint x="670" y="-240" />
            </Array>
          </mxGeometry>
        </mxCell>
        <mxCell id="Ko-R9MRRwcQ64pfk7p8N-73" value="&lt;b&gt;Increment&lt;/b&gt;&lt;br&gt;row++" style="rounded=1;whiteSpace=wrap;html=1;strokeWidth=2;" vertex="1" parent="1">
          <mxGeometry x="500" y="-950" width="90" height="60" as="geometry" />
        </mxCell>
        <mxCell id="Ko-R9MRRwcQ64pfk7p8N-74" value="" style="endArrow=classic;html=1;rounded=0;entryX=1;entryY=0.5;entryDx=0;entryDy=0;strokeWidth=2;" edge="1" parent="1" target="Ko-R9MRRwcQ64pfk7p8N-73">
          <mxGeometry width="50" height="50" relative="1" as="geometry">
            <mxPoint x="670" y="-920" as="sourcePoint" />
            <mxPoint x="720" y="-1000" as="targetPoint" />
          </mxGeometry>
        </mxCell>
        <mxCell id="Ko-R9MRRwcQ64pfk7p8N-75" value="" style="endArrow=none;html=1;rounded=0;entryX=0;entryY=0.5;entryDx=0;entryDy=0;strokeWidth=2;" edge="1" parent="1" target="Ko-R9MRRwcQ64pfk7p8N-73">
          <mxGeometry width="50" height="50" relative="1" as="geometry">
            <mxPoint x="240" y="-920" as="sourcePoint" />
            <mxPoint x="380" y="-980" as="targetPoint" />
            <Array as="points">
              <mxPoint x="410" y="-920" />
            </Array>
          </mxGeometry>
        </mxCell>
        <mxCell id="cMIOmmHfhrredYDEQK7q-1" value="row &lt;b&gt;&amp;lt;=&lt;/b&gt; size" style="rhombus;whiteSpace=wrap;html=1;strokeWidth=2;" vertex="1" parent="1">
          <mxGeometry x="190" y="-890" width="100" height="90" as="geometry" />
        </mxCell>
        <mxCell id="exMAvtyG8RTe_ER7BIo0-1" value="&lt;font style=&quot;font-size: 12px;&quot;&gt;False&lt;/font&gt;" style="edgeLabel;resizable=0;html=1;align=center;verticalAlign=middle;" connectable="0" vertex="1" parent="1">
          <mxGeometry x="260" y="-790" as="geometry">
            <mxPoint x="-4" y="6" as="offset" />
          </mxGeometry>
        </mxCell>
        <mxCell id="_7dPCtwYn6kaWEeQbZeF-1" value="Exit Main&lt;br&gt;&lt;b&gt;return 0&lt;/b&gt;" style="ellipse;whiteSpace=wrap;html=1;strokeWidth=2;" vertex="1" parent="1">
          <mxGeometry x="185" y="-760" width="110" height="70" as="geometry" />
        </mxCell>
      </root>
    </mxGraphModel>
  </diagram>
  <diagram id="zFTValGd7vf4izEAnVA_" name="Page-4">
    <mxGraphModel dx="1098" dy="828" grid="1" gridSize="10" guides="1" tooltips="1" connect="1" arrows="1" fold="1" page="1" pageScale="1" pageWidth="850" pageHeight="1400" math="0" shadow="0">
      <root>
        <mxCell id="0" />
        <mxCell id="1" parent="0" />
        <mxCell id="73ACOdMT9-SYEZ22Dl8X-2" style="edgeStyle=orthogonalEdgeStyle;rounded=0;orthogonalLoop=1;jettySize=auto;html=1;exitX=1;exitY=0.5;exitDx=0;exitDy=0;entryX=0;entryY=0.5;entryDx=0;entryDy=0;strokeWidth=2;" edge="1" parent="1" source="LCVC-gKlt31xY7lDiWKy-1" target="73ACOdMT9-SYEZ22Dl8X-1">
          <mxGeometry relative="1" as="geometry" />
        </mxCell>
        <mxCell id="LCVC-gKlt31xY7lDiWKy-1" value="Page 4" style="ellipse;whiteSpace=wrap;html=1;aspect=fixed;strokeWidth=2;" vertex="1" parent="1">
          <mxGeometry x="90" y="60" width="70" height="70" as="geometry" />
        </mxCell>
        <mxCell id="ACyZZ-3FLGmMdKCSi7qg-1" value="" style="endArrow=classic;html=1;rounded=0;strokeWidth=2;exitX=1;exitY=0.5;exitDx=0;exitDy=0;entryX=0;entryY=0.5;entryDx=0;entryDy=0;" edge="1" parent="1" source="73ACOdMT9-SYEZ22Dl8X-1" target="ACyZZ-3FLGmMdKCSi7qg-4">
          <mxGeometry relative="1" as="geometry">
            <mxPoint x="300" y="89.5" as="sourcePoint" />
            <mxPoint x="360" y="90" as="targetPoint" />
          </mxGeometry>
        </mxCell>
        <mxCell id="ACyZZ-3FLGmMdKCSi7qg-2" value="True" style="edgeLabel;resizable=0;html=1;align=center;verticalAlign=middle;" connectable="0" vertex="1" parent="ACyZZ-3FLGmMdKCSi7qg-1">
          <mxGeometry relative="1" as="geometry" />
        </mxCell>
        <mxCell id="ACyZZ-3FLGmMdKCSi7qg-3" style="edgeStyle=orthogonalEdgeStyle;rounded=0;orthogonalLoop=1;jettySize=auto;html=1;exitX=0.5;exitY=1;exitDx=0;exitDy=0;entryX=0.5;entryY=0;entryDx=0;entryDy=0;strokeWidth=2;" edge="1" parent="1" source="ACyZZ-3FLGmMdKCSi7qg-4" target="ACyZZ-3FLGmMdKCSi7qg-6">
          <mxGeometry relative="1" as="geometry">
            <Array as="points">
              <mxPoint x="440" y="170" />
              <mxPoint x="310" y="170" />
            </Array>
            <mxPoint x="430" y="165" as="sourcePoint" />
          </mxGeometry>
        </mxCell>
        <mxCell id="ACyZZ-3FLGmMdKCSi7qg-4" value="Declare and Initialize In &lt;i&gt;row &lt;/i&gt;For Loop&lt;br&gt;&lt;br&gt;row = 1&amp;nbsp;" style="rounded=1;whiteSpace=wrap;html=1;strokeWidth=2;" vertex="1" parent="1">
          <mxGeometry x="390" y="55" width="100" height="80" as="geometry" />
        </mxCell>
        <mxCell id="ACyZZ-3FLGmMdKCSi7qg-5" style="edgeStyle=orthogonalEdgeStyle;rounded=0;orthogonalLoop=1;jettySize=auto;html=1;exitX=0.5;exitY=1;exitDx=0;exitDy=0;entryX=0.5;entryY=0;entryDx=0;entryDy=0;strokeWidth=2;" edge="1" parent="1" source="ACyZZ-3FLGmMdKCSi7qg-6">
          <mxGeometry relative="1" as="geometry">
            <mxPoint x="310" y="370" as="targetPoint" />
          </mxGeometry>
        </mxCell>
        <mxCell id="ACyZZ-3FLGmMdKCSi7qg-6" value="row &lt;b&gt;&amp;lt;=&lt;/b&gt; size" style="rhombus;whiteSpace=wrap;html=1;strokeWidth=2;" vertex="1" parent="1">
          <mxGeometry x="260" y="230" width="100" height="100" as="geometry" />
        </mxCell>
        <mxCell id="ACyZZ-3FLGmMdKCSi7qg-7" style="edgeStyle=orthogonalEdgeStyle;rounded=0;orthogonalLoop=1;jettySize=auto;html=1;exitX=0.5;exitY=1;exitDx=0;exitDy=0;entryX=0.5;entryY=0;entryDx=0;entryDy=0;strokeWidth=2;" edge="1" parent="1" source="ACyZZ-3FLGmMdKCSi7qg-8" target="ACyZZ-3FLGmMdKCSi7qg-11">
          <mxGeometry relative="1" as="geometry">
            <Array as="points">
              <mxPoint x="480" y="320" />
              <mxPoint x="480" y="330" />
              <mxPoint x="430" y="330" />
            </Array>
          </mxGeometry>
        </mxCell>
        <mxCell id="ACyZZ-3FLGmMdKCSi7qg-8" value="Declare and Initialize In &lt;i&gt;column &lt;/i&gt;For Loop&lt;br&gt;&lt;br&gt;col = 1" style="rounded=1;whiteSpace=wrap;html=1;strokeWidth=2;" vertex="1" parent="1">
          <mxGeometry x="425" y="240" width="100" height="80" as="geometry" />
        </mxCell>
        <mxCell id="ACyZZ-3FLGmMdKCSi7qg-9" value="" style="endArrow=classic;html=1;rounded=0;strokeWidth=2;exitX=1;exitY=0.5;exitDx=0;exitDy=0;" edge="1" parent="1" source="ACyZZ-3FLGmMdKCSi7qg-6">
          <mxGeometry relative="1" as="geometry">
            <mxPoint x="350" y="274.5" as="sourcePoint" />
            <mxPoint x="420" y="280" as="targetPoint" />
          </mxGeometry>
        </mxCell>
        <mxCell id="ACyZZ-3FLGmMdKCSi7qg-10" value="True" style="edgeLabel;resizable=0;html=1;align=center;verticalAlign=middle;" connectable="0" vertex="1" parent="ACyZZ-3FLGmMdKCSi7qg-9">
          <mxGeometry relative="1" as="geometry" />
        </mxCell>
        <mxCell id="ACyZZ-3FLGmMdKCSi7qg-11" value="col &lt;b&gt;&amp;lt;= &lt;/b&gt;(size-row)" style="rhombus;whiteSpace=wrap;html=1;strokeWidth=2;" vertex="1" parent="1">
          <mxGeometry x="380" y="370" width="100" height="100" as="geometry" />
        </mxCell>
        <mxCell id="ACyZZ-3FLGmMdKCSi7qg-12" value="" style="endArrow=classic;html=1;rounded=0;strokeWidth=2;exitX=1;exitY=0.5;exitDx=0;exitDy=0;entryX=0;entryY=0.25;entryDx=0;entryDy=0;" edge="1" parent="1" source="ACyZZ-3FLGmMdKCSi7qg-11" target="ACyZZ-3FLGmMdKCSi7qg-16">
          <mxGeometry relative="1" as="geometry">
            <mxPoint x="470" y="429.5" as="sourcePoint" />
            <mxPoint x="540" y="429.5" as="targetPoint" />
          </mxGeometry>
        </mxCell>
        <mxCell id="ACyZZ-3FLGmMdKCSi7qg-13" value="True" style="edgeLabel;resizable=0;html=1;align=center;verticalAlign=middle;" connectable="0" vertex="1" parent="ACyZZ-3FLGmMdKCSi7qg-12">
          <mxGeometry relative="1" as="geometry" />
        </mxCell>
        <mxCell id="ACyZZ-3FLGmMdKCSi7qg-14" value="&lt;b&gt;Increment&lt;/b&gt;&lt;br&gt;col++" style="rounded=1;whiteSpace=wrap;html=1;strokeWidth=2;" vertex="1" parent="1">
          <mxGeometry x="550" y="310" width="90" height="60" as="geometry" />
        </mxCell>
        <mxCell id="ACyZZ-3FLGmMdKCSi7qg-15" style="edgeStyle=orthogonalEdgeStyle;rounded=0;orthogonalLoop=1;jettySize=auto;html=1;exitX=1;exitY=0.5;exitDx=0;exitDy=0;entryX=1;entryY=0.5;entryDx=0;entryDy=0;strokeWidth=2;" edge="1" parent="1" source="ACyZZ-3FLGmMdKCSi7qg-16" target="ACyZZ-3FLGmMdKCSi7qg-14">
          <mxGeometry relative="1" as="geometry">
            <Array as="points">
              <mxPoint x="670" y="430" />
              <mxPoint x="670" y="340" />
            </Array>
          </mxGeometry>
        </mxCell>
        <mxCell id="ACyZZ-3FLGmMdKCSi7qg-16" value="&lt;b&gt;Output Space&lt;br style=&quot;border-color: var(--border-color);&quot;&gt;&lt;/b&gt;&lt;span style=&quot;font-weight: bold; border-color: var(--border-color);&quot;&gt;&quot; &quot;&lt;/span&gt;" style="shape=parallelogram;perimeter=parallelogramPerimeter;whiteSpace=wrap;html=1;fixedSize=1;rounded=1;strokeWidth=2;" vertex="1" parent="1">
          <mxGeometry x="530" y="400" width="110" height="60" as="geometry" />
        </mxCell>
        <mxCell id="ACyZZ-3FLGmMdKCSi7qg-17" value="" style="endArrow=none;html=1;rounded=0;entryX=0;entryY=0.667;entryDx=0;entryDy=0;strokeWidth=2;entryPerimeter=0;" edge="1" parent="1" target="ACyZZ-3FLGmMdKCSi7qg-14">
          <mxGeometry width="50" height="50" relative="1" as="geometry">
            <mxPoint x="430" y="350" as="sourcePoint" />
            <mxPoint x="500" y="350" as="targetPoint" />
          </mxGeometry>
        </mxCell>
        <mxCell id="ACyZZ-3FLGmMdKCSi7qg-18" value="" style="endArrow=classic;html=1;rounded=0;exitX=0.5;exitY=1;exitDx=0;exitDy=0;strokeWidth=2;entryX=0.5;entryY=0;entryDx=0;entryDy=0;" edge="1" parent="1" source="ACyZZ-3FLGmMdKCSi7qg-11" target="ACyZZ-3FLGmMdKCSi7qg-25">
          <mxGeometry relative="1" as="geometry">
            <mxPoint x="450" y="530" as="sourcePoint" />
            <mxPoint x="430" y="500" as="targetPoint" />
          </mxGeometry>
        </mxCell>
        <mxCell id="ACyZZ-3FLGmMdKCSi7qg-19" value="&lt;font style=&quot;font-size: 12px;&quot;&gt;False&lt;/font&gt;" style="edgeLabel;resizable=0;html=1;align=center;verticalAlign=middle;" connectable="0" vertex="1" parent="ACyZZ-3FLGmMdKCSi7qg-18">
          <mxGeometry relative="1" as="geometry">
            <mxPoint x="-20" y="-5" as="offset" />
          </mxGeometry>
        </mxCell>
        <mxCell id="ACyZZ-3FLGmMdKCSi7qg-20" style="edgeStyle=orthogonalEdgeStyle;rounded=0;orthogonalLoop=1;jettySize=auto;html=1;exitX=0.5;exitY=1;exitDx=0;exitDy=0;entryX=0.5;entryY=0;entryDx=0;entryDy=0;strokeWidth=2;" edge="1" parent="1" source="ACyZZ-3FLGmMdKCSi7qg-21" target="ACyZZ-3FLGmMdKCSi7qg-23">
          <mxGeometry relative="1" as="geometry" />
        </mxCell>
        <mxCell id="ACyZZ-3FLGmMdKCSi7qg-21" value="Declare and Initialize In &lt;i&gt;spaces&amp;nbsp;&lt;/i&gt;For Loop&lt;br style=&quot;border-color: var(--border-color);&quot;&gt;&lt;br style=&quot;border-color: var(--border-color);&quot;&gt;space = 1" style="rounded=1;whiteSpace=wrap;html=1;strokeWidth=2;" vertex="1" parent="1">
          <mxGeometry x="370" y="590" width="120" height="70" as="geometry" />
        </mxCell>
        <mxCell id="ACyZZ-3FLGmMdKCSi7qg-22" style="edgeStyle=orthogonalEdgeStyle;rounded=0;orthogonalLoop=1;jettySize=auto;html=1;exitX=0.5;exitY=1;exitDx=0;exitDy=0;entryX=0.5;entryY=0;entryDx=0;entryDy=0;strokeWidth=2;" edge="1" parent="1" source="ACyZZ-3FLGmMdKCSi7qg-23" target="ACyZZ-3FLGmMdKCSi7qg-32">
          <mxGeometry relative="1" as="geometry" />
        </mxCell>
        <mxCell id="ACyZZ-3FLGmMdKCSi7qg-23" value="space &lt;b&gt;&amp;lt; &lt;/b&gt;row" style="rhombus;whiteSpace=wrap;html=1;strokeWidth=2;" vertex="1" parent="1">
          <mxGeometry x="365" y="700" width="130" height="100" as="geometry" />
        </mxCell>
        <mxCell id="ACyZZ-3FLGmMdKCSi7qg-24" style="edgeStyle=orthogonalEdgeStyle;rounded=0;orthogonalLoop=1;jettySize=auto;html=1;exitX=0.5;exitY=1;exitDx=0;exitDy=0;entryX=0.5;entryY=0;entryDx=0;entryDy=0;strokeWidth=2;" edge="1" parent="1" source="ACyZZ-3FLGmMdKCSi7qg-25" target="ACyZZ-3FLGmMdKCSi7qg-21">
          <mxGeometry relative="1" as="geometry" />
        </mxCell>
        <mxCell id="ACyZZ-3FLGmMdKCSi7qg-25" value="&lt;b&gt;Output&lt;/b&gt;&lt;br&gt;row" style="shape=parallelogram;perimeter=parallelogramPerimeter;whiteSpace=wrap;html=1;fixedSize=1;rounded=1;strokeWidth=2;" vertex="1" parent="1">
          <mxGeometry x="370" y="500" width="120" height="60" as="geometry" />
        </mxCell>
        <mxCell id="ACyZZ-3FLGmMdKCSi7qg-26" value="" style="endArrow=classic;html=1;rounded=0;strokeWidth=2;exitX=1;exitY=0.5;exitDx=0;exitDy=0;entryX=0;entryY=0.5;entryDx=0;entryDy=0;" edge="1" parent="1">
          <mxGeometry relative="1" as="geometry">
            <mxPoint x="495" y="749.5" as="sourcePoint" />
            <mxPoint x="550" y="750" as="targetPoint" />
          </mxGeometry>
        </mxCell>
        <mxCell id="ACyZZ-3FLGmMdKCSi7qg-27" value="True" style="edgeLabel;resizable=0;html=1;align=center;verticalAlign=middle;" connectable="0" vertex="1" parent="ACyZZ-3FLGmMdKCSi7qg-26">
          <mxGeometry relative="1" as="geometry" />
        </mxCell>
        <mxCell id="ACyZZ-3FLGmMdKCSi7qg-28" value="&lt;b&gt;Output Space&lt;br style=&quot;border-color: var(--border-color);&quot;&gt;&lt;/b&gt;&lt;span style=&quot;font-weight: bold; border-color: var(--border-color);&quot;&gt;&quot; &quot;&lt;/span&gt;" style="shape=parallelogram;perimeter=parallelogramPerimeter;whiteSpace=wrap;html=1;fixedSize=1;rounded=1;strokeWidth=2;" vertex="1" parent="1">
          <mxGeometry x="540" y="720" width="110" height="60" as="geometry" />
        </mxCell>
        <mxCell id="ACyZZ-3FLGmMdKCSi7qg-29" value="&lt;b&gt;Increment&lt;/b&gt;&lt;br&gt;space++" style="rounded=1;whiteSpace=wrap;html=1;strokeWidth=2;" vertex="1" parent="1">
          <mxGeometry x="570" y="630" width="90" height="60" as="geometry" />
        </mxCell>
        <mxCell id="ACyZZ-3FLGmMdKCSi7qg-30" style="edgeStyle=orthogonalEdgeStyle;rounded=0;orthogonalLoop=1;jettySize=auto;html=1;exitX=1;exitY=0.5;exitDx=0;exitDy=0;strokeWidth=2;" edge="1" parent="1">
          <mxGeometry relative="1" as="geometry">
            <mxPoint x="640" y="750" as="sourcePoint" />
            <mxPoint x="660" y="660" as="targetPoint" />
            <Array as="points">
              <mxPoint x="690" y="750" />
              <mxPoint x="690" y="660" />
            </Array>
          </mxGeometry>
        </mxCell>
        <mxCell id="ACyZZ-3FLGmMdKCSi7qg-31" value="" style="endArrow=none;html=1;rounded=0;strokeWidth=2;" edge="1" parent="1">
          <mxGeometry width="50" height="50" relative="1" as="geometry">
            <mxPoint x="430" y="680" as="sourcePoint" />
            <mxPoint x="570" y="660" as="targetPoint" />
            <Array as="points">
              <mxPoint x="530" y="680" />
              <mxPoint x="530" y="660" />
            </Array>
          </mxGeometry>
        </mxCell>
        <mxCell id="ACyZZ-3FLGmMdKCSi7qg-32" value="&lt;b&gt;Output New Line&lt;br style=&quot;border-color: var(--border-color);&quot;&gt;&lt;/b&gt;endl" style="shape=parallelogram;perimeter=parallelogramPerimeter;whiteSpace=wrap;html=1;fixedSize=1;rounded=1;strokeWidth=2;" vertex="1" parent="1">
          <mxGeometry x="362.5" y="850" width="135" height="60" as="geometry" />
        </mxCell>
        <mxCell id="ACyZZ-3FLGmMdKCSi7qg-33" value="&lt;font style=&quot;font-size: 12px;&quot;&gt;False&lt;/font&gt;" style="edgeLabel;resizable=0;html=1;align=center;verticalAlign=middle;" connectable="0" vertex="1" parent="1">
          <mxGeometry x="410" y="820" as="geometry">
            <mxPoint x="15" y="1" as="offset" />
          </mxGeometry>
        </mxCell>
        <mxCell id="ACyZZ-3FLGmMdKCSi7qg-34" value="" style="endArrow=none;html=1;rounded=0;exitX=1;exitY=0.5;exitDx=0;exitDy=0;strokeWidth=2;" edge="1" parent="1" source="ACyZZ-3FLGmMdKCSi7qg-32">
          <mxGeometry width="50" height="50" relative="1" as="geometry">
            <mxPoint x="570" y="900" as="sourcePoint" />
            <mxPoint x="740" y="190" as="targetPoint" />
            <Array as="points">
              <mxPoint x="740" y="880" />
            </Array>
          </mxGeometry>
        </mxCell>
        <mxCell id="ACyZZ-3FLGmMdKCSi7qg-35" value="&lt;b&gt;Increment&lt;/b&gt;&lt;br&gt;row++" style="rounded=1;whiteSpace=wrap;html=1;strokeWidth=2;" vertex="1" parent="1">
          <mxGeometry x="570" y="160" width="90" height="60" as="geometry" />
        </mxCell>
        <mxCell id="ACyZZ-3FLGmMdKCSi7qg-36" value="" style="endArrow=classic;html=1;rounded=0;entryX=1;entryY=0.5;entryDx=0;entryDy=0;strokeWidth=2;" edge="1" parent="1" target="ACyZZ-3FLGmMdKCSi7qg-35">
          <mxGeometry width="50" height="50" relative="1" as="geometry">
            <mxPoint x="740" y="190" as="sourcePoint" />
            <mxPoint x="790" y="120" as="targetPoint" />
          </mxGeometry>
        </mxCell>
        <mxCell id="ACyZZ-3FLGmMdKCSi7qg-37" value="" style="endArrow=none;html=1;rounded=0;entryX=0;entryY=0.5;entryDx=0;entryDy=0;strokeWidth=2;" edge="1" parent="1" target="ACyZZ-3FLGmMdKCSi7qg-35">
          <mxGeometry width="50" height="50" relative="1" as="geometry">
            <mxPoint x="310" y="190" as="sourcePoint" />
            <mxPoint x="450" y="140" as="targetPoint" />
            <Array as="points">
              <mxPoint x="440" y="190" />
              <mxPoint x="480" y="190" />
            </Array>
          </mxGeometry>
        </mxCell>
        <mxCell id="A3do1Y-69KK15OwqnZ7c-2" style="edgeStyle=orthogonalEdgeStyle;rounded=0;orthogonalLoop=1;jettySize=auto;html=1;exitX=0.5;exitY=1;exitDx=0;exitDy=0;entryX=0.5;entryY=0;entryDx=0;entryDy=0;strokeWidth=2;" edge="1" parent="1" source="73ACOdMT9-SYEZ22Dl8X-1" target="A3do1Y-69KK15OwqnZ7c-1">
          <mxGeometry relative="1" as="geometry">
            <Array as="points">
              <mxPoint x="270" y="160" />
              <mxPoint x="175" y="160" />
            </Array>
          </mxGeometry>
        </mxCell>
        <mxCell id="73ACOdMT9-SYEZ22Dl8X-1" value="&lt;div style=&quot;&quot;&gt;&lt;b style=&quot;background-color: initial;&quot;&gt;Odd&lt;/b&gt;&lt;/div&gt;size%2 != 0" style="rhombus;whiteSpace=wrap;html=1;strokeWidth=2;align=center;" vertex="1" parent="1">
          <mxGeometry x="220" y="45" width="100" height="100" as="geometry" />
        </mxCell>
        <mxCell id="A3do1Y-69KK15OwqnZ7c-1" value="Page 5" style="ellipse;whiteSpace=wrap;html=1;aspect=fixed;strokeWidth=2;" vertex="1" parent="1">
          <mxGeometry x="140" y="290" width="70" height="70" as="geometry" />
        </mxCell>
        <mxCell id="l8JdD-JQfCy22gKxnXpY-2" value="&lt;font style=&quot;font-size: 12px;&quot;&gt;False&lt;/font&gt;" style="edgeLabel;resizable=0;html=1;align=center;verticalAlign=middle;" connectable="0" vertex="1" parent="1">
          <mxGeometry x="220" y="150" as="geometry" />
        </mxCell>
        <mxCell id="P-u5gr9ZitdtwJSmwav2-1" value="Exit Main&lt;br&gt;&lt;b&gt;return 0&lt;/b&gt;" style="ellipse;whiteSpace=wrap;html=1;strokeWidth=2;" vertex="1" parent="1">
          <mxGeometry x="255" y="370" width="110" height="70" as="geometry" />
        </mxCell>
      </root>
    </mxGraphModel>
  </diagram>
  <diagram id="EkSjmuViCKsowjvHkg9z" name="Page-5">
    <mxGraphModel dx="1098" dy="828" grid="1" gridSize="10" guides="1" tooltips="1" connect="1" arrows="1" fold="1" page="1" pageScale="1" pageWidth="850" pageHeight="1400" math="0" shadow="0">
      <root>
        <mxCell id="0" />
        <mxCell id="1" parent="0" />
        <mxCell id="At1wWGGhx2ObZTw9bWYZ-1" value="Page 5" style="ellipse;whiteSpace=wrap;html=1;aspect=fixed;strokeWidth=2;" vertex="1" parent="1">
          <mxGeometry x="120" y="105" width="70" height="70" as="geometry" />
        </mxCell>
        <mxCell id="d5mQN2ngt_xI0Nf7e6C7-1" value="" style="endArrow=classic;html=1;rounded=0;strokeWidth=2;exitX=1;exitY=0.5;exitDx=0;exitDy=0;entryX=0;entryY=0.5;entryDx=0;entryDy=0;" edge="1" parent="1" target="d5mQN2ngt_xI0Nf7e6C7-4" source="At1wWGGhx2ObZTw9bWYZ-1">
          <mxGeometry relative="1" as="geometry">
            <mxPoint x="280" y="145" as="sourcePoint" />
            <mxPoint x="320" y="140" as="targetPoint" />
          </mxGeometry>
        </mxCell>
        <mxCell id="d5mQN2ngt_xI0Nf7e6C7-3" style="edgeStyle=orthogonalEdgeStyle;rounded=0;orthogonalLoop=1;jettySize=auto;html=1;exitX=0.5;exitY=1;exitDx=0;exitDy=0;entryX=0.5;entryY=0;entryDx=0;entryDy=0;strokeWidth=2;" edge="1" parent="1" source="d5mQN2ngt_xI0Nf7e6C7-4" target="d5mQN2ngt_xI0Nf7e6C7-6">
          <mxGeometry relative="1" as="geometry">
            <Array as="points">
              <mxPoint x="400" y="220" />
              <mxPoint x="270" y="220" />
            </Array>
            <mxPoint x="390" y="215" as="sourcePoint" />
          </mxGeometry>
        </mxCell>
        <mxCell id="d5mQN2ngt_xI0Nf7e6C7-4" value="Declare and Initialize In &lt;i&gt;row &lt;/i&gt;For Loop&lt;br&gt;&lt;br&gt;row = 1&amp;nbsp;" style="rounded=1;whiteSpace=wrap;html=1;strokeWidth=2;" vertex="1" parent="1">
          <mxGeometry x="350" y="100" width="100" height="80" as="geometry" />
        </mxCell>
        <mxCell id="d5mQN2ngt_xI0Nf7e6C7-5" style="edgeStyle=orthogonalEdgeStyle;rounded=0;orthogonalLoop=1;jettySize=auto;html=1;exitX=0.5;exitY=1;exitDx=0;exitDy=0;entryX=0.5;entryY=0;entryDx=0;entryDy=0;strokeWidth=2;" edge="1" parent="1" source="d5mQN2ngt_xI0Nf7e6C7-6">
          <mxGeometry relative="1" as="geometry">
            <mxPoint x="270" y="420" as="targetPoint" />
          </mxGeometry>
        </mxCell>
        <mxCell id="d5mQN2ngt_xI0Nf7e6C7-6" value="row &lt;b&gt;&amp;lt;=&lt;/b&gt; size" style="rhombus;whiteSpace=wrap;html=1;strokeWidth=2;" vertex="1" parent="1">
          <mxGeometry x="220" y="280" width="100" height="100" as="geometry" />
        </mxCell>
        <mxCell id="d5mQN2ngt_xI0Nf7e6C7-7" style="edgeStyle=orthogonalEdgeStyle;rounded=0;orthogonalLoop=1;jettySize=auto;html=1;exitX=0.5;exitY=1;exitDx=0;exitDy=0;entryX=0.5;entryY=0;entryDx=0;entryDy=0;strokeWidth=2;" edge="1" parent="1" source="d5mQN2ngt_xI0Nf7e6C7-8" target="d5mQN2ngt_xI0Nf7e6C7-11">
          <mxGeometry relative="1" as="geometry">
            <Array as="points">
              <mxPoint x="440" y="370" />
              <mxPoint x="440" y="380" />
              <mxPoint x="390" y="380" />
            </Array>
          </mxGeometry>
        </mxCell>
        <mxCell id="d5mQN2ngt_xI0Nf7e6C7-8" value="Declare and Initialize In &lt;i&gt;column &lt;/i&gt;For Loop&lt;br&gt;&lt;br&gt;col = 1" style="rounded=1;whiteSpace=wrap;html=1;strokeWidth=2;" vertex="1" parent="1">
          <mxGeometry x="385" y="290" width="100" height="80" as="geometry" />
        </mxCell>
        <mxCell id="d5mQN2ngt_xI0Nf7e6C7-9" value="" style="endArrow=classic;html=1;rounded=0;strokeWidth=2;exitX=1;exitY=0.5;exitDx=0;exitDy=0;" edge="1" parent="1" source="d5mQN2ngt_xI0Nf7e6C7-6">
          <mxGeometry relative="1" as="geometry">
            <mxPoint x="310" y="324.5" as="sourcePoint" />
            <mxPoint x="380" y="330" as="targetPoint" />
          </mxGeometry>
        </mxCell>
        <mxCell id="d5mQN2ngt_xI0Nf7e6C7-10" value="True" style="edgeLabel;resizable=0;html=1;align=center;verticalAlign=middle;" connectable="0" vertex="1" parent="d5mQN2ngt_xI0Nf7e6C7-9">
          <mxGeometry relative="1" as="geometry" />
        </mxCell>
        <mxCell id="d5mQN2ngt_xI0Nf7e6C7-11" value="col &lt;b&gt;&amp;lt;= &lt;/b&gt;(size-row)" style="rhombus;whiteSpace=wrap;html=1;strokeWidth=2;" vertex="1" parent="1">
          <mxGeometry x="340" y="420" width="100" height="100" as="geometry" />
        </mxCell>
        <mxCell id="d5mQN2ngt_xI0Nf7e6C7-12" value="" style="endArrow=classic;html=1;rounded=0;strokeWidth=2;exitX=1;exitY=0.5;exitDx=0;exitDy=0;entryX=0;entryY=0.25;entryDx=0;entryDy=0;" edge="1" parent="1" source="d5mQN2ngt_xI0Nf7e6C7-11" target="d5mQN2ngt_xI0Nf7e6C7-16">
          <mxGeometry relative="1" as="geometry">
            <mxPoint x="430" y="479.5" as="sourcePoint" />
            <mxPoint x="500" y="479.5" as="targetPoint" />
          </mxGeometry>
        </mxCell>
        <mxCell id="d5mQN2ngt_xI0Nf7e6C7-13" value="True" style="edgeLabel;resizable=0;html=1;align=center;verticalAlign=middle;" connectable="0" vertex="1" parent="d5mQN2ngt_xI0Nf7e6C7-12">
          <mxGeometry relative="1" as="geometry" />
        </mxCell>
        <mxCell id="d5mQN2ngt_xI0Nf7e6C7-14" value="&lt;b&gt;Increment&lt;/b&gt;&lt;br&gt;col++" style="rounded=1;whiteSpace=wrap;html=1;strokeWidth=2;" vertex="1" parent="1">
          <mxGeometry x="510" y="360" width="90" height="60" as="geometry" />
        </mxCell>
        <mxCell id="d5mQN2ngt_xI0Nf7e6C7-15" style="edgeStyle=orthogonalEdgeStyle;rounded=0;orthogonalLoop=1;jettySize=auto;html=1;exitX=1;exitY=0.5;exitDx=0;exitDy=0;entryX=1;entryY=0.5;entryDx=0;entryDy=0;strokeWidth=2;" edge="1" parent="1" source="d5mQN2ngt_xI0Nf7e6C7-16" target="d5mQN2ngt_xI0Nf7e6C7-14">
          <mxGeometry relative="1" as="geometry">
            <Array as="points">
              <mxPoint x="630" y="480" />
              <mxPoint x="630" y="390" />
            </Array>
          </mxGeometry>
        </mxCell>
        <mxCell id="d5mQN2ngt_xI0Nf7e6C7-16" value="&lt;b&gt;Output Space&lt;br style=&quot;border-color: var(--border-color);&quot;&gt;&lt;/b&gt;&lt;span style=&quot;font-weight: bold; border-color: var(--border-color);&quot;&gt;&quot; &quot;&lt;/span&gt;" style="shape=parallelogram;perimeter=parallelogramPerimeter;whiteSpace=wrap;html=1;fixedSize=1;rounded=1;strokeWidth=2;" vertex="1" parent="1">
          <mxGeometry x="490" y="450" width="110" height="60" as="geometry" />
        </mxCell>
        <mxCell id="d5mQN2ngt_xI0Nf7e6C7-17" value="" style="endArrow=none;html=1;rounded=0;entryX=0;entryY=0.667;entryDx=0;entryDy=0;strokeWidth=2;entryPerimeter=0;" edge="1" parent="1" target="d5mQN2ngt_xI0Nf7e6C7-14">
          <mxGeometry width="50" height="50" relative="1" as="geometry">
            <mxPoint x="390" y="400" as="sourcePoint" />
            <mxPoint x="460" y="400" as="targetPoint" />
          </mxGeometry>
        </mxCell>
        <mxCell id="d5mQN2ngt_xI0Nf7e6C7-18" value="" style="endArrow=classic;html=1;rounded=0;exitX=0.5;exitY=1;exitDx=0;exitDy=0;strokeWidth=2;entryX=0.5;entryY=0;entryDx=0;entryDy=0;" edge="1" parent="1" source="d5mQN2ngt_xI0Nf7e6C7-11" target="d5mQN2ngt_xI0Nf7e6C7-25">
          <mxGeometry relative="1" as="geometry">
            <mxPoint x="410" y="580" as="sourcePoint" />
            <mxPoint x="390" y="550" as="targetPoint" />
          </mxGeometry>
        </mxCell>
        <mxCell id="d5mQN2ngt_xI0Nf7e6C7-19" value="&lt;font style=&quot;font-size: 12px;&quot;&gt;False&lt;/font&gt;" style="edgeLabel;resizable=0;html=1;align=center;verticalAlign=middle;" connectable="0" vertex="1" parent="d5mQN2ngt_xI0Nf7e6C7-18">
          <mxGeometry relative="1" as="geometry">
            <mxPoint x="-20" y="-5" as="offset" />
          </mxGeometry>
        </mxCell>
        <mxCell id="d5mQN2ngt_xI0Nf7e6C7-20" style="edgeStyle=orthogonalEdgeStyle;rounded=0;orthogonalLoop=1;jettySize=auto;html=1;exitX=0.5;exitY=1;exitDx=0;exitDy=0;entryX=0.5;entryY=0;entryDx=0;entryDy=0;strokeWidth=2;" edge="1" parent="1" source="d5mQN2ngt_xI0Nf7e6C7-21" target="d5mQN2ngt_xI0Nf7e6C7-23">
          <mxGeometry relative="1" as="geometry" />
        </mxCell>
        <mxCell id="d5mQN2ngt_xI0Nf7e6C7-21" value="Declare and Initialize In &lt;i&gt;spaces&amp;nbsp;&lt;/i&gt;For Loop&lt;br style=&quot;border-color: var(--border-color);&quot;&gt;&lt;br style=&quot;border-color: var(--border-color);&quot;&gt;space = 1" style="rounded=1;whiteSpace=wrap;html=1;strokeWidth=2;" vertex="1" parent="1">
          <mxGeometry x="330" y="640" width="120" height="70" as="geometry" />
        </mxCell>
        <mxCell id="d5mQN2ngt_xI0Nf7e6C7-22" style="edgeStyle=orthogonalEdgeStyle;rounded=0;orthogonalLoop=1;jettySize=auto;html=1;exitX=0.5;exitY=1;exitDx=0;exitDy=0;entryX=0.5;entryY=0;entryDx=0;entryDy=0;strokeWidth=2;" edge="1" parent="1" source="d5mQN2ngt_xI0Nf7e6C7-23" target="d5mQN2ngt_xI0Nf7e6C7-32">
          <mxGeometry relative="1" as="geometry" />
        </mxCell>
        <mxCell id="d5mQN2ngt_xI0Nf7e6C7-23" value="space &lt;b&gt;&amp;lt; &lt;/b&gt;row" style="rhombus;whiteSpace=wrap;html=1;strokeWidth=2;" vertex="1" parent="1">
          <mxGeometry x="325" y="750" width="130" height="100" as="geometry" />
        </mxCell>
        <mxCell id="d5mQN2ngt_xI0Nf7e6C7-24" style="edgeStyle=orthogonalEdgeStyle;rounded=0;orthogonalLoop=1;jettySize=auto;html=1;exitX=0.5;exitY=1;exitDx=0;exitDy=0;entryX=0.5;entryY=0;entryDx=0;entryDy=0;strokeWidth=2;" edge="1" parent="1" source="d5mQN2ngt_xI0Nf7e6C7-25" target="d5mQN2ngt_xI0Nf7e6C7-21">
          <mxGeometry relative="1" as="geometry" />
        </mxCell>
        <mxCell id="d5mQN2ngt_xI0Nf7e6C7-25" value="&lt;b&gt;Output&lt;/b&gt;&lt;br&gt;(size+1-row)" style="shape=parallelogram;perimeter=parallelogramPerimeter;whiteSpace=wrap;html=1;fixedSize=1;rounded=1;strokeWidth=2;" vertex="1" parent="1">
          <mxGeometry x="330" y="550" width="120" height="60" as="geometry" />
        </mxCell>
        <mxCell id="d5mQN2ngt_xI0Nf7e6C7-26" value="" style="endArrow=classic;html=1;rounded=0;strokeWidth=2;exitX=1;exitY=0.5;exitDx=0;exitDy=0;entryX=0;entryY=0.5;entryDx=0;entryDy=0;" edge="1" parent="1">
          <mxGeometry relative="1" as="geometry">
            <mxPoint x="455" y="799.5" as="sourcePoint" />
            <mxPoint x="510" y="800" as="targetPoint" />
          </mxGeometry>
        </mxCell>
        <mxCell id="d5mQN2ngt_xI0Nf7e6C7-27" value="True" style="edgeLabel;resizable=0;html=1;align=center;verticalAlign=middle;" connectable="0" vertex="1" parent="d5mQN2ngt_xI0Nf7e6C7-26">
          <mxGeometry relative="1" as="geometry" />
        </mxCell>
        <mxCell id="d5mQN2ngt_xI0Nf7e6C7-28" value="&lt;b&gt;Output Space&lt;br style=&quot;border-color: var(--border-color);&quot;&gt;&lt;/b&gt;&lt;span style=&quot;font-weight: bold; border-color: var(--border-color);&quot;&gt;&quot; &quot;&lt;/span&gt;" style="shape=parallelogram;perimeter=parallelogramPerimeter;whiteSpace=wrap;html=1;fixedSize=1;rounded=1;strokeWidth=2;" vertex="1" parent="1">
          <mxGeometry x="500" y="770" width="110" height="60" as="geometry" />
        </mxCell>
        <mxCell id="d5mQN2ngt_xI0Nf7e6C7-29" value="&lt;b&gt;Increment&lt;/b&gt;&lt;br&gt;space++" style="rounded=1;whiteSpace=wrap;html=1;strokeWidth=2;" vertex="1" parent="1">
          <mxGeometry x="530" y="680" width="90" height="60" as="geometry" />
        </mxCell>
        <mxCell id="d5mQN2ngt_xI0Nf7e6C7-30" style="edgeStyle=orthogonalEdgeStyle;rounded=0;orthogonalLoop=1;jettySize=auto;html=1;exitX=1;exitY=0.5;exitDx=0;exitDy=0;strokeWidth=2;" edge="1" parent="1">
          <mxGeometry relative="1" as="geometry">
            <mxPoint x="600" y="800" as="sourcePoint" />
            <mxPoint x="620" y="710" as="targetPoint" />
            <Array as="points">
              <mxPoint x="650" y="800" />
              <mxPoint x="650" y="710" />
            </Array>
          </mxGeometry>
        </mxCell>
        <mxCell id="d5mQN2ngt_xI0Nf7e6C7-31" value="" style="endArrow=none;html=1;rounded=0;strokeWidth=2;" edge="1" parent="1">
          <mxGeometry width="50" height="50" relative="1" as="geometry">
            <mxPoint x="390" y="730" as="sourcePoint" />
            <mxPoint x="530" y="710" as="targetPoint" />
            <Array as="points">
              <mxPoint x="490" y="730" />
              <mxPoint x="490" y="710" />
            </Array>
          </mxGeometry>
        </mxCell>
        <mxCell id="d5mQN2ngt_xI0Nf7e6C7-32" value="&lt;b&gt;Output New Line&lt;br style=&quot;border-color: var(--border-color);&quot;&gt;&lt;/b&gt;endl" style="shape=parallelogram;perimeter=parallelogramPerimeter;whiteSpace=wrap;html=1;fixedSize=1;rounded=1;strokeWidth=2;" vertex="1" parent="1">
          <mxGeometry x="322.5" y="900" width="135" height="60" as="geometry" />
        </mxCell>
        <mxCell id="d5mQN2ngt_xI0Nf7e6C7-33" value="&lt;font style=&quot;font-size: 12px;&quot;&gt;False&lt;/font&gt;" style="edgeLabel;resizable=0;html=1;align=center;verticalAlign=middle;" connectable="0" vertex="1" parent="1">
          <mxGeometry x="370" y="870" as="geometry">
            <mxPoint x="15" y="1" as="offset" />
          </mxGeometry>
        </mxCell>
        <mxCell id="d5mQN2ngt_xI0Nf7e6C7-34" value="" style="endArrow=none;html=1;rounded=0;exitX=1;exitY=0.5;exitDx=0;exitDy=0;strokeWidth=2;" edge="1" parent="1" source="d5mQN2ngt_xI0Nf7e6C7-32">
          <mxGeometry width="50" height="50" relative="1" as="geometry">
            <mxPoint x="530" y="950" as="sourcePoint" />
            <mxPoint x="700" y="240" as="targetPoint" />
            <Array as="points">
              <mxPoint x="700" y="930" />
            </Array>
          </mxGeometry>
        </mxCell>
        <mxCell id="d5mQN2ngt_xI0Nf7e6C7-35" value="&lt;b&gt;Increment&lt;/b&gt;&lt;br&gt;row++" style="rounded=1;whiteSpace=wrap;html=1;strokeWidth=2;" vertex="1" parent="1">
          <mxGeometry x="530" y="210" width="90" height="60" as="geometry" />
        </mxCell>
        <mxCell id="d5mQN2ngt_xI0Nf7e6C7-36" value="" style="endArrow=classic;html=1;rounded=0;entryX=1;entryY=0.5;entryDx=0;entryDy=0;strokeWidth=2;" edge="1" parent="1" target="d5mQN2ngt_xI0Nf7e6C7-35">
          <mxGeometry width="50" height="50" relative="1" as="geometry">
            <mxPoint x="700" y="240" as="sourcePoint" />
            <mxPoint x="750" y="170" as="targetPoint" />
          </mxGeometry>
        </mxCell>
        <mxCell id="d5mQN2ngt_xI0Nf7e6C7-37" value="" style="endArrow=none;html=1;rounded=0;entryX=0;entryY=0.5;entryDx=0;entryDy=0;strokeWidth=2;" edge="1" parent="1" target="d5mQN2ngt_xI0Nf7e6C7-35">
          <mxGeometry width="50" height="50" relative="1" as="geometry">
            <mxPoint x="270" y="240" as="sourcePoint" />
            <mxPoint x="410" y="190" as="targetPoint" />
            <Array as="points">
              <mxPoint x="400" y="240" />
              <mxPoint x="440" y="240" />
            </Array>
          </mxGeometry>
        </mxCell>
        <mxCell id="IjUBoI4Z91gCdxKraqM4-1" value="Exit Main&lt;br&gt;&lt;b&gt;return 0&lt;/b&gt;" style="ellipse;whiteSpace=wrap;html=1;strokeWidth=2;" vertex="1" parent="1">
          <mxGeometry x="215" y="420" width="110" height="70" as="geometry" />
        </mxCell>
      </root>
    </mxGraphModel>
  </diagram>
  <diagram id="_Wxbe5FcSivV8YY1RQh3" name="Page-6">
    <mxGraphModel dx="1098" dy="828" grid="1" gridSize="10" guides="1" tooltips="1" connect="1" arrows="1" fold="1" page="1" pageScale="1" pageWidth="850" pageHeight="1400" math="0" shadow="0">
      <root>
        <mxCell id="0" />
        <mxCell id="1" parent="0" />
        <mxCell id="_VwKGoDhaWRAksVGr1i7-42" style="edgeStyle=orthogonalEdgeStyle;rounded=0;orthogonalLoop=1;jettySize=auto;html=1;exitX=0;exitY=0.5;exitDx=0;exitDy=0;entryX=0.5;entryY=0;entryDx=0;entryDy=0;strokeWidth=2;" edge="1" parent="1" source="25OIyZi8yyKbkN1qjl9z-1" target="_VwKGoDhaWRAksVGr1i7-1">
          <mxGeometry relative="1" as="geometry" />
        </mxCell>
        <mxCell id="25OIyZi8yyKbkN1qjl9z-1" value="&lt;b&gt;void &lt;br&gt;shapeX&lt;/b&gt; (int size)" style="ellipse;whiteSpace=wrap;html=1;strokeWidth=2;" vertex="1" parent="1">
          <mxGeometry x="330" y="40" width="130" height="80" as="geometry" />
        </mxCell>
        <mxCell id="1ltCJuE4tGmd2nOFH_tf-2" style="edgeStyle=orthogonalEdgeStyle;rounded=0;orthogonalLoop=1;jettySize=auto;html=1;exitX=0.5;exitY=1;exitDx=0;exitDy=0;entryX=0.5;entryY=0;entryDx=0;entryDy=0;strokeWidth=2;" edge="1" parent="1" source="_VwKGoDhaWRAksVGr1i7-1" target="1ltCJuE4tGmd2nOFH_tf-1">
          <mxGeometry relative="1" as="geometry" />
        </mxCell>
        <mxCell id="_VwKGoDhaWRAksVGr1i7-1" value="&lt;div style=&quot;&quot;&gt;&lt;b style=&quot;background-color: initial;&quot;&gt;Odd&lt;/b&gt;&lt;/div&gt;size%2 != 0" style="rhombus;whiteSpace=wrap;html=1;strokeWidth=2;align=center;" vertex="1" parent="1">
          <mxGeometry x="70" y="170" width="100" height="100" as="geometry" />
        </mxCell>
        <mxCell id="_VwKGoDhaWRAksVGr1i7-2" value="" style="endArrow=classic;html=1;rounded=0;strokeWidth=2;exitX=1;exitY=0.5;exitDx=0;exitDy=0;entryX=0;entryY=0.5;entryDx=0;entryDy=0;" edge="1" parent="1" source="_VwKGoDhaWRAksVGr1i7-1" target="_VwKGoDhaWRAksVGr1i7-43">
          <mxGeometry relative="1" as="geometry">
            <mxPoint x="250" y="220" as="sourcePoint" />
            <mxPoint x="310" y="220" as="targetPoint" />
          </mxGeometry>
        </mxCell>
        <mxCell id="_VwKGoDhaWRAksVGr1i7-3" value="True" style="edgeLabel;resizable=0;html=1;align=center;verticalAlign=middle;" connectable="0" vertex="1" parent="_VwKGoDhaWRAksVGr1i7-2">
          <mxGeometry relative="1" as="geometry" />
        </mxCell>
        <mxCell id="_VwKGoDhaWRAksVGr1i7-4" style="edgeStyle=orthogonalEdgeStyle;rounded=0;orthogonalLoop=1;jettySize=auto;html=1;entryX=0.5;entryY=0;entryDx=0;entryDy=0;strokeWidth=2;" edge="1" parent="1" target="_VwKGoDhaWRAksVGr1i7-7">
          <mxGeometry relative="1" as="geometry">
            <Array as="points">
              <mxPoint x="275" y="290" />
            </Array>
            <mxPoint x="530" y="290" as="sourcePoint" />
          </mxGeometry>
        </mxCell>
        <mxCell id="_VwKGoDhaWRAksVGr1i7-5" value="Declare and Initialize In &lt;i&gt;row &lt;/i&gt;For Loop&lt;br&gt;&lt;br&gt;row = 1&amp;nbsp;" style="rounded=1;whiteSpace=wrap;html=1;strokeWidth=2;" vertex="1" parent="1">
          <mxGeometry x="482.5" y="180" width="100" height="80" as="geometry" />
        </mxCell>
        <mxCell id="_VwKGoDhaWRAksVGr1i7-6" style="edgeStyle=orthogonalEdgeStyle;rounded=0;orthogonalLoop=1;jettySize=auto;html=1;exitX=0.5;exitY=1;exitDx=0;exitDy=0;entryX=0.5;entryY=0;entryDx=0;entryDy=0;strokeWidth=2;" edge="1" parent="1" source="_VwKGoDhaWRAksVGr1i7-7" target="hQf3XIzBzN4m9lkMaGOO-2">
          <mxGeometry relative="1" as="geometry">
            <mxPoint x="275" y="535" as="targetPoint" />
          </mxGeometry>
        </mxCell>
        <mxCell id="_VwKGoDhaWRAksVGr1i7-7" value="row &lt;b&gt;&amp;lt;&lt;/b&gt;&amp;nbsp;mid" style="rhombus;whiteSpace=wrap;html=1;strokeWidth=2;" vertex="1" parent="1">
          <mxGeometry x="230" y="395" width="90" height="90" as="geometry" />
        </mxCell>
        <mxCell id="_VwKGoDhaWRAksVGr1i7-8" style="edgeStyle=orthogonalEdgeStyle;rounded=0;orthogonalLoop=1;jettySize=auto;html=1;exitX=0.5;exitY=1;exitDx=0;exitDy=0;entryX=0.5;entryY=0;entryDx=0;entryDy=0;strokeWidth=2;" edge="1" parent="1" source="_VwKGoDhaWRAksVGr1i7-9" target="_VwKGoDhaWRAksVGr1i7-12">
          <mxGeometry relative="1" as="geometry" />
        </mxCell>
        <mxCell id="_VwKGoDhaWRAksVGr1i7-9" value="Declare and Initialize In &lt;i&gt;column &lt;/i&gt;For Loop&lt;br&gt;&lt;br&gt;col = 1" style="rounded=1;whiteSpace=wrap;html=1;strokeWidth=2;" vertex="1" parent="1">
          <mxGeometry x="380" y="505" width="100" height="80" as="geometry" />
        </mxCell>
        <mxCell id="_VwKGoDhaWRAksVGr1i7-10" value="" style="endArrow=classic;html=1;rounded=0;strokeWidth=2;entryX=0;entryY=0.5;entryDx=0;entryDy=0;" edge="1" parent="1" target="_VwKGoDhaWRAksVGr1i7-47">
          <mxGeometry relative="1" as="geometry">
            <mxPoint x="320" y="440" as="sourcePoint" />
            <mxPoint x="385" y="439.98" as="targetPoint" />
          </mxGeometry>
        </mxCell>
        <mxCell id="_VwKGoDhaWRAksVGr1i7-11" value="True" style="edgeLabel;resizable=0;html=1;align=center;verticalAlign=middle;" connectable="0" vertex="1" parent="_VwKGoDhaWRAksVGr1i7-10">
          <mxGeometry relative="1" as="geometry">
            <mxPoint x="-10" y="-10" as="offset" />
          </mxGeometry>
        </mxCell>
        <mxCell id="_VwKGoDhaWRAksVGr1i7-12" value="col &lt;b&gt;&amp;lt; &lt;/b&gt;row" style="rhombus;whiteSpace=wrap;html=1;strokeWidth=2;" vertex="1" parent="1">
          <mxGeometry x="350" y="660" width="80" height="80" as="geometry" />
        </mxCell>
        <mxCell id="_VwKGoDhaWRAksVGr1i7-13" value="" style="endArrow=classic;html=1;rounded=0;strokeWidth=2;exitX=1;exitY=0.5;exitDx=0;exitDy=0;entryX=0;entryY=0.506;entryDx=0;entryDy=0;entryPerimeter=0;" edge="1" parent="1">
          <mxGeometry relative="1" as="geometry">
            <mxPoint x="430" y="699.5" as="sourcePoint" />
            <mxPoint x="500" y="699.5" as="targetPoint" />
          </mxGeometry>
        </mxCell>
        <mxCell id="_VwKGoDhaWRAksVGr1i7-14" value="True" style="edgeLabel;resizable=0;html=1;align=center;verticalAlign=middle;" connectable="0" vertex="1" parent="_VwKGoDhaWRAksVGr1i7-13">
          <mxGeometry relative="1" as="geometry" />
        </mxCell>
        <mxCell id="_VwKGoDhaWRAksVGr1i7-15" value="&lt;b&gt;Increment&lt;/b&gt;&lt;br&gt;col++" style="rounded=1;whiteSpace=wrap;html=1;strokeWidth=2;" vertex="1" parent="1">
          <mxGeometry x="510" y="580" width="90" height="60" as="geometry" />
        </mxCell>
        <mxCell id="_VwKGoDhaWRAksVGr1i7-16" style="edgeStyle=orthogonalEdgeStyle;rounded=0;orthogonalLoop=1;jettySize=auto;html=1;exitX=1;exitY=0.5;exitDx=0;exitDy=0;entryX=1;entryY=0.5;entryDx=0;entryDy=0;strokeWidth=2;" edge="1" parent="1" source="_VwKGoDhaWRAksVGr1i7-17" target="_VwKGoDhaWRAksVGr1i7-15">
          <mxGeometry relative="1" as="geometry">
            <Array as="points">
              <mxPoint x="630" y="700" />
              <mxPoint x="630" y="610" />
            </Array>
          </mxGeometry>
        </mxCell>
        <mxCell id="_VwKGoDhaWRAksVGr1i7-17" value="&lt;b&gt;Output Space&lt;br style=&quot;border-color: var(--border-color);&quot;&gt;&lt;/b&gt;&lt;span style=&quot;font-weight: bold; border-color: var(--border-color);&quot;&gt;&quot; &quot;&lt;/span&gt;" style="shape=parallelogram;perimeter=parallelogramPerimeter;whiteSpace=wrap;html=1;fixedSize=1;rounded=1;strokeWidth=2;" vertex="1" parent="1">
          <mxGeometry x="490" y="670" width="110" height="60" as="geometry" />
        </mxCell>
        <mxCell id="_VwKGoDhaWRAksVGr1i7-18" value="" style="endArrow=none;html=1;rounded=0;entryX=0;entryY=0.5;entryDx=0;entryDy=0;strokeWidth=2;" edge="1" parent="1" target="_VwKGoDhaWRAksVGr1i7-15">
          <mxGeometry width="50" height="50" relative="1" as="geometry">
            <mxPoint x="430" y="610" as="sourcePoint" />
            <mxPoint x="460" y="620" as="targetPoint" />
          </mxGeometry>
        </mxCell>
        <mxCell id="_VwKGoDhaWRAksVGr1i7-19" value="" style="endArrow=classic;html=1;rounded=0;exitX=0;exitY=0.5;exitDx=0;exitDy=0;strokeWidth=2;entryX=1;entryY=0.5;entryDx=0;entryDy=0;" edge="1" parent="1" source="_VwKGoDhaWRAksVGr1i7-12" target="_VwKGoDhaWRAksVGr1i7-26">
          <mxGeometry relative="1" as="geometry">
            <mxPoint x="410" y="800" as="sourcePoint" />
            <mxPoint x="390" y="770" as="targetPoint" />
          </mxGeometry>
        </mxCell>
        <mxCell id="_VwKGoDhaWRAksVGr1i7-20" value="&lt;font style=&quot;font-size: 12px;&quot;&gt;False&lt;/font&gt;" style="edgeLabel;resizable=0;html=1;align=center;verticalAlign=middle;" connectable="0" vertex="1" parent="_VwKGoDhaWRAksVGr1i7-19">
          <mxGeometry relative="1" as="geometry">
            <mxPoint x="5" y="-5" as="offset" />
          </mxGeometry>
        </mxCell>
        <mxCell id="_VwKGoDhaWRAksVGr1i7-55" style="edgeStyle=orthogonalEdgeStyle;rounded=0;orthogonalLoop=1;jettySize=auto;html=1;exitX=0.5;exitY=1;exitDx=0;exitDy=0;entryX=0.5;entryY=0;entryDx=0;entryDy=0;strokeWidth=2;" edge="1" parent="1" source="_VwKGoDhaWRAksVGr1i7-22" target="_VwKGoDhaWRAksVGr1i7-54">
          <mxGeometry relative="1" as="geometry" />
        </mxCell>
        <mxCell id="_VwKGoDhaWRAksVGr1i7-22" value="Declare and Initialize In &lt;i&gt;betw&amp;nbsp;&lt;/i&gt;For Loop&lt;br style=&quot;border-color: var(--border-color);&quot;&gt;&lt;br style=&quot;border-color: var(--border-color);&quot;&gt;betw = 1" style="rounded=1;whiteSpace=wrap;html=1;strokeWidth=2;" vertex="1" parent="1">
          <mxGeometry x="70" y="760" width="120" height="70" as="geometry" />
        </mxCell>
        <mxCell id="_VwKGoDhaWRAksVGr1i7-24" value="space &lt;b&gt;&amp;lt; &lt;/b&gt;row" style="rhombus;whiteSpace=wrap;html=1;strokeWidth=2;" vertex="1" parent="1">
          <mxGeometry x="260" y="1125" width="130" height="100" as="geometry" />
        </mxCell>
        <mxCell id="_VwKGoDhaWRAksVGr1i7-25" style="edgeStyle=orthogonalEdgeStyle;rounded=0;orthogonalLoop=1;jettySize=auto;html=1;exitX=0.5;exitY=1;exitDx=0;exitDy=0;entryX=0.5;entryY=0;entryDx=0;entryDy=0;strokeWidth=2;" edge="1" parent="1" source="_VwKGoDhaWRAksVGr1i7-26" target="_VwKGoDhaWRAksVGr1i7-22">
          <mxGeometry relative="1" as="geometry" />
        </mxCell>
        <mxCell id="_VwKGoDhaWRAksVGr1i7-26" value="&lt;b&gt;Output&lt;/b&gt;&lt;br&gt;(size+1-row)" style="shape=parallelogram;perimeter=parallelogramPerimeter;whiteSpace=wrap;html=1;fixedSize=1;rounded=1;strokeWidth=2;" vertex="1" parent="1">
          <mxGeometry x="80" y="670" width="120" height="60" as="geometry" />
        </mxCell>
        <mxCell id="_VwKGoDhaWRAksVGr1i7-27" value="" style="endArrow=classic;html=1;rounded=0;strokeWidth=2;exitX=1;exitY=0.5;exitDx=0;exitDy=0;entryX=0;entryY=0.5;entryDx=0;entryDy=0;" edge="1" parent="1" target="_VwKGoDhaWRAksVGr1i7-29">
          <mxGeometry relative="1" as="geometry">
            <mxPoint x="390" y="1174.5" as="sourcePoint" />
            <mxPoint x="445" y="1175" as="targetPoint" />
          </mxGeometry>
        </mxCell>
        <mxCell id="_VwKGoDhaWRAksVGr1i7-28" value="True" style="edgeLabel;resizable=0;html=1;align=center;verticalAlign=middle;" connectable="0" vertex="1" parent="_VwKGoDhaWRAksVGr1i7-27">
          <mxGeometry relative="1" as="geometry" />
        </mxCell>
        <mxCell id="_VwKGoDhaWRAksVGr1i7-29" value="&lt;b&gt;Output Space&lt;br style=&quot;border-color: var(--border-color);&quot;&gt;&lt;/b&gt;&lt;span style=&quot;font-weight: bold; border-color: var(--border-color);&quot;&gt;&quot; &quot;&lt;/span&gt;" style="shape=parallelogram;perimeter=parallelogramPerimeter;whiteSpace=wrap;html=1;fixedSize=1;rounded=1;strokeWidth=2;" vertex="1" parent="1">
          <mxGeometry x="440" y="1145" width="110" height="60" as="geometry" />
        </mxCell>
        <mxCell id="_VwKGoDhaWRAksVGr1i7-30" value="&lt;b&gt;Increment&lt;/b&gt;&lt;br&gt;space++" style="rounded=1;whiteSpace=wrap;html=1;strokeWidth=2;" vertex="1" parent="1">
          <mxGeometry x="470" y="1050" width="90" height="60" as="geometry" />
        </mxCell>
        <mxCell id="_VwKGoDhaWRAksVGr1i7-31" style="edgeStyle=orthogonalEdgeStyle;rounded=0;orthogonalLoop=1;jettySize=auto;html=1;exitX=1;exitY=0.5;exitDx=0;exitDy=0;strokeWidth=2;" edge="1" parent="1">
          <mxGeometry relative="1" as="geometry">
            <mxPoint x="540" y="1170" as="sourcePoint" />
            <mxPoint x="560" y="1080" as="targetPoint" />
            <Array as="points">
              <mxPoint x="590" y="1170" />
              <mxPoint x="590" y="1080" />
            </Array>
          </mxGeometry>
        </mxCell>
        <mxCell id="_VwKGoDhaWRAksVGr1i7-32" value="" style="endArrow=none;html=1;rounded=0;strokeWidth=2;" edge="1" parent="1">
          <mxGeometry width="50" height="50" relative="1" as="geometry">
            <mxPoint x="220" y="1180" as="sourcePoint" />
            <mxPoint x="470" y="1080" as="targetPoint" />
            <Array as="points">
              <mxPoint x="220" y="1080" />
              <mxPoint x="425" y="1080" />
              <mxPoint x="450" y="1080" />
            </Array>
          </mxGeometry>
        </mxCell>
        <mxCell id="_VwKGoDhaWRAksVGr1i7-33" value="&lt;b&gt;Output New Line&lt;br style=&quot;border-color: var(--border-color);&quot;&gt;&lt;/b&gt;endl" style="shape=parallelogram;perimeter=parallelogramPerimeter;whiteSpace=wrap;html=1;fixedSize=1;rounded=1;strokeWidth=2;" vertex="1" parent="1">
          <mxGeometry x="400" y="1260" width="135" height="60" as="geometry" />
        </mxCell>
        <mxCell id="_VwKGoDhaWRAksVGr1i7-36" value="&lt;b&gt;Increment&lt;/b&gt;&lt;br&gt;row++" style="rounded=1;whiteSpace=wrap;html=1;strokeWidth=2;" vertex="1" parent="1">
          <mxGeometry x="535" y="325" width="90" height="60" as="geometry" />
        </mxCell>
        <mxCell id="_VwKGoDhaWRAksVGr1i7-37" value="" style="endArrow=classic;html=1;rounded=0;entryX=1;entryY=0.5;entryDx=0;entryDy=0;strokeWidth=2;exitX=1;exitY=0.5;exitDx=0;exitDy=0;" edge="1" parent="1" target="_VwKGoDhaWRAksVGr1i7-36" source="_VwKGoDhaWRAksVGr1i7-33">
          <mxGeometry width="50" height="50" relative="1" as="geometry">
            <mxPoint x="720" y="1290" as="sourcePoint" />
            <mxPoint x="755" y="285" as="targetPoint" />
            <Array as="points">
              <mxPoint x="720" y="1290" />
              <mxPoint x="720" y="355" />
            </Array>
          </mxGeometry>
        </mxCell>
        <mxCell id="_VwKGoDhaWRAksVGr1i7-38" value="" style="endArrow=none;html=1;rounded=0;entryX=0;entryY=0.5;entryDx=0;entryDy=0;strokeWidth=2;" edge="1" parent="1">
          <mxGeometry width="50" height="50" relative="1" as="geometry">
            <mxPoint x="275" y="365" as="sourcePoint" />
            <mxPoint x="535" y="345" as="targetPoint" />
            <Array as="points">
              <mxPoint x="275" y="345" />
              <mxPoint x="445" y="345" />
            </Array>
          </mxGeometry>
        </mxCell>
        <mxCell id="_VwKGoDhaWRAksVGr1i7-39" value="&lt;font style=&quot;font-size: 12px;&quot;&gt;False&lt;/font&gt;" style="edgeLabel;resizable=0;html=1;align=center;verticalAlign=middle;" connectable="0" vertex="1" parent="1">
          <mxGeometry x="120" y="290" as="geometry" />
        </mxCell>
        <mxCell id="_VwKGoDhaWRAksVGr1i7-40" value="&lt;font style=&quot;font-size: 12px;&quot;&gt;False&lt;/font&gt;" style="edgeLabel;resizable=0;html=1;align=center;verticalAlign=middle;" connectable="0" vertex="1" parent="1">
          <mxGeometry x="275" y="505" as="geometry">
            <mxPoint x="16" as="offset" />
          </mxGeometry>
        </mxCell>
        <mxCell id="_VwKGoDhaWRAksVGr1i7-44" style="edgeStyle=orthogonalEdgeStyle;rounded=0;orthogonalLoop=1;jettySize=auto;html=1;exitX=1;exitY=0.5;exitDx=0;exitDy=0;entryX=0;entryY=0.5;entryDx=0;entryDy=0;strokeWidth=2;" edge="1" parent="1" source="_VwKGoDhaWRAksVGr1i7-43" target="_VwKGoDhaWRAksVGr1i7-5">
          <mxGeometry relative="1" as="geometry" />
        </mxCell>
        <mxCell id="_VwKGoDhaWRAksVGr1i7-43" value="&lt;b&gt;Declare Variable&lt;/b&gt;&lt;br&gt;int mid = size/2+1" style="rounded=1;whiteSpace=wrap;html=1;strokeWidth=2;" vertex="1" parent="1">
          <mxGeometry x="275" y="190" width="120" height="60" as="geometry" />
        </mxCell>
        <mxCell id="_VwKGoDhaWRAksVGr1i7-53" style="edgeStyle=orthogonalEdgeStyle;rounded=0;orthogonalLoop=1;jettySize=auto;html=1;exitX=0.5;exitY=1;exitDx=0;exitDy=0;entryX=0.5;entryY=0;entryDx=0;entryDy=0;strokeWidth=2;" edge="1" parent="1" source="_VwKGoDhaWRAksVGr1i7-47" target="_VwKGoDhaWRAksVGr1i7-9">
          <mxGeometry relative="1" as="geometry" />
        </mxCell>
        <mxCell id="_VwKGoDhaWRAksVGr1i7-47" value="&lt;b&gt;Declare Variable Inside Loop&lt;/b&gt;&lt;br&gt;int diff = (mid-row)" style="rounded=1;whiteSpace=wrap;html=1;strokeWidth=2;" vertex="1" parent="1">
          <mxGeometry x="370" y="410" width="120" height="60" as="geometry" />
        </mxCell>
        <mxCell id="_VwKGoDhaWRAksVGr1i7-52" value="" style="endArrow=none;html=1;rounded=0;strokeWidth=2;" edge="1" parent="1">
          <mxGeometry width="50" height="50" relative="1" as="geometry">
            <mxPoint x="530" y="290" as="sourcePoint" />
            <mxPoint x="530" y="260" as="targetPoint" />
          </mxGeometry>
        </mxCell>
        <mxCell id="_VwKGoDhaWRAksVGr1i7-54" value="betw &lt;b&gt;&amp;lt;= &lt;/b&gt;(diff*2-1)" style="rhombus;whiteSpace=wrap;html=1;strokeWidth=2;" vertex="1" parent="1">
          <mxGeometry x="60" y="900" width="140" height="90" as="geometry" />
        </mxCell>
        <mxCell id="_VwKGoDhaWRAksVGr1i7-56" value="" style="endArrow=classic;html=1;rounded=0;strokeWidth=2;exitX=1;exitY=0.5;exitDx=0;exitDy=0;entryX=0;entryY=0.506;entryDx=0;entryDy=0;entryPerimeter=0;" edge="1" parent="1">
          <mxGeometry relative="1" as="geometry">
            <mxPoint x="200" y="944.5" as="sourcePoint" />
            <mxPoint x="270" y="944.5" as="targetPoint" />
          </mxGeometry>
        </mxCell>
        <mxCell id="_VwKGoDhaWRAksVGr1i7-57" value="True" style="edgeLabel;resizable=0;html=1;align=center;verticalAlign=middle;" connectable="0" vertex="1" parent="_VwKGoDhaWRAksVGr1i7-56">
          <mxGeometry relative="1" as="geometry" />
        </mxCell>
        <mxCell id="_VwKGoDhaWRAksVGr1i7-58" value="&lt;b&gt;Output Space&lt;br style=&quot;border-color: var(--border-color);&quot;&gt;&lt;/b&gt;&lt;span style=&quot;font-weight: bold; border-color: var(--border-color);&quot;&gt;&quot; &quot;&lt;/span&gt;" style="shape=parallelogram;perimeter=parallelogramPerimeter;whiteSpace=wrap;html=1;fixedSize=1;rounded=1;strokeWidth=2;" vertex="1" parent="1">
          <mxGeometry x="260" y="920" width="110" height="60" as="geometry" />
        </mxCell>
        <mxCell id="_VwKGoDhaWRAksVGr1i7-59" style="edgeStyle=orthogonalEdgeStyle;rounded=0;orthogonalLoop=1;jettySize=auto;html=1;strokeWidth=2;exitX=1;exitY=0.5;exitDx=0;exitDy=0;" edge="1" parent="1" source="_VwKGoDhaWRAksVGr1i7-58">
          <mxGeometry relative="1" as="geometry">
            <mxPoint x="370" y="960" as="sourcePoint" />
            <mxPoint x="360" y="870" as="targetPoint" />
            <Array as="points">
              <mxPoint x="390" y="950" />
              <mxPoint x="390" y="870" />
            </Array>
          </mxGeometry>
        </mxCell>
        <mxCell id="_VwKGoDhaWRAksVGr1i7-60" value="&lt;b&gt;Increment&lt;/b&gt;&lt;br&gt;betw++" style="rounded=1;whiteSpace=wrap;html=1;strokeWidth=2;" vertex="1" parent="1">
          <mxGeometry x="270" y="840" width="90" height="60" as="geometry" />
        </mxCell>
        <mxCell id="_VwKGoDhaWRAksVGr1i7-61" value="" style="endArrow=none;html=1;rounded=0;strokeWidth=2;" edge="1" parent="1">
          <mxGeometry width="50" height="50" relative="1" as="geometry">
            <mxPoint x="130" y="870" as="sourcePoint" />
            <mxPoint x="270" y="870" as="targetPoint" />
            <Array as="points">
              <mxPoint x="160" y="870" />
              <mxPoint x="200" y="870" />
              <mxPoint x="230" y="870" />
            </Array>
          </mxGeometry>
        </mxCell>
        <mxCell id="_VwKGoDhaWRAksVGr1i7-62" value="" style="endArrow=classic;html=1;rounded=0;exitX=0.5;exitY=1;exitDx=0;exitDy=0;strokeWidth=2;" edge="1" parent="1" source="_VwKGoDhaWRAksVGr1i7-54">
          <mxGeometry relative="1" as="geometry">
            <mxPoint x="360" y="710" as="sourcePoint" />
            <mxPoint x="130" y="1050" as="targetPoint" />
          </mxGeometry>
        </mxCell>
        <mxCell id="_VwKGoDhaWRAksVGr1i7-63" value="&lt;font style=&quot;font-size: 12px;&quot;&gt;False&lt;/font&gt;" style="edgeLabel;resizable=0;html=1;align=center;verticalAlign=middle;" connectable="0" vertex="1" parent="_VwKGoDhaWRAksVGr1i7-62">
          <mxGeometry relative="1" as="geometry">
            <mxPoint x="5" y="-5" as="offset" />
          </mxGeometry>
        </mxCell>
        <mxCell id="_VwKGoDhaWRAksVGr1i7-66" style="edgeStyle=orthogonalEdgeStyle;rounded=0;orthogonalLoop=1;jettySize=auto;html=1;exitX=0.5;exitY=1;exitDx=0;exitDy=0;entryX=0.5;entryY=0;entryDx=0;entryDy=0;strokeWidth=2;" edge="1" parent="1" source="_VwKGoDhaWRAksVGr1i7-64" target="_VwKGoDhaWRAksVGr1i7-65">
          <mxGeometry relative="1" as="geometry" />
        </mxCell>
        <mxCell id="_VwKGoDhaWRAksVGr1i7-64" value="&lt;b&gt;Output&lt;/b&gt;&lt;br&gt;row" style="shape=parallelogram;perimeter=parallelogramPerimeter;whiteSpace=wrap;html=1;fixedSize=1;rounded=1;strokeWidth=2;" vertex="1" parent="1">
          <mxGeometry x="70" y="1050" width="120" height="60" as="geometry" />
        </mxCell>
        <mxCell id="_VwKGoDhaWRAksVGr1i7-67" style="edgeStyle=orthogonalEdgeStyle;rounded=0;orthogonalLoop=1;jettySize=auto;html=1;exitX=1;exitY=0.5;exitDx=0;exitDy=0;entryX=0;entryY=0.5;entryDx=0;entryDy=0;strokeWidth=2;" edge="1" parent="1" source="_VwKGoDhaWRAksVGr1i7-65" target="_VwKGoDhaWRAksVGr1i7-24">
          <mxGeometry relative="1" as="geometry">
            <Array as="points">
              <mxPoint x="220" y="1175" />
              <mxPoint x="220" y="1175" />
            </Array>
          </mxGeometry>
        </mxCell>
        <mxCell id="_VwKGoDhaWRAksVGr1i7-65" value="Declare and Initialize In &lt;i&gt;space&amp;nbsp;&lt;/i&gt;For Loop&lt;br style=&quot;border-color: var(--border-color);&quot;&gt;&lt;br style=&quot;border-color: var(--border-color);&quot;&gt;space = 1" style="rounded=1;whiteSpace=wrap;html=1;strokeWidth=2;" vertex="1" parent="1">
          <mxGeometry x="70" y="1140" width="120" height="70" as="geometry" />
        </mxCell>
        <mxCell id="_VwKGoDhaWRAksVGr1i7-68" value="" style="endArrow=classic;html=1;rounded=0;exitX=0.5;exitY=1;exitDx=0;exitDy=0;strokeWidth=2;entryX=0;entryY=0.5;entryDx=0;entryDy=0;" edge="1" parent="1" source="_VwKGoDhaWRAksVGr1i7-24" target="_VwKGoDhaWRAksVGr1i7-33">
          <mxGeometry relative="1" as="geometry">
            <mxPoint x="320.03999999999996" y="1240" as="sourcePoint" />
            <mxPoint x="480" y="1290" as="targetPoint" />
            <Array as="points">
              <mxPoint x="325" y="1290" />
            </Array>
          </mxGeometry>
        </mxCell>
        <mxCell id="_VwKGoDhaWRAksVGr1i7-69" value="&lt;font style=&quot;font-size: 12px;&quot;&gt;False&lt;/font&gt;" style="edgeLabel;resizable=0;html=1;align=center;verticalAlign=middle;" connectable="0" vertex="1" parent="_VwKGoDhaWRAksVGr1i7-68">
          <mxGeometry relative="1" as="geometry">
            <mxPoint x="-10" y="-30" as="offset" />
          </mxGeometry>
        </mxCell>
        <mxCell id="hQf3XIzBzN4m9lkMaGOO-2" value="Page 7" style="ellipse;whiteSpace=wrap;html=1;aspect=fixed;strokeWidth=2;" vertex="1" parent="1">
          <mxGeometry x="240" y="530" width="70" height="70" as="geometry" />
        </mxCell>
        <mxCell id="1ltCJuE4tGmd2nOFH_tf-1" value="Page 8_1" style="ellipse;whiteSpace=wrap;html=1;aspect=fixed;strokeWidth=2;" vertex="1" parent="1">
          <mxGeometry x="80" y="325" width="80" height="80" as="geometry" />
        </mxCell>
      </root>
    </mxGraphModel>
  </diagram>
  <diagram id="SFbFsksA35az19n381fE" name="Page-7">
    <mxGraphModel dx="1098" dy="828" grid="1" gridSize="10" guides="1" tooltips="1" connect="1" arrows="1" fold="1" page="1" pageScale="1" pageWidth="850" pageHeight="1400" math="0" shadow="0">
      <root>
        <mxCell id="0" />
        <mxCell id="1" parent="0" />
        <mxCell id="0C5fQroXDoYiIlx1cC1u-1" style="edgeStyle=orthogonalEdgeStyle;rounded=0;orthogonalLoop=1;jettySize=auto;html=1;exitX=1;exitY=0.5;exitDx=0;exitDy=0;entryX=0;entryY=0.5;entryDx=0;entryDy=0;strokeWidth=2;" edge="1" parent="1" source="brVjsSY3RNgyfTGt0HYB-1" target="brVjsSY3RNgyfTGt0HYB-2">
          <mxGeometry relative="1" as="geometry" />
        </mxCell>
        <mxCell id="brVjsSY3RNgyfTGt0HYB-1" value="Page 7" style="ellipse;whiteSpace=wrap;html=1;aspect=fixed;strokeWidth=2;" vertex="1" parent="1">
          <mxGeometry x="100" y="60" width="70" height="70" as="geometry" />
        </mxCell>
        <mxCell id="0C5fQroXDoYiIlx1cC1u-3" style="edgeStyle=orthogonalEdgeStyle;rounded=0;orthogonalLoop=1;jettySize=auto;html=1;exitX=1;exitY=0.5;exitDx=0;exitDy=0;entryX=0.5;entryY=0;entryDx=0;entryDy=0;strokeWidth=2;" edge="1" parent="1" source="brVjsSY3RNgyfTGt0HYB-2" target="0C5fQroXDoYiIlx1cC1u-2">
          <mxGeometry relative="1" as="geometry" />
        </mxCell>
        <mxCell id="brVjsSY3RNgyfTGt0HYB-2" value="&lt;b&gt;Declare Varible &lt;br&gt;Inside for Loop&lt;/b&gt;&lt;br&gt;&lt;br&gt;i = 1" style="rounded=1;whiteSpace=wrap;html=1;strokeWidth=2;" vertex="1" parent="1">
          <mxGeometry x="240" y="60" width="120" height="70" as="geometry" />
        </mxCell>
        <mxCell id="0C5fQroXDoYiIlx1cC1u-2" value="i &lt;b&gt;&amp;lt;= &lt;/b&gt;(size-1)/2" style="rhombus;whiteSpace=wrap;html=1;strokeWidth=2;" vertex="1" parent="1">
          <mxGeometry x="360" y="180" width="100" height="80" as="geometry" />
        </mxCell>
        <mxCell id="-POez5a8-VUjSMxkAEiz-1" value="" style="endArrow=classic;html=1;rounded=0;strokeWidth=2;exitX=1;exitY=0.5;exitDx=0;exitDy=0;" edge="1" parent="1" source="0C5fQroXDoYiIlx1cC1u-2">
          <mxGeometry relative="1" as="geometry">
            <mxPoint x="430" y="699.5" as="sourcePoint" />
            <mxPoint x="530" y="220" as="targetPoint" />
          </mxGeometry>
        </mxCell>
        <mxCell id="-POez5a8-VUjSMxkAEiz-2" value="True" style="edgeLabel;resizable=0;html=1;align=center;verticalAlign=middle;" connectable="0" vertex="1" parent="-POez5a8-VUjSMxkAEiz-1">
          <mxGeometry relative="1" as="geometry" />
        </mxCell>
        <mxCell id="ehDyelqf6edFkd-CtZZe-1" value="&lt;b&gt;Output Space&lt;br style=&quot;border-color: var(--border-color);&quot;&gt;&lt;/b&gt;&lt;span style=&quot;font-weight: bold; border-color: var(--border-color);&quot;&gt;&quot; &quot;&lt;/span&gt;" style="shape=parallelogram;perimeter=parallelogramPerimeter;whiteSpace=wrap;html=1;fixedSize=1;rounded=1;strokeWidth=2;" vertex="1" parent="1">
          <mxGeometry x="520" y="190" width="110" height="60" as="geometry" />
        </mxCell>
        <mxCell id="MnOHYCrNwrqbF7oZ-CBK-1" value="&lt;b&gt;Increment&lt;/b&gt;&lt;br&gt;i++" style="rounded=1;whiteSpace=wrap;html=1;strokeWidth=2;" vertex="1" parent="1">
          <mxGeometry x="540" y="100" width="90" height="60" as="geometry" />
        </mxCell>
        <mxCell id="YfwOEfHapAI3XvIHIYEm-1" style="edgeStyle=orthogonalEdgeStyle;rounded=0;orthogonalLoop=1;jettySize=auto;html=1;exitX=1;exitY=0.5;exitDx=0;exitDy=0;entryX=1;entryY=0.5;entryDx=0;entryDy=0;strokeWidth=2;" edge="1" parent="1">
          <mxGeometry relative="1" as="geometry">
            <Array as="points">
              <mxPoint x="660" y="220" />
              <mxPoint x="660" y="130" />
            </Array>
            <mxPoint x="620" y="220" as="sourcePoint" />
            <mxPoint x="630" y="130" as="targetPoint" />
          </mxGeometry>
        </mxCell>
        <mxCell id="YfwOEfHapAI3XvIHIYEm-2" value="" style="endArrow=none;html=1;rounded=0;strokeWidth=2;" edge="1" parent="1">
          <mxGeometry width="50" height="50" relative="1" as="geometry">
            <mxPoint x="410" y="130" as="sourcePoint" />
            <mxPoint x="540" y="130" as="targetPoint" />
          </mxGeometry>
        </mxCell>
        <mxCell id="UbmWlsxQKJRPEgFR9DZW-1" value="" style="endArrow=classic;html=1;rounded=0;exitX=0;exitY=0.5;exitDx=0;exitDy=0;strokeWidth=2;" edge="1" parent="1" source="0C5fQroXDoYiIlx1cC1u-2">
          <mxGeometry relative="1" as="geometry">
            <mxPoint x="350" y="700" as="sourcePoint" />
            <mxPoint x="230" y="220" as="targetPoint" />
          </mxGeometry>
        </mxCell>
        <mxCell id="UbmWlsxQKJRPEgFR9DZW-2" value="&lt;font style=&quot;font-size: 12px;&quot;&gt;False&lt;/font&gt;" style="edgeLabel;resizable=0;html=1;align=center;verticalAlign=middle;" connectable="0" vertex="1" parent="UbmWlsxQKJRPEgFR9DZW-1">
          <mxGeometry relative="1" as="geometry">
            <mxPoint x="5" y="-5" as="offset" />
          </mxGeometry>
        </mxCell>
        <mxCell id="UbmWlsxQKJRPEgFR9DZW-15" style="edgeStyle=orthogonalEdgeStyle;rounded=0;orthogonalLoop=1;jettySize=auto;html=1;exitX=0.5;exitY=1;exitDx=0;exitDy=0;entryX=0.5;entryY=0;entryDx=0;entryDy=0;strokeWidth=2;" edge="1" parent="1" source="UbmWlsxQKJRPEgFR9DZW-3" target="UbmWlsxQKJRPEgFR9DZW-5">
          <mxGeometry relative="1" as="geometry" />
        </mxCell>
        <mxCell id="UbmWlsxQKJRPEgFR9DZW-3" value="&lt;b&gt;Output Integer&lt;/b&gt;&lt;br&gt;size/2+1" style="shape=parallelogram;perimeter=parallelogramPerimeter;whiteSpace=wrap;html=1;fixedSize=1;rounded=1;strokeWidth=2;" vertex="1" parent="1">
          <mxGeometry x="120" y="190" width="120" height="60" as="geometry" />
        </mxCell>
        <mxCell id="UbmWlsxQKJRPEgFR9DZW-4" style="edgeStyle=orthogonalEdgeStyle;rounded=0;orthogonalLoop=1;jettySize=auto;html=1;exitX=0.5;exitY=1;exitDx=0;exitDy=0;entryX=0.5;entryY=0;entryDx=0;entryDy=0;strokeWidth=2;" edge="1" parent="1" source="UbmWlsxQKJRPEgFR9DZW-5" target="UbmWlsxQKJRPEgFR9DZW-6">
          <mxGeometry relative="1" as="geometry" />
        </mxCell>
        <mxCell id="UbmWlsxQKJRPEgFR9DZW-5" value="&lt;b&gt;Declare Varible &lt;br&gt;Inside for Loop&lt;/b&gt;&lt;br&gt;&lt;br&gt;i = 1" style="rounded=1;whiteSpace=wrap;html=1;strokeWidth=2;" vertex="1" parent="1">
          <mxGeometry x="110" y="280" width="120" height="70" as="geometry" />
        </mxCell>
        <mxCell id="UbmWlsxQKJRPEgFR9DZW-6" value="i &lt;b&gt;&amp;lt;= &lt;/b&gt;(size-1)/2" style="rhombus;whiteSpace=wrap;html=1;strokeWidth=2;" vertex="1" parent="1">
          <mxGeometry x="120" y="400" width="100" height="80" as="geometry" />
        </mxCell>
        <mxCell id="UbmWlsxQKJRPEgFR9DZW-7" value="" style="endArrow=classic;html=1;rounded=0;strokeWidth=2;exitX=1;exitY=0.5;exitDx=0;exitDy=0;" edge="1" parent="1" source="UbmWlsxQKJRPEgFR9DZW-6">
          <mxGeometry relative="1" as="geometry">
            <mxPoint x="300" y="919.5" as="sourcePoint" />
            <mxPoint x="400" y="440" as="targetPoint" />
          </mxGeometry>
        </mxCell>
        <mxCell id="UbmWlsxQKJRPEgFR9DZW-8" value="True" style="edgeLabel;resizable=0;html=1;align=center;verticalAlign=middle;" connectable="0" vertex="1" parent="UbmWlsxQKJRPEgFR9DZW-7">
          <mxGeometry relative="1" as="geometry" />
        </mxCell>
        <mxCell id="UbmWlsxQKJRPEgFR9DZW-9" value="&lt;b&gt;Output Space&lt;br style=&quot;border-color: var(--border-color);&quot;&gt;&lt;/b&gt;&lt;span style=&quot;font-weight: bold; border-color: var(--border-color);&quot;&gt;&quot; &quot;&lt;/span&gt;" style="shape=parallelogram;perimeter=parallelogramPerimeter;whiteSpace=wrap;html=1;fixedSize=1;rounded=1;strokeWidth=2;" vertex="1" parent="1">
          <mxGeometry x="390" y="410" width="110" height="60" as="geometry" />
        </mxCell>
        <mxCell id="UbmWlsxQKJRPEgFR9DZW-10" value="&lt;b&gt;Increment&lt;/b&gt;&lt;br&gt;i++" style="rounded=1;whiteSpace=wrap;html=1;strokeWidth=2;" vertex="1" parent="1">
          <mxGeometry x="410" y="320" width="90" height="60" as="geometry" />
        </mxCell>
        <mxCell id="UbmWlsxQKJRPEgFR9DZW-11" style="edgeStyle=orthogonalEdgeStyle;rounded=0;orthogonalLoop=1;jettySize=auto;html=1;exitX=1;exitY=0.5;exitDx=0;exitDy=0;entryX=1;entryY=0.5;entryDx=0;entryDy=0;strokeWidth=2;" edge="1" parent="1">
          <mxGeometry relative="1" as="geometry">
            <Array as="points">
              <mxPoint x="530" y="440" />
              <mxPoint x="530" y="350" />
            </Array>
            <mxPoint x="490" y="440" as="sourcePoint" />
            <mxPoint x="500" y="350" as="targetPoint" />
          </mxGeometry>
        </mxCell>
        <mxCell id="UbmWlsxQKJRPEgFR9DZW-12" value="" style="endArrow=none;html=1;rounded=0;strokeWidth=2;" edge="1" parent="1">
          <mxGeometry width="50" height="50" relative="1" as="geometry">
            <mxPoint x="170" y="380" as="sourcePoint" />
            <mxPoint x="410" y="350" as="targetPoint" />
            <Array as="points">
              <mxPoint x="290" y="380" />
              <mxPoint x="290" y="350" />
            </Array>
          </mxGeometry>
        </mxCell>
        <mxCell id="UbmWlsxQKJRPEgFR9DZW-13" value="" style="endArrow=classic;html=1;rounded=0;strokeWidth=2;exitX=0.5;exitY=1;exitDx=0;exitDy=0;" edge="1" parent="1" source="UbmWlsxQKJRPEgFR9DZW-6">
          <mxGeometry relative="1" as="geometry">
            <mxPoint x="169.5" y="490" as="sourcePoint" />
            <mxPoint x="170" y="540" as="targetPoint" />
          </mxGeometry>
        </mxCell>
        <mxCell id="UbmWlsxQKJRPEgFR9DZW-14" value="&lt;font style=&quot;font-size: 12px;&quot;&gt;False&lt;/font&gt;" style="edgeLabel;resizable=0;html=1;align=center;verticalAlign=middle;" connectable="0" vertex="1" parent="UbmWlsxQKJRPEgFR9DZW-13">
          <mxGeometry relative="1" as="geometry">
            <mxPoint x="1" y="-10" as="offset" />
          </mxGeometry>
        </mxCell>
        <mxCell id="a9U_RtmXgx0-GvdP9iLD-2" style="edgeStyle=orthogonalEdgeStyle;rounded=0;orthogonalLoop=1;jettySize=auto;html=1;exitX=1;exitY=0.5;exitDx=0;exitDy=0;entryX=0;entryY=0.5;entryDx=0;entryDy=0;strokeWidth=2;" edge="1" parent="1" source="wfQNHwTsOux-mI5_WaX5-1" target="a9U_RtmXgx0-GvdP9iLD-1">
          <mxGeometry relative="1" as="geometry" />
        </mxCell>
        <mxCell id="wfQNHwTsOux-mI5_WaX5-1" value="&lt;b&gt;Output New Line&lt;br style=&quot;border-color: var(--border-color);&quot;&gt;&lt;/b&gt;endl" style="shape=parallelogram;perimeter=parallelogramPerimeter;whiteSpace=wrap;html=1;fixedSize=1;rounded=1;strokeWidth=2;" vertex="1" parent="1">
          <mxGeometry x="95" y="540" width="135" height="60" as="geometry" />
        </mxCell>
        <mxCell id="q_9VxGKZA45BSg9ZqPeT-53" style="edgeStyle=orthogonalEdgeStyle;rounded=0;orthogonalLoop=1;jettySize=auto;html=1;entryX=0.5;entryY=0;entryDx=0;entryDy=0;strokeWidth=2;" edge="1" parent="1" target="q_9VxGKZA45BSg9ZqPeT-55">
          <mxGeometry relative="1" as="geometry">
            <Array as="points">
              <mxPoint x="295" y="660" />
            </Array>
            <mxPoint x="380" y="660" as="sourcePoint" />
          </mxGeometry>
        </mxCell>
        <mxCell id="q_9VxGKZA45BSg9ZqPeT-54" style="edgeStyle=orthogonalEdgeStyle;rounded=0;orthogonalLoop=1;jettySize=auto;html=1;exitX=0.5;exitY=1;exitDx=0;exitDy=0;entryX=0.5;entryY=0;entryDx=0;entryDy=0;strokeWidth=2;" edge="1" parent="1" source="q_9VxGKZA45BSg9ZqPeT-55">
          <mxGeometry relative="1" as="geometry">
            <mxPoint x="295" y="870" as="targetPoint" />
          </mxGeometry>
        </mxCell>
        <mxCell id="q_9VxGKZA45BSg9ZqPeT-55" value="row &lt;b&gt;&amp;lt;= &lt;/b&gt;size" style="rhombus;whiteSpace=wrap;html=1;strokeWidth=2;" vertex="1" parent="1">
          <mxGeometry x="250" y="750" width="90" height="90" as="geometry" />
        </mxCell>
        <mxCell id="q_9VxGKZA45BSg9ZqPeT-56" style="edgeStyle=orthogonalEdgeStyle;rounded=0;orthogonalLoop=1;jettySize=auto;html=1;exitX=0.5;exitY=1;exitDx=0;exitDy=0;entryX=0.5;entryY=0;entryDx=0;entryDy=0;strokeWidth=2;" edge="1" parent="1" source="q_9VxGKZA45BSg9ZqPeT-57" target="q_9VxGKZA45BSg9ZqPeT-60">
          <mxGeometry relative="1" as="geometry" />
        </mxCell>
        <mxCell id="q_9VxGKZA45BSg9ZqPeT-57" value="Declare and Initialize In &lt;i&gt;column &lt;/i&gt;For Loop&lt;br&gt;&lt;br&gt;col = 1" style="rounded=1;whiteSpace=wrap;html=1;strokeWidth=2;" vertex="1" parent="1">
          <mxGeometry x="400" y="865" width="100" height="80" as="geometry" />
        </mxCell>
        <mxCell id="q_9VxGKZA45BSg9ZqPeT-58" value="" style="endArrow=classic;html=1;rounded=0;strokeWidth=2;entryX=0;entryY=0.5;entryDx=0;entryDy=0;" edge="1" parent="1">
          <mxGeometry relative="1" as="geometry">
            <mxPoint x="340" y="794.5" as="sourcePoint" />
            <mxPoint x="390" y="794.5" as="targetPoint" />
            <Array as="points">
              <mxPoint x="370" y="794.5" />
            </Array>
          </mxGeometry>
        </mxCell>
        <mxCell id="q_9VxGKZA45BSg9ZqPeT-59" value="True" style="edgeLabel;resizable=0;html=1;align=center;verticalAlign=middle;" connectable="0" vertex="1" parent="q_9VxGKZA45BSg9ZqPeT-58">
          <mxGeometry relative="1" as="geometry">
            <mxPoint x="-10" y="-10" as="offset" />
          </mxGeometry>
        </mxCell>
        <mxCell id="q_9VxGKZA45BSg9ZqPeT-60" value="col &lt;b&gt;&amp;lt;= &lt;/b&gt;size-row" style="rhombus;whiteSpace=wrap;html=1;strokeWidth=2;" vertex="1" parent="1">
          <mxGeometry x="395" y="1000" width="110" height="80" as="geometry" />
        </mxCell>
        <mxCell id="q_9VxGKZA45BSg9ZqPeT-61" value="" style="endArrow=classic;html=1;rounded=0;strokeWidth=2;exitX=1;exitY=0.5;exitDx=0;exitDy=0;entryX=0;entryY=0.5;entryDx=0;entryDy=0;" edge="1" parent="1" target="q_9VxGKZA45BSg9ZqPeT-65">
          <mxGeometry relative="1" as="geometry">
            <mxPoint x="505" y="1040" as="sourcePoint" />
            <mxPoint x="575" y="1040" as="targetPoint" />
          </mxGeometry>
        </mxCell>
        <mxCell id="q_9VxGKZA45BSg9ZqPeT-62" value="True" style="edgeLabel;resizable=0;html=1;align=center;verticalAlign=middle;" connectable="0" vertex="1" parent="q_9VxGKZA45BSg9ZqPeT-61">
          <mxGeometry relative="1" as="geometry" />
        </mxCell>
        <mxCell id="q_9VxGKZA45BSg9ZqPeT-63" value="&lt;b&gt;Increment&lt;/b&gt;&lt;br&gt;col++" style="rounded=1;whiteSpace=wrap;html=1;strokeWidth=2;" vertex="1" parent="1">
          <mxGeometry x="590" y="930" width="90" height="60" as="geometry" />
        </mxCell>
        <mxCell id="q_9VxGKZA45BSg9ZqPeT-64" style="edgeStyle=orthogonalEdgeStyle;rounded=0;orthogonalLoop=1;jettySize=auto;html=1;exitX=1;exitY=0.5;exitDx=0;exitDy=0;entryX=1;entryY=0.5;entryDx=0;entryDy=0;strokeWidth=2;" edge="1" parent="1" source="q_9VxGKZA45BSg9ZqPeT-65" target="q_9VxGKZA45BSg9ZqPeT-63">
          <mxGeometry relative="1" as="geometry">
            <Array as="points">
              <mxPoint x="740" y="1040" />
              <mxPoint x="740" y="960" />
            </Array>
          </mxGeometry>
        </mxCell>
        <mxCell id="q_9VxGKZA45BSg9ZqPeT-65" value="&lt;b&gt;Output Space&lt;br style=&quot;border-color: var(--border-color);&quot;&gt;&lt;/b&gt;&lt;span style=&quot;font-weight: bold; border-color: var(--border-color);&quot;&gt;&quot; &quot;&lt;/span&gt;" style="shape=parallelogram;perimeter=parallelogramPerimeter;whiteSpace=wrap;html=1;fixedSize=1;rounded=1;strokeWidth=2;" vertex="1" parent="1">
          <mxGeometry x="560" y="1010" width="110" height="60" as="geometry" />
        </mxCell>
        <mxCell id="q_9VxGKZA45BSg9ZqPeT-66" value="" style="endArrow=none;html=1;rounded=0;entryX=0;entryY=0.5;entryDx=0;entryDy=0;strokeWidth=2;" edge="1" parent="1" target="q_9VxGKZA45BSg9ZqPeT-63">
          <mxGeometry width="50" height="50" relative="1" as="geometry">
            <mxPoint x="450" y="970" as="sourcePoint" />
            <mxPoint x="570" y="990" as="targetPoint" />
            <Array as="points">
              <mxPoint x="530" y="970" />
              <mxPoint x="530" y="960" />
            </Array>
          </mxGeometry>
        </mxCell>
        <mxCell id="q_9VxGKZA45BSg9ZqPeT-67" value="" style="endArrow=classic;html=1;rounded=0;exitX=0;exitY=0.5;exitDx=0;exitDy=0;strokeWidth=2;entryX=1;entryY=0.5;entryDx=0;entryDy=0;" edge="1" parent="1" source="q_9VxGKZA45BSg9ZqPeT-60" target="q_9VxGKZA45BSg9ZqPeT-73">
          <mxGeometry relative="1" as="geometry">
            <mxPoint x="520" y="1170" as="sourcePoint" />
            <mxPoint x="500" y="1140" as="targetPoint" />
          </mxGeometry>
        </mxCell>
        <mxCell id="q_9VxGKZA45BSg9ZqPeT-68" value="&lt;font style=&quot;font-size: 12px;&quot;&gt;False&lt;/font&gt;" style="edgeLabel;resizable=0;html=1;align=center;verticalAlign=middle;" connectable="0" vertex="1" parent="q_9VxGKZA45BSg9ZqPeT-67">
          <mxGeometry relative="1" as="geometry">
            <mxPoint x="5" y="-5" as="offset" />
          </mxGeometry>
        </mxCell>
        <mxCell id="q_9VxGKZA45BSg9ZqPeT-69" style="edgeStyle=orthogonalEdgeStyle;rounded=0;orthogonalLoop=1;jettySize=auto;html=1;exitX=0.5;exitY=1;exitDx=0;exitDy=0;entryX=0.5;entryY=0;entryDx=0;entryDy=0;strokeWidth=2;" edge="1" parent="1" source="q_9VxGKZA45BSg9ZqPeT-70" target="q_9VxGKZA45BSg9ZqPeT-89">
          <mxGeometry relative="1" as="geometry">
            <Array as="points">
              <mxPoint x="270" y="1210" />
              <mxPoint x="310" y="1210" />
            </Array>
          </mxGeometry>
        </mxCell>
        <mxCell id="q_9VxGKZA45BSg9ZqPeT-70" value="Declare and Initialize In &lt;i&gt;betw&amp;nbsp;&lt;/i&gt;For Loop&lt;br style=&quot;border-color: var(--border-color);&quot;&gt;&lt;br style=&quot;border-color: var(--border-color);&quot;&gt;betw = 1" style="rounded=1;whiteSpace=wrap;html=1;strokeWidth=2;" vertex="1" parent="1">
          <mxGeometry x="210" y="1110" width="120" height="70" as="geometry" />
        </mxCell>
        <mxCell id="q_9VxGKZA45BSg9ZqPeT-72" style="edgeStyle=orthogonalEdgeStyle;rounded=0;orthogonalLoop=1;jettySize=auto;html=1;exitX=0.5;exitY=1;exitDx=0;exitDy=0;entryX=0.5;entryY=0;entryDx=0;entryDy=0;strokeWidth=2;" edge="1" parent="1" source="q_9VxGKZA45BSg9ZqPeT-73" target="q_9VxGKZA45BSg9ZqPeT-70">
          <mxGeometry relative="1" as="geometry" />
        </mxCell>
        <mxCell id="q_9VxGKZA45BSg9ZqPeT-73" value="&lt;b&gt;Output&lt;/b&gt;&lt;br&gt;row" style="shape=parallelogram;perimeter=parallelogramPerimeter;whiteSpace=wrap;html=1;fixedSize=1;rounded=1;strokeWidth=2;" vertex="1" parent="1">
          <mxGeometry x="210" y="1010" width="120" height="60" as="geometry" />
        </mxCell>
        <mxCell id="q_9VxGKZA45BSg9ZqPeT-85" value="&lt;font style=&quot;font-size: 12px;&quot;&gt;False&lt;/font&gt;" style="edgeLabel;resizable=0;html=1;align=center;verticalAlign=middle;" connectable="0" vertex="1" parent="1">
          <mxGeometry x="295" y="845" as="geometry">
            <mxPoint x="16" as="offset" />
          </mxGeometry>
        </mxCell>
        <mxCell id="q_9VxGKZA45BSg9ZqPeT-86" style="edgeStyle=orthogonalEdgeStyle;rounded=0;orthogonalLoop=1;jettySize=auto;html=1;exitX=0.5;exitY=1;exitDx=0;exitDy=0;entryX=0.5;entryY=0;entryDx=0;entryDy=0;strokeWidth=2;" edge="1" parent="1" source="q_9VxGKZA45BSg9ZqPeT-87" target="q_9VxGKZA45BSg9ZqPeT-57">
          <mxGeometry relative="1" as="geometry" />
        </mxCell>
        <mxCell id="q_9VxGKZA45BSg9ZqPeT-87" value="&lt;b&gt;Declare Variable Inside Loop&lt;/b&gt;&lt;br&gt;int diff = (row-mid)" style="rounded=1;whiteSpace=wrap;html=1;strokeWidth=2;" vertex="1" parent="1">
          <mxGeometry x="390" y="765" width="120" height="60" as="geometry" />
        </mxCell>
        <mxCell id="q_9VxGKZA45BSg9ZqPeT-88" value="" style="endArrow=none;html=1;rounded=0;strokeWidth=2;entryX=0.5;entryY=1;entryDx=0;entryDy=0;" edge="1" parent="1" target="a9U_RtmXgx0-GvdP9iLD-1">
          <mxGeometry width="50" height="50" relative="1" as="geometry">
            <mxPoint x="380" y="660" as="sourcePoint" />
            <mxPoint x="540" y="630" as="targetPoint" />
          </mxGeometry>
        </mxCell>
        <mxCell id="q_9VxGKZA45BSg9ZqPeT-89" value="betw &lt;b&gt;&amp;lt;= &lt;/b&gt;(diff*2-1)" style="rhombus;whiteSpace=wrap;html=1;strokeWidth=2;" vertex="1" parent="1">
          <mxGeometry x="240" y="1250" width="140" height="90" as="geometry" />
        </mxCell>
        <mxCell id="q_9VxGKZA45BSg9ZqPeT-90" value="" style="endArrow=classic;html=1;rounded=0;strokeWidth=2;exitX=1;exitY=0.5;exitDx=0;exitDy=0;entryX=0;entryY=0.506;entryDx=0;entryDy=0;entryPerimeter=0;" edge="1" parent="1">
          <mxGeometry relative="1" as="geometry">
            <mxPoint x="380" y="1294.5" as="sourcePoint" />
            <mxPoint x="450" y="1294.5" as="targetPoint" />
          </mxGeometry>
        </mxCell>
        <mxCell id="q_9VxGKZA45BSg9ZqPeT-91" value="True" style="edgeLabel;resizable=0;html=1;align=center;verticalAlign=middle;" connectable="0" vertex="1" parent="q_9VxGKZA45BSg9ZqPeT-90">
          <mxGeometry relative="1" as="geometry" />
        </mxCell>
        <mxCell id="q_9VxGKZA45BSg9ZqPeT-92" value="&lt;b&gt;Output Space&lt;br style=&quot;border-color: var(--border-color);&quot;&gt;&lt;/b&gt;&lt;span style=&quot;font-weight: bold; border-color: var(--border-color);&quot;&gt;&quot; &quot;&lt;/span&gt;" style="shape=parallelogram;perimeter=parallelogramPerimeter;whiteSpace=wrap;html=1;fixedSize=1;rounded=1;strokeWidth=2;" vertex="1" parent="1">
          <mxGeometry x="440" y="1265" width="110" height="60" as="geometry" />
        </mxCell>
        <mxCell id="q_9VxGKZA45BSg9ZqPeT-93" style="edgeStyle=orthogonalEdgeStyle;rounded=0;orthogonalLoop=1;jettySize=auto;html=1;strokeWidth=2;exitX=1;exitY=0.5;exitDx=0;exitDy=0;entryX=1;entryY=0.5;entryDx=0;entryDy=0;" edge="1" parent="1" source="q_9VxGKZA45BSg9ZqPeT-92" target="q_9VxGKZA45BSg9ZqPeT-94">
          <mxGeometry relative="1" as="geometry">
            <mxPoint x="480" y="1330" as="sourcePoint" />
            <mxPoint x="470" y="1240" as="targetPoint" />
            <Array as="points">
              <mxPoint x="560" y="1295" />
              <mxPoint x="560" y="1180" />
            </Array>
          </mxGeometry>
        </mxCell>
        <mxCell id="q_9VxGKZA45BSg9ZqPeT-94" value="&lt;b&gt;Increment&lt;/b&gt;&lt;br&gt;betw++" style="rounded=1;whiteSpace=wrap;html=1;strokeWidth=2;" vertex="1" parent="1">
          <mxGeometry x="420" y="1150" width="90" height="60" as="geometry" />
        </mxCell>
        <mxCell id="q_9VxGKZA45BSg9ZqPeT-95" value="" style="endArrow=none;html=1;rounded=0;strokeWidth=2;entryX=0;entryY=0.5;entryDx=0;entryDy=0;" edge="1" parent="1" target="q_9VxGKZA45BSg9ZqPeT-94">
          <mxGeometry width="50" height="50" relative="1" as="geometry">
            <mxPoint x="310" y="1220" as="sourcePoint" />
            <mxPoint x="410" y="1200" as="targetPoint" />
            <Array as="points">
              <mxPoint x="330" y="1220" />
              <mxPoint x="360" y="1220" />
              <mxPoint x="360" y="1180" />
              <mxPoint x="370" y="1180" />
            </Array>
          </mxGeometry>
        </mxCell>
        <mxCell id="q_9VxGKZA45BSg9ZqPeT-96" value="" style="endArrow=classic;html=1;rounded=0;exitX=0;exitY=0.5;exitDx=0;exitDy=0;strokeWidth=2;" edge="1" parent="1" source="q_9VxGKZA45BSg9ZqPeT-89">
          <mxGeometry relative="1" as="geometry">
            <mxPoint x="230" y="1300" as="sourcePoint" />
            <mxPoint x="170" y="1295" as="targetPoint" />
          </mxGeometry>
        </mxCell>
        <mxCell id="q_9VxGKZA45BSg9ZqPeT-97" value="&lt;font style=&quot;font-size: 12px;&quot;&gt;False&lt;/font&gt;" style="edgeLabel;resizable=0;html=1;align=center;verticalAlign=middle;" connectable="0" vertex="1" parent="q_9VxGKZA45BSg9ZqPeT-96">
          <mxGeometry relative="1" as="geometry">
            <mxPoint x="5" y="-5" as="offset" />
          </mxGeometry>
        </mxCell>
        <mxCell id="a9U_RtmXgx0-GvdP9iLD-1" value="Declare and Initialize In &lt;i&gt;row &lt;/i&gt;For Loop&lt;br&gt;&lt;br&gt;row = mid +1" style="rounded=1;whiteSpace=wrap;html=1;strokeWidth=2;" vertex="1" parent="1">
          <mxGeometry x="330" y="530" width="100" height="80" as="geometry" />
        </mxCell>
        <mxCell id="EMOGcmvfTmQm4rBm_lMr-1" value="Page 8" style="ellipse;whiteSpace=wrap;html=1;aspect=fixed;strokeWidth=2;" vertex="1" parent="1">
          <mxGeometry x="100" y="1260" width="70" height="70" as="geometry" />
        </mxCell>
        <mxCell id="UtikXAKIsZuBZGQdNOHb-1" style="edgeStyle=orthogonalEdgeStyle;rounded=0;orthogonalLoop=1;jettySize=auto;html=1;exitX=0;exitY=0.5;exitDx=0;exitDy=0;entryX=1;entryY=0.5;entryDx=0;entryDy=0;strokeWidth=2;" edge="1" parent="1" source="P9vpWaKAGm9Ztm0CRv47-1" target="4kbncT59hDFTZ2t25_T--1">
          <mxGeometry relative="1" as="geometry" />
        </mxCell>
        <mxCell id="P9vpWaKAGm9Ztm0CRv47-1" value="Page 7_1" style="ellipse;whiteSpace=wrap;html=1;aspect=fixed;strokeWidth=2;" vertex="1" parent="1">
          <mxGeometry x="670" y="670" width="80" height="80" as="geometry" />
        </mxCell>
        <mxCell id="4kbncT59hDFTZ2t25_T--1" value="&lt;b&gt;Increment&lt;/b&gt;&lt;br&gt;row++" style="rounded=1;whiteSpace=wrap;html=1;strokeWidth=2;" vertex="1" parent="1">
          <mxGeometry x="480" y="680" width="120" height="60" as="geometry" />
        </mxCell>
        <mxCell id="4kbncT59hDFTZ2t25_T--2" value="" style="endArrow=none;html=1;rounded=0;strokeWidth=2;" edge="1" parent="1">
          <mxGeometry width="50" height="50" relative="1" as="geometry">
            <mxPoint x="290" y="710" as="sourcePoint" />
            <mxPoint x="480" y="710" as="targetPoint" />
          </mxGeometry>
        </mxCell>
        <mxCell id="q2iqAoPFz1yMhZ0A_44c-1" value="Exit main&lt;br&gt;&lt;b&gt;return 0&lt;/b&gt;" style="ellipse;whiteSpace=wrap;html=1;strokeWidth=2;" vertex="1" parent="1">
          <mxGeometry x="240" y="870" width="110" height="70" as="geometry" />
        </mxCell>
      </root>
    </mxGraphModel>
  </diagram>
  <diagram id="QuNreQAjEq1koj1ANO_O" name="Page-8">
    <mxGraphModel dx="1098" dy="-572" grid="1" gridSize="10" guides="1" tooltips="1" connect="1" arrows="1" fold="1" page="1" pageScale="1" pageWidth="850" pageHeight="1400" math="0" shadow="0">
      <root>
        <mxCell id="0" />
        <mxCell id="1" parent="0" />
        <mxCell id="v-IGYmnOIj_WAEQ1s6lW-4" value="" style="edgeStyle=orthogonalEdgeStyle;rounded=0;orthogonalLoop=1;jettySize=auto;html=1;" edge="1" parent="1" source="kzLP17zx4PAItrckHEp_-1" target="kzLP17zx4PAItrckHEp_-4">
          <mxGeometry relative="1" as="geometry" />
        </mxCell>
        <mxCell id="kzLP17zx4PAItrckHEp_-1" value="space &lt;b&gt;&amp;lt; = &lt;/b&gt;size-row" style="rhombus;whiteSpace=wrap;html=1;strokeWidth=2;" vertex="1" parent="1">
          <mxGeometry x="420" y="1547.5" width="120" height="102.5" as="geometry" />
        </mxCell>
        <mxCell id="kzLP17zx4PAItrckHEp_-2" value="" style="endArrow=classic;html=1;rounded=0;strokeWidth=2;exitX=1;exitY=0.5;exitDx=0;exitDy=0;entryX=0;entryY=0.5;entryDx=0;entryDy=0;" edge="1" parent="1" target="kzLP17zx4PAItrckHEp_-4" source="kzLP17zx4PAItrckHEp_-1">
          <mxGeometry relative="1" as="geometry">
            <mxPoint x="530" y="1594.5" as="sourcePoint" />
            <mxPoint x="585" y="1595" as="targetPoint" />
          </mxGeometry>
        </mxCell>
        <mxCell id="kzLP17zx4PAItrckHEp_-3" value="True" style="edgeLabel;resizable=0;html=1;align=center;verticalAlign=middle;" connectable="0" vertex="1" parent="kzLP17zx4PAItrckHEp_-2">
          <mxGeometry relative="1" as="geometry">
            <mxPoint x="-5" as="offset" />
          </mxGeometry>
        </mxCell>
        <mxCell id="kzLP17zx4PAItrckHEp_-4" value="&lt;b&gt;Output Space&lt;br style=&quot;border-color: var(--border-color);&quot;&gt;&lt;/b&gt;&lt;span style=&quot;font-weight: bold; border-color: var(--border-color);&quot;&gt;&quot; &quot;&lt;/span&gt;" style="shape=parallelogram;perimeter=parallelogramPerimeter;whiteSpace=wrap;html=1;fixedSize=1;rounded=1;strokeWidth=2;" vertex="1" parent="1">
          <mxGeometry x="600" y="1568.75" width="110" height="60" as="geometry" />
        </mxCell>
        <mxCell id="kzLP17zx4PAItrckHEp_-5" value="&lt;b&gt;Increment&lt;/b&gt;&lt;br&gt;space++" style="rounded=1;whiteSpace=wrap;html=1;strokeWidth=2;" vertex="1" parent="1">
          <mxGeometry x="610" y="1470" width="90" height="60" as="geometry" />
        </mxCell>
        <mxCell id="kzLP17zx4PAItrckHEp_-6" style="edgeStyle=orthogonalEdgeStyle;rounded=0;orthogonalLoop=1;jettySize=auto;html=1;exitX=1;exitY=0.5;exitDx=0;exitDy=0;strokeWidth=2;" edge="1" parent="1" source="kzLP17zx4PAItrckHEp_-4">
          <mxGeometry relative="1" as="geometry">
            <mxPoint x="680" y="1590" as="sourcePoint" />
            <mxPoint x="700" y="1500" as="targetPoint" />
            <Array as="points">
              <mxPoint x="730" y="1599" />
              <mxPoint x="730" y="1500" />
            </Array>
          </mxGeometry>
        </mxCell>
        <mxCell id="kzLP17zx4PAItrckHEp_-7" value="" style="endArrow=none;html=1;rounded=0;strokeWidth=2;" edge="1" parent="1">
          <mxGeometry width="50" height="50" relative="1" as="geometry">
            <mxPoint x="370" y="1600" as="sourcePoint" />
            <mxPoint x="610" y="1500" as="targetPoint" />
            <Array as="points">
              <mxPoint x="370" y="1550" />
              <mxPoint x="370" y="1500" />
              <mxPoint x="565" y="1500" />
              <mxPoint x="590" y="1500" />
            </Array>
          </mxGeometry>
        </mxCell>
        <mxCell id="YOMVmdTNy95DTwZTvEcV-1" style="edgeStyle=orthogonalEdgeStyle;rounded=0;orthogonalLoop=1;jettySize=auto;html=1;exitX=0;exitY=0.5;exitDx=0;exitDy=0;entryX=1;entryY=0.5;entryDx=0;entryDy=0;strokeWidth=2;" edge="1" parent="1" source="kzLP17zx4PAItrckHEp_-8" target="v-IGYmnOIj_WAEQ1s6lW-5">
          <mxGeometry relative="1" as="geometry" />
        </mxCell>
        <mxCell id="kzLP17zx4PAItrckHEp_-8" value="&lt;b&gt;Output New Line&lt;br style=&quot;border-color: var(--border-color);&quot;&gt;&lt;/b&gt;endl" style="shape=parallelogram;perimeter=parallelogramPerimeter;whiteSpace=wrap;html=1;fixedSize=1;rounded=1;strokeWidth=2;" vertex="1" parent="1">
          <mxGeometry x="240" y="1670" width="135" height="60" as="geometry" />
        </mxCell>
        <mxCell id="kzLP17zx4PAItrckHEp_-9" style="edgeStyle=orthogonalEdgeStyle;rounded=0;orthogonalLoop=1;jettySize=auto;html=1;exitX=0.5;exitY=1;exitDx=0;exitDy=0;entryX=0.5;entryY=0;entryDx=0;entryDy=0;strokeWidth=2;" edge="1" parent="1" source="kzLP17zx4PAItrckHEp_-10" target="kzLP17zx4PAItrckHEp_-12">
          <mxGeometry relative="1" as="geometry" />
        </mxCell>
        <mxCell id="kzLP17zx4PAItrckHEp_-10" value="&lt;b&gt;Output&lt;/b&gt;&lt;br&gt;size +1-row" style="shape=parallelogram;perimeter=parallelogramPerimeter;whiteSpace=wrap;html=1;fixedSize=1;rounded=1;strokeWidth=2;" vertex="1" parent="1">
          <mxGeometry x="210" y="1465" width="120" height="60" as="geometry" />
        </mxCell>
        <mxCell id="v-IGYmnOIj_WAEQ1s6lW-3" style="edgeStyle=orthogonalEdgeStyle;rounded=0;orthogonalLoop=1;jettySize=auto;html=1;exitX=1;exitY=0.5;exitDx=0;exitDy=0;entryX=0;entryY=0.5;entryDx=0;entryDy=0;strokeWidth=2;" edge="1" parent="1" source="kzLP17zx4PAItrckHEp_-12" target="kzLP17zx4PAItrckHEp_-1">
          <mxGeometry relative="1" as="geometry" />
        </mxCell>
        <mxCell id="kzLP17zx4PAItrckHEp_-12" value="Declare and Initialize In &lt;i&gt;space&amp;nbsp;&lt;/i&gt;For Loop&lt;br style=&quot;border-color: var(--border-color);&quot;&gt;&lt;br style=&quot;border-color: var(--border-color);&quot;&gt;space = 1" style="rounded=1;whiteSpace=wrap;html=1;strokeWidth=2;" vertex="1" parent="1">
          <mxGeometry x="210" y="1563.75" width="120" height="70" as="geometry" />
        </mxCell>
        <mxCell id="kzLP17zx4PAItrckHEp_-13" value="" style="endArrow=classic;html=1;rounded=0;exitX=0.5;exitY=1;exitDx=0;exitDy=0;strokeWidth=2;" edge="1" parent="1" source="kzLP17zx4PAItrckHEp_-1">
          <mxGeometry relative="1" as="geometry">
            <mxPoint x="460.03999999999996" y="1660" as="sourcePoint" />
            <mxPoint x="360" y="1710" as="targetPoint" />
            <Array as="points">
              <mxPoint x="480" y="1710" />
            </Array>
          </mxGeometry>
        </mxCell>
        <mxCell id="kzLP17zx4PAItrckHEp_-14" value="&lt;font style=&quot;font-size: 12px;&quot;&gt;False&lt;/font&gt;" style="edgeLabel;resizable=0;html=1;align=center;verticalAlign=middle;" connectable="0" vertex="1" parent="kzLP17zx4PAItrckHEp_-13">
          <mxGeometry relative="1" as="geometry">
            <mxPoint x="30" y="-30" as="offset" />
          </mxGeometry>
        </mxCell>
        <mxCell id="v-IGYmnOIj_WAEQ1s6lW-2" style="edgeStyle=orthogonalEdgeStyle;rounded=0;orthogonalLoop=1;jettySize=auto;html=1;exitX=1;exitY=0.5;exitDx=0;exitDy=0;entryX=0;entryY=0.5;entryDx=0;entryDy=0;strokeWidth=2;" edge="1" parent="1" source="kV2d4WW_wKq1FGdSoCc6-1" target="kzLP17zx4PAItrckHEp_-10">
          <mxGeometry relative="1" as="geometry" />
        </mxCell>
        <mxCell id="kV2d4WW_wKq1FGdSoCc6-1" value="Page 8" style="ellipse;whiteSpace=wrap;html=1;aspect=fixed;strokeWidth=2;" vertex="1" parent="1">
          <mxGeometry x="80" y="1460" width="70" height="70" as="geometry" />
        </mxCell>
        <mxCell id="v-IGYmnOIj_WAEQ1s6lW-5" value="Page 7_1" style="ellipse;whiteSpace=wrap;html=1;aspect=fixed;strokeWidth=2;" vertex="1" parent="1">
          <mxGeometry x="100" y="1665" width="70" height="70" as="geometry" />
        </mxCell>
        <mxCell id="nbh5NLojR7MIdfdztKVT-2" style="edgeStyle=orthogonalEdgeStyle;rounded=0;orthogonalLoop=1;jettySize=auto;html=1;exitX=1;exitY=0.5;exitDx=0;exitDy=0;entryX=0;entryY=0.5;entryDx=0;entryDy=0;strokeWidth=2;" edge="1" parent="1" source="p4AeyPxFnpxiEJUt3yuj-1" target="nbh5NLojR7MIdfdztKVT-1">
          <mxGeometry relative="1" as="geometry" />
        </mxCell>
        <mxCell id="p4AeyPxFnpxiEJUt3yuj-1" value="Page 8_1" style="ellipse;whiteSpace=wrap;html=1;aspect=fixed;strokeWidth=2;" vertex="1" parent="1">
          <mxGeometry x="80" y="1780" width="70" height="70" as="geometry" />
        </mxCell>
        <mxCell id="nbh5NLojR7MIdfdztKVT-1" value="&lt;b&gt;Declare Variable&lt;/b&gt;&lt;br&gt;mid = size/2&lt;br&gt;" style="shape=parallelogram;perimeter=parallelogramPerimeter;whiteSpace=wrap;html=1;fixedSize=1;rounded=1;strokeWidth=2;" vertex="1" parent="1">
          <mxGeometry x="240" y="1782.5" width="160" height="65" as="geometry" />
        </mxCell>
        <mxCell id="6o3CHhrdgAes0uy5QawS-5" style="edgeStyle=orthogonalEdgeStyle;rounded=0;orthogonalLoop=1;jettySize=auto;html=1;entryX=0.5;entryY=0;entryDx=0;entryDy=0;strokeWidth=2;" edge="1" parent="1" target="6o3CHhrdgAes0uy5QawS-8">
          <mxGeometry relative="1" as="geometry">
            <Array as="points">
              <mxPoint x="295" y="1880" />
            </Array>
            <mxPoint x="550" y="1880" as="sourcePoint" />
          </mxGeometry>
        </mxCell>
        <mxCell id="6o3CHhrdgAes0uy5QawS-6" value="Declare and Initialize In &lt;i&gt;row &lt;/i&gt;For Loop&lt;br&gt;&lt;br&gt;row = 1&amp;nbsp;" style="rounded=1;whiteSpace=wrap;html=1;strokeWidth=2;" vertex="1" parent="1">
          <mxGeometry x="500" y="1767.5" width="100" height="80" as="geometry" />
        </mxCell>
        <mxCell id="6o3CHhrdgAes0uy5QawS-7" style="edgeStyle=orthogonalEdgeStyle;rounded=0;orthogonalLoop=1;jettySize=auto;html=1;exitX=0.5;exitY=1;exitDx=0;exitDy=0;entryX=0.5;entryY=0;entryDx=0;entryDy=0;strokeWidth=2;" edge="1" parent="1" source="6o3CHhrdgAes0uy5QawS-8" target="6o3CHhrdgAes0uy5QawS-59">
          <mxGeometry relative="1" as="geometry">
            <mxPoint x="295" y="2125" as="targetPoint" />
          </mxGeometry>
        </mxCell>
        <mxCell id="6o3CHhrdgAes0uy5QawS-8" value="row &lt;b&gt;&amp;lt;= &lt;/b&gt;mid" style="rhombus;whiteSpace=wrap;html=1;strokeWidth=2;" vertex="1" parent="1">
          <mxGeometry x="250" y="1985" width="90" height="90" as="geometry" />
        </mxCell>
        <mxCell id="6o3CHhrdgAes0uy5QawS-9" style="edgeStyle=orthogonalEdgeStyle;rounded=0;orthogonalLoop=1;jettySize=auto;html=1;exitX=0.5;exitY=1;exitDx=0;exitDy=0;entryX=0.5;entryY=0;entryDx=0;entryDy=0;strokeWidth=2;" edge="1" parent="1" source="6o3CHhrdgAes0uy5QawS-10" target="6o3CHhrdgAes0uy5QawS-13">
          <mxGeometry relative="1" as="geometry" />
        </mxCell>
        <mxCell id="6o3CHhrdgAes0uy5QawS-10" value="Declare and Initialize In &lt;i&gt;column &lt;/i&gt;For Loop&lt;br&gt;&lt;br&gt;col = 1" style="rounded=1;whiteSpace=wrap;html=1;strokeWidth=2;" vertex="1" parent="1">
          <mxGeometry x="400" y="2095" width="100" height="80" as="geometry" />
        </mxCell>
        <mxCell id="6o3CHhrdgAes0uy5QawS-11" value="" style="endArrow=classic;html=1;rounded=0;strokeWidth=2;entryX=0;entryY=0.5;entryDx=0;entryDy=0;" edge="1" parent="1" target="6o3CHhrdgAes0uy5QawS-42">
          <mxGeometry relative="1" as="geometry">
            <mxPoint x="340" y="2030" as="sourcePoint" />
            <mxPoint x="405" y="2029.98" as="targetPoint" />
          </mxGeometry>
        </mxCell>
        <mxCell id="6o3CHhrdgAes0uy5QawS-12" value="True" style="edgeLabel;resizable=0;html=1;align=center;verticalAlign=middle;" connectable="0" vertex="1" parent="6o3CHhrdgAes0uy5QawS-11">
          <mxGeometry relative="1" as="geometry">
            <mxPoint x="-10" y="-10" as="offset" />
          </mxGeometry>
        </mxCell>
        <mxCell id="6o3CHhrdgAes0uy5QawS-13" value="col &lt;b&gt;&amp;lt; &lt;/b&gt;row" style="rhombus;whiteSpace=wrap;html=1;strokeWidth=2;" vertex="1" parent="1">
          <mxGeometry x="370" y="2250" width="80" height="80" as="geometry" />
        </mxCell>
        <mxCell id="6o3CHhrdgAes0uy5QawS-14" value="" style="endArrow=classic;html=1;rounded=0;strokeWidth=2;exitX=1;exitY=0.5;exitDx=0;exitDy=0;entryX=0;entryY=0.506;entryDx=0;entryDy=0;entryPerimeter=0;" edge="1" parent="1">
          <mxGeometry relative="1" as="geometry">
            <mxPoint x="450" y="2289.5" as="sourcePoint" />
            <mxPoint x="520" y="2289.5" as="targetPoint" />
          </mxGeometry>
        </mxCell>
        <mxCell id="6o3CHhrdgAes0uy5QawS-15" value="True" style="edgeLabel;resizable=0;html=1;align=center;verticalAlign=middle;" connectable="0" vertex="1" parent="6o3CHhrdgAes0uy5QawS-14">
          <mxGeometry relative="1" as="geometry" />
        </mxCell>
        <mxCell id="6o3CHhrdgAes0uy5QawS-16" value="&lt;b&gt;Increment&lt;/b&gt;&lt;br&gt;col++" style="rounded=1;whiteSpace=wrap;html=1;strokeWidth=2;" vertex="1" parent="1">
          <mxGeometry x="530" y="2170" width="90" height="60" as="geometry" />
        </mxCell>
        <mxCell id="6o3CHhrdgAes0uy5QawS-17" style="edgeStyle=orthogonalEdgeStyle;rounded=0;orthogonalLoop=1;jettySize=auto;html=1;exitX=1;exitY=0.5;exitDx=0;exitDy=0;entryX=1;entryY=0.5;entryDx=0;entryDy=0;strokeWidth=2;" edge="1" parent="1" source="6o3CHhrdgAes0uy5QawS-18" target="6o3CHhrdgAes0uy5QawS-16">
          <mxGeometry relative="1" as="geometry">
            <Array as="points">
              <mxPoint x="650" y="2290" />
              <mxPoint x="650" y="2200" />
            </Array>
          </mxGeometry>
        </mxCell>
        <mxCell id="6o3CHhrdgAes0uy5QawS-18" value="&lt;b&gt;Output Space&lt;br style=&quot;border-color: var(--border-color);&quot;&gt;&lt;/b&gt;&lt;span style=&quot;font-weight: bold; border-color: var(--border-color);&quot;&gt;&quot; &quot;&lt;/span&gt;" style="shape=parallelogram;perimeter=parallelogramPerimeter;whiteSpace=wrap;html=1;fixedSize=1;rounded=1;strokeWidth=2;" vertex="1" parent="1">
          <mxGeometry x="510" y="2260" width="110" height="60" as="geometry" />
        </mxCell>
        <mxCell id="6o3CHhrdgAes0uy5QawS-19" value="" style="endArrow=none;html=1;rounded=0;entryX=0;entryY=0.5;entryDx=0;entryDy=0;strokeWidth=2;" edge="1" parent="1" target="6o3CHhrdgAes0uy5QawS-16">
          <mxGeometry width="50" height="50" relative="1" as="geometry">
            <mxPoint x="450" y="2200" as="sourcePoint" />
            <mxPoint x="480" y="2210" as="targetPoint" />
          </mxGeometry>
        </mxCell>
        <mxCell id="6o3CHhrdgAes0uy5QawS-20" value="" style="endArrow=classic;html=1;rounded=0;exitX=0;exitY=0.5;exitDx=0;exitDy=0;strokeWidth=2;entryX=1;entryY=0.5;entryDx=0;entryDy=0;" edge="1" parent="1" source="6o3CHhrdgAes0uy5QawS-13" target="6o3CHhrdgAes0uy5QawS-26">
          <mxGeometry relative="1" as="geometry">
            <mxPoint x="320" y="2180" as="sourcePoint" />
            <mxPoint x="360" y="2250" as="targetPoint" />
            <Array as="points">
              <mxPoint x="320" y="2290" />
              <mxPoint x="200" y="2290" />
              <mxPoint x="200" y="2240" />
              <mxPoint x="200" y="2180" />
            </Array>
          </mxGeometry>
        </mxCell>
        <mxCell id="6o3CHhrdgAes0uy5QawS-21" value="&lt;font style=&quot;font-size: 12px;&quot;&gt;False&lt;/font&gt;" style="edgeLabel;resizable=0;html=1;align=center;verticalAlign=middle;" connectable="0" vertex="1" parent="6o3CHhrdgAes0uy5QawS-20">
          <mxGeometry relative="1" as="geometry">
            <mxPoint x="120" y="-10" as="offset" />
          </mxGeometry>
        </mxCell>
        <mxCell id="6o3CHhrdgAes0uy5QawS-22" style="edgeStyle=orthogonalEdgeStyle;rounded=0;orthogonalLoop=1;jettySize=auto;html=1;exitX=0.5;exitY=1;exitDx=0;exitDy=0;entryX=0.5;entryY=0;entryDx=0;entryDy=0;strokeWidth=2;" edge="1" parent="1" source="6o3CHhrdgAes0uy5QawS-23" target="6o3CHhrdgAes0uy5QawS-44">
          <mxGeometry relative="1" as="geometry" />
        </mxCell>
        <mxCell id="6o3CHhrdgAes0uy5QawS-23" value="Declare and Initialize In &lt;i&gt;betw&amp;nbsp;&lt;/i&gt;For Loop&lt;br style=&quot;border-color: var(--border-color);&quot;&gt;&lt;br style=&quot;border-color: var(--border-color);&quot;&gt;betw = 1" style="rounded=1;whiteSpace=wrap;html=1;strokeWidth=2;" vertex="1" parent="1">
          <mxGeometry x="40" y="2240" width="120" height="70" as="geometry" />
        </mxCell>
        <mxCell id="6o3CHhrdgAes0uy5QawS-24" value="space &lt;b&gt;&amp;lt; &lt;/b&gt;row" style="rhombus;whiteSpace=wrap;html=1;strokeWidth=2;" vertex="1" parent="1">
          <mxGeometry x="220" y="2595" width="130" height="100" as="geometry" />
        </mxCell>
        <mxCell id="6o3CHhrdgAes0uy5QawS-25" style="edgeStyle=orthogonalEdgeStyle;rounded=0;orthogonalLoop=1;jettySize=auto;html=1;exitX=0.5;exitY=1;exitDx=0;exitDy=0;entryX=0.5;entryY=0;entryDx=0;entryDy=0;strokeWidth=2;" edge="1" parent="1" source="6o3CHhrdgAes0uy5QawS-26" target="6o3CHhrdgAes0uy5QawS-23">
          <mxGeometry relative="1" as="geometry" />
        </mxCell>
        <mxCell id="6o3CHhrdgAes0uy5QawS-26" value="&lt;b&gt;Output&lt;/b&gt;&lt;br&gt;row" style="shape=parallelogram;perimeter=parallelogramPerimeter;whiteSpace=wrap;html=1;fixedSize=1;rounded=1;strokeWidth=2;" vertex="1" parent="1">
          <mxGeometry x="50" y="2150" width="120" height="60" as="geometry" />
        </mxCell>
        <mxCell id="6o3CHhrdgAes0uy5QawS-27" value="" style="endArrow=classic;html=1;rounded=0;strokeWidth=2;exitX=1;exitY=0.5;exitDx=0;exitDy=0;entryX=0;entryY=0.5;entryDx=0;entryDy=0;" edge="1" parent="1" target="6o3CHhrdgAes0uy5QawS-29">
          <mxGeometry relative="1" as="geometry">
            <mxPoint x="350" y="2644.5" as="sourcePoint" />
            <mxPoint x="405" y="2645" as="targetPoint" />
          </mxGeometry>
        </mxCell>
        <mxCell id="6o3CHhrdgAes0uy5QawS-28" value="True" style="edgeLabel;resizable=0;html=1;align=center;verticalAlign=middle;" connectable="0" vertex="1" parent="6o3CHhrdgAes0uy5QawS-27">
          <mxGeometry relative="1" as="geometry" />
        </mxCell>
        <mxCell id="6o3CHhrdgAes0uy5QawS-29" value="&lt;b&gt;Output Space&lt;br style=&quot;border-color: var(--border-color);&quot;&gt;&lt;/b&gt;&lt;span style=&quot;font-weight: bold; border-color: var(--border-color);&quot;&gt;&quot; &quot;&lt;/span&gt;" style="shape=parallelogram;perimeter=parallelogramPerimeter;whiteSpace=wrap;html=1;fixedSize=1;rounded=1;strokeWidth=2;" vertex="1" parent="1">
          <mxGeometry x="400" y="2615" width="110" height="60" as="geometry" />
        </mxCell>
        <mxCell id="6o3CHhrdgAes0uy5QawS-30" value="&lt;b&gt;Increment&lt;/b&gt;&lt;br&gt;space++" style="rounded=1;whiteSpace=wrap;html=1;strokeWidth=2;" vertex="1" parent="1">
          <mxGeometry x="430" y="2520" width="90" height="60" as="geometry" />
        </mxCell>
        <mxCell id="6o3CHhrdgAes0uy5QawS-31" style="edgeStyle=orthogonalEdgeStyle;rounded=0;orthogonalLoop=1;jettySize=auto;html=1;exitX=1;exitY=0.5;exitDx=0;exitDy=0;strokeWidth=2;" edge="1" parent="1">
          <mxGeometry relative="1" as="geometry">
            <mxPoint x="500" y="2640" as="sourcePoint" />
            <mxPoint x="520" y="2550" as="targetPoint" />
            <Array as="points">
              <mxPoint x="550" y="2640" />
              <mxPoint x="550" y="2550" />
            </Array>
          </mxGeometry>
        </mxCell>
        <mxCell id="6o3CHhrdgAes0uy5QawS-32" value="" style="endArrow=none;html=1;rounded=0;strokeWidth=2;" edge="1" parent="1">
          <mxGeometry width="50" height="50" relative="1" as="geometry">
            <mxPoint x="180" y="2650" as="sourcePoint" />
            <mxPoint x="430" y="2550" as="targetPoint" />
            <Array as="points">
              <mxPoint x="180" y="2550" />
              <mxPoint x="385" y="2550" />
              <mxPoint x="410" y="2550" />
            </Array>
          </mxGeometry>
        </mxCell>
        <mxCell id="6o3CHhrdgAes0uy5QawS-33" value="&lt;b&gt;Output New Line&lt;br style=&quot;border-color: var(--border-color);&quot;&gt;&lt;/b&gt;endl" style="shape=parallelogram;perimeter=parallelogramPerimeter;whiteSpace=wrap;html=1;fixedSize=1;rounded=1;strokeWidth=2;" vertex="1" parent="1">
          <mxGeometry x="358" y="2710" width="135" height="60" as="geometry" />
        </mxCell>
        <mxCell id="6o3CHhrdgAes0uy5QawS-34" value="&lt;b&gt;Increment&lt;/b&gt;&lt;br&gt;row++" style="rounded=1;whiteSpace=wrap;html=1;strokeWidth=2;" vertex="1" parent="1">
          <mxGeometry x="555" y="1915" width="90" height="60" as="geometry" />
        </mxCell>
        <mxCell id="6o3CHhrdgAes0uy5QawS-35" value="" style="endArrow=classic;html=1;rounded=0;entryX=1;entryY=0.5;entryDx=0;entryDy=0;strokeWidth=2;exitX=1;exitY=0.5;exitDx=0;exitDy=0;" edge="1" parent="1" source="6o3CHhrdgAes0uy5QawS-33" target="6o3CHhrdgAes0uy5QawS-34">
          <mxGeometry width="50" height="50" relative="1" as="geometry">
            <mxPoint x="740" y="2880" as="sourcePoint" />
            <mxPoint x="775" y="1875" as="targetPoint" />
            <Array as="points">
              <mxPoint x="740" y="2740" />
              <mxPoint x="740" y="1945" />
            </Array>
          </mxGeometry>
        </mxCell>
        <mxCell id="6o3CHhrdgAes0uy5QawS-36" value="" style="endArrow=none;html=1;rounded=0;entryX=0;entryY=0.5;entryDx=0;entryDy=0;strokeWidth=2;" edge="1" parent="1">
          <mxGeometry width="50" height="50" relative="1" as="geometry">
            <mxPoint x="295" y="1955" as="sourcePoint" />
            <mxPoint x="555" y="1935" as="targetPoint" />
            <Array as="points">
              <mxPoint x="295" y="1935" />
              <mxPoint x="465" y="1935" />
            </Array>
          </mxGeometry>
        </mxCell>
        <mxCell id="6o3CHhrdgAes0uy5QawS-38" value="&lt;font style=&quot;font-size: 12px;&quot;&gt;False&lt;/font&gt;" style="edgeLabel;resizable=0;html=1;align=center;verticalAlign=middle;" connectable="0" vertex="1" parent="1">
          <mxGeometry x="295" y="2095" as="geometry">
            <mxPoint x="16" as="offset" />
          </mxGeometry>
        </mxCell>
        <mxCell id="6o3CHhrdgAes0uy5QawS-39" style="edgeStyle=orthogonalEdgeStyle;rounded=0;orthogonalLoop=1;jettySize=auto;html=1;exitX=0.938;exitY=0.392;exitDx=0;exitDy=0;entryX=0;entryY=0.5;entryDx=0;entryDy=0;strokeWidth=2;exitPerimeter=0;" edge="1" parent="1" source="nbh5NLojR7MIdfdztKVT-1" target="6o3CHhrdgAes0uy5QawS-6">
          <mxGeometry relative="1" as="geometry">
            <mxPoint x="415" y="1810" as="sourcePoint" />
          </mxGeometry>
        </mxCell>
        <mxCell id="6o3CHhrdgAes0uy5QawS-41" style="edgeStyle=orthogonalEdgeStyle;rounded=0;orthogonalLoop=1;jettySize=auto;html=1;exitX=0.5;exitY=1;exitDx=0;exitDy=0;entryX=0.5;entryY=0;entryDx=0;entryDy=0;strokeWidth=2;" edge="1" parent="1" source="6o3CHhrdgAes0uy5QawS-42" target="6o3CHhrdgAes0uy5QawS-10">
          <mxGeometry relative="1" as="geometry" />
        </mxCell>
        <mxCell id="6o3CHhrdgAes0uy5QawS-42" value="&lt;b&gt;Declare Variable Inside Loop&lt;/b&gt;&lt;br&gt;int diff = (mid-row)" style="rounded=1;whiteSpace=wrap;html=1;strokeWidth=2;" vertex="1" parent="1">
          <mxGeometry x="390" y="2000" width="120" height="60" as="geometry" />
        </mxCell>
        <mxCell id="6o3CHhrdgAes0uy5QawS-43" value="" style="endArrow=none;html=1;rounded=0;strokeWidth=2;" edge="1" parent="1">
          <mxGeometry width="50" height="50" relative="1" as="geometry">
            <mxPoint x="550" y="1880" as="sourcePoint" />
            <mxPoint x="550" y="1850" as="targetPoint" />
          </mxGeometry>
        </mxCell>
        <mxCell id="6o3CHhrdgAes0uy5QawS-44" value="betw &lt;b&gt;&amp;lt;= &lt;/b&gt;(diff*2)" style="rhombus;whiteSpace=wrap;html=1;strokeWidth=2;" vertex="1" parent="1">
          <mxGeometry x="30" y="2380" width="140" height="90" as="geometry" />
        </mxCell>
        <mxCell id="6o3CHhrdgAes0uy5QawS-45" value="" style="endArrow=classic;html=1;rounded=0;strokeWidth=2;exitX=1;exitY=0.5;exitDx=0;exitDy=0;entryX=0;entryY=0.506;entryDx=0;entryDy=0;entryPerimeter=0;" edge="1" parent="1">
          <mxGeometry relative="1" as="geometry">
            <mxPoint x="170" y="2424.5" as="sourcePoint" />
            <mxPoint x="240" y="2424.5" as="targetPoint" />
          </mxGeometry>
        </mxCell>
        <mxCell id="6o3CHhrdgAes0uy5QawS-46" value="True" style="edgeLabel;resizable=0;html=1;align=center;verticalAlign=middle;" connectable="0" vertex="1" parent="6o3CHhrdgAes0uy5QawS-45">
          <mxGeometry relative="1" as="geometry" />
        </mxCell>
        <mxCell id="6o3CHhrdgAes0uy5QawS-47" value="&lt;b&gt;Output Space&lt;br style=&quot;border-color: var(--border-color);&quot;&gt;&lt;/b&gt;&lt;span style=&quot;font-weight: bold; border-color: var(--border-color);&quot;&gt;&quot; &quot;&lt;/span&gt;" style="shape=parallelogram;perimeter=parallelogramPerimeter;whiteSpace=wrap;html=1;fixedSize=1;rounded=1;strokeWidth=2;" vertex="1" parent="1">
          <mxGeometry x="230" y="2400" width="110" height="60" as="geometry" />
        </mxCell>
        <mxCell id="6o3CHhrdgAes0uy5QawS-48" style="edgeStyle=orthogonalEdgeStyle;rounded=0;orthogonalLoop=1;jettySize=auto;html=1;strokeWidth=2;exitX=1;exitY=0.5;exitDx=0;exitDy=0;" edge="1" parent="1" source="6o3CHhrdgAes0uy5QawS-47">
          <mxGeometry relative="1" as="geometry">
            <mxPoint x="340" y="2440" as="sourcePoint" />
            <mxPoint x="330" y="2350" as="targetPoint" />
            <Array as="points">
              <mxPoint x="360" y="2430" />
              <mxPoint x="360" y="2350" />
            </Array>
          </mxGeometry>
        </mxCell>
        <mxCell id="6o3CHhrdgAes0uy5QawS-49" value="&lt;b&gt;Increment&lt;/b&gt;&lt;br&gt;betw++" style="rounded=1;whiteSpace=wrap;html=1;strokeWidth=2;" vertex="1" parent="1">
          <mxGeometry x="240" y="2320" width="90" height="60" as="geometry" />
        </mxCell>
        <mxCell id="6o3CHhrdgAes0uy5QawS-50" value="" style="endArrow=none;html=1;rounded=0;strokeWidth=2;" edge="1" parent="1">
          <mxGeometry width="50" height="50" relative="1" as="geometry">
            <mxPoint x="100" y="2350" as="sourcePoint" />
            <mxPoint x="240" y="2350" as="targetPoint" />
            <Array as="points">
              <mxPoint x="130" y="2350" />
              <mxPoint x="170" y="2350" />
              <mxPoint x="200" y="2350" />
            </Array>
          </mxGeometry>
        </mxCell>
        <mxCell id="6o3CHhrdgAes0uy5QawS-51" value="" style="endArrow=classic;html=1;rounded=0;exitX=0.5;exitY=1;exitDx=0;exitDy=0;strokeWidth=2;" edge="1" parent="1" source="6o3CHhrdgAes0uy5QawS-44">
          <mxGeometry relative="1" as="geometry">
            <mxPoint x="380" y="2300" as="sourcePoint" />
            <mxPoint x="100" y="2520" as="targetPoint" />
          </mxGeometry>
        </mxCell>
        <mxCell id="6o3CHhrdgAes0uy5QawS-52" value="&lt;font style=&quot;font-size: 12px;&quot;&gt;False&lt;/font&gt;" style="edgeLabel;resizable=0;html=1;align=center;verticalAlign=middle;" connectable="0" vertex="1" parent="6o3CHhrdgAes0uy5QawS-51">
          <mxGeometry relative="1" as="geometry">
            <mxPoint x="5" y="-5" as="offset" />
          </mxGeometry>
        </mxCell>
        <mxCell id="6o3CHhrdgAes0uy5QawS-53" style="edgeStyle=orthogonalEdgeStyle;rounded=0;orthogonalLoop=1;jettySize=auto;html=1;exitX=0.5;exitY=1;exitDx=0;exitDy=0;entryX=0.5;entryY=0;entryDx=0;entryDy=0;strokeWidth=2;" edge="1" parent="1" source="6o3CHhrdgAes0uy5QawS-54" target="6o3CHhrdgAes0uy5QawS-56">
          <mxGeometry relative="1" as="geometry" />
        </mxCell>
        <mxCell id="6o3CHhrdgAes0uy5QawS-54" value="&lt;b&gt;Output&lt;/b&gt;&lt;br&gt;size+1-row" style="shape=parallelogram;perimeter=parallelogramPerimeter;whiteSpace=wrap;html=1;fixedSize=1;rounded=1;strokeWidth=2;" vertex="1" parent="1">
          <mxGeometry x="30" y="2520" width="120" height="60" as="geometry" />
        </mxCell>
        <mxCell id="6o3CHhrdgAes0uy5QawS-55" style="edgeStyle=orthogonalEdgeStyle;rounded=0;orthogonalLoop=1;jettySize=auto;html=1;exitX=1;exitY=0.5;exitDx=0;exitDy=0;entryX=0;entryY=0.5;entryDx=0;entryDy=0;strokeWidth=2;" edge="1" parent="1" source="6o3CHhrdgAes0uy5QawS-56" target="6o3CHhrdgAes0uy5QawS-24">
          <mxGeometry relative="1" as="geometry">
            <Array as="points">
              <mxPoint x="180" y="2645" />
              <mxPoint x="180" y="2645" />
            </Array>
          </mxGeometry>
        </mxCell>
        <mxCell id="6o3CHhrdgAes0uy5QawS-56" value="Declare and Initialize In &lt;i&gt;space&amp;nbsp;&lt;/i&gt;For Loop&lt;br style=&quot;border-color: var(--border-color);&quot;&gt;&lt;br style=&quot;border-color: var(--border-color);&quot;&gt;space = 1" style="rounded=1;whiteSpace=wrap;html=1;strokeWidth=2;" vertex="1" parent="1">
          <mxGeometry x="30" y="2610" width="120" height="70" as="geometry" />
        </mxCell>
        <mxCell id="6o3CHhrdgAes0uy5QawS-57" value="" style="endArrow=classic;html=1;rounded=0;exitX=0.5;exitY=1;exitDx=0;exitDy=0;strokeWidth=2;entryX=0;entryY=0.5;entryDx=0;entryDy=0;" edge="1" parent="1" source="6o3CHhrdgAes0uy5QawS-24" target="6o3CHhrdgAes0uy5QawS-33">
          <mxGeometry relative="1" as="geometry">
            <mxPoint x="280.03999999999996" y="2710" as="sourcePoint" />
            <mxPoint x="440" y="2760" as="targetPoint" />
            <Array as="points">
              <mxPoint x="285" y="2740" />
            </Array>
          </mxGeometry>
        </mxCell>
        <mxCell id="6o3CHhrdgAes0uy5QawS-58" value="&lt;font style=&quot;font-size: 12px;&quot;&gt;False&lt;/font&gt;" style="edgeLabel;resizable=0;html=1;align=center;verticalAlign=middle;" connectable="0" vertex="1" parent="6o3CHhrdgAes0uy5QawS-57">
          <mxGeometry relative="1" as="geometry">
            <mxPoint x="-10" y="-30" as="offset" />
          </mxGeometry>
        </mxCell>
        <mxCell id="6o3CHhrdgAes0uy5QawS-59" value="Page 9" style="ellipse;whiteSpace=wrap;html=1;aspect=fixed;strokeWidth=2;" vertex="1" parent="1">
          <mxGeometry x="260" y="2120" width="70" height="70" as="geometry" />
        </mxCell>
      </root>
    </mxGraphModel>
  </diagram>
  <diagram id="3QeZwyoaVr2ORMkYuCbs" name="Page-9">
    <mxGraphModel dx="1434" dy="844" grid="1" gridSize="10" guides="1" tooltips="1" connect="1" arrows="1" fold="1" page="1" pageScale="1" pageWidth="850" pageHeight="1400" math="0" shadow="0">
      <root>
        <mxCell id="0" />
        <mxCell id="1" parent="0" />
        <mxCell id="j044v0ao-zVQseaUgfhI-1" value="Page 9" style="ellipse;whiteSpace=wrap;html=1;aspect=fixed;strokeWidth=2;" vertex="1" parent="1">
          <mxGeometry x="75" y="55" width="70" height="70" as="geometry" />
        </mxCell>
        <mxCell id="06dLg6VLmYsFRkfAfAwF-27" style="edgeStyle=orthogonalEdgeStyle;rounded=0;orthogonalLoop=1;jettySize=auto;html=1;exitX=1;exitY=0.5;exitDx=0;exitDy=0;entryX=0;entryY=0.5;entryDx=0;entryDy=0;strokeWidth=2;" edge="1" parent="1" source="j044v0ao-zVQseaUgfhI-1" target="06dLg6VLmYsFRkfAfAwF-62">
          <mxGeometry relative="1" as="geometry">
            <mxPoint x="190" y="95" as="sourcePoint" />
          </mxGeometry>
        </mxCell>
        <mxCell id="06dLg6VLmYsFRkfAfAwF-29" style="edgeStyle=orthogonalEdgeStyle;rounded=0;orthogonalLoop=1;jettySize=auto;html=1;entryX=0.5;entryY=0;entryDx=0;entryDy=0;strokeWidth=2;" edge="1" parent="1" target="06dLg6VLmYsFRkfAfAwF-31">
          <mxGeometry relative="1" as="geometry">
            <Array as="points">
              <mxPoint x="265" y="185" />
            </Array>
            <mxPoint x="350" y="185" as="sourcePoint" />
          </mxGeometry>
        </mxCell>
        <mxCell id="06dLg6VLmYsFRkfAfAwF-30" style="edgeStyle=orthogonalEdgeStyle;rounded=0;orthogonalLoop=1;jettySize=auto;html=1;exitX=0.5;exitY=1;exitDx=0;exitDy=0;entryX=0.5;entryY=0;entryDx=0;entryDy=0;strokeWidth=2;" edge="1" parent="1" source="06dLg6VLmYsFRkfAfAwF-31">
          <mxGeometry relative="1" as="geometry">
            <mxPoint x="265" y="395" as="targetPoint" />
          </mxGeometry>
        </mxCell>
        <mxCell id="06dLg6VLmYsFRkfAfAwF-31" value="row &lt;b&gt;&amp;lt;= &lt;/b&gt;size" style="rhombus;whiteSpace=wrap;html=1;strokeWidth=2;" vertex="1" parent="1">
          <mxGeometry x="220" y="275" width="90" height="90" as="geometry" />
        </mxCell>
        <mxCell id="06dLg6VLmYsFRkfAfAwF-32" style="edgeStyle=orthogonalEdgeStyle;rounded=0;orthogonalLoop=1;jettySize=auto;html=1;exitX=0.5;exitY=1;exitDx=0;exitDy=0;entryX=0.5;entryY=0;entryDx=0;entryDy=0;strokeWidth=2;" edge="1" parent="1" source="06dLg6VLmYsFRkfAfAwF-33" target="06dLg6VLmYsFRkfAfAwF-36">
          <mxGeometry relative="1" as="geometry" />
        </mxCell>
        <mxCell id="06dLg6VLmYsFRkfAfAwF-33" value="Declare and Initialize In &lt;i&gt;column &lt;/i&gt;For Loop&lt;br&gt;&lt;br&gt;col = 1" style="rounded=1;whiteSpace=wrap;html=1;strokeWidth=2;" vertex="1" parent="1">
          <mxGeometry x="370" y="390" width="100" height="80" as="geometry" />
        </mxCell>
        <mxCell id="06dLg6VLmYsFRkfAfAwF-34" value="" style="endArrow=classic;html=1;rounded=0;strokeWidth=2;entryX=0;entryY=0.5;entryDx=0;entryDy=0;" edge="1" parent="1">
          <mxGeometry relative="1" as="geometry">
            <mxPoint x="310" y="319.5" as="sourcePoint" />
            <mxPoint x="360" y="319.5" as="targetPoint" />
            <Array as="points">
              <mxPoint x="340" y="319.5" />
            </Array>
          </mxGeometry>
        </mxCell>
        <mxCell id="06dLg6VLmYsFRkfAfAwF-35" value="True" style="edgeLabel;resizable=0;html=1;align=center;verticalAlign=middle;" connectable="0" vertex="1" parent="06dLg6VLmYsFRkfAfAwF-34">
          <mxGeometry relative="1" as="geometry">
            <mxPoint x="-10" y="-10" as="offset" />
          </mxGeometry>
        </mxCell>
        <mxCell id="06dLg6VLmYsFRkfAfAwF-36" value="col &lt;b&gt;&amp;lt;= &lt;/b&gt;size-row" style="rhombus;whiteSpace=wrap;html=1;strokeWidth=2;" vertex="1" parent="1">
          <mxGeometry x="365" y="525" width="110" height="80" as="geometry" />
        </mxCell>
        <mxCell id="06dLg6VLmYsFRkfAfAwF-37" value="" style="endArrow=classic;html=1;rounded=0;strokeWidth=2;exitX=1;exitY=0.5;exitDx=0;exitDy=0;entryX=0;entryY=0.5;entryDx=0;entryDy=0;" edge="1" parent="1" target="06dLg6VLmYsFRkfAfAwF-41">
          <mxGeometry relative="1" as="geometry">
            <mxPoint x="475" y="565" as="sourcePoint" />
            <mxPoint x="545" y="565" as="targetPoint" />
          </mxGeometry>
        </mxCell>
        <mxCell id="06dLg6VLmYsFRkfAfAwF-38" value="True" style="edgeLabel;resizable=0;html=1;align=center;verticalAlign=middle;" connectable="0" vertex="1" parent="06dLg6VLmYsFRkfAfAwF-37">
          <mxGeometry relative="1" as="geometry" />
        </mxCell>
        <mxCell id="06dLg6VLmYsFRkfAfAwF-39" value="&lt;b&gt;Increment&lt;/b&gt;&lt;br&gt;col++" style="rounded=1;whiteSpace=wrap;html=1;strokeWidth=2;" vertex="1" parent="1">
          <mxGeometry x="560" y="455" width="90" height="60" as="geometry" />
        </mxCell>
        <mxCell id="06dLg6VLmYsFRkfAfAwF-40" style="edgeStyle=orthogonalEdgeStyle;rounded=0;orthogonalLoop=1;jettySize=auto;html=1;exitX=1;exitY=0.5;exitDx=0;exitDy=0;entryX=1;entryY=0.5;entryDx=0;entryDy=0;strokeWidth=2;" edge="1" parent="1" source="06dLg6VLmYsFRkfAfAwF-41" target="06dLg6VLmYsFRkfAfAwF-39">
          <mxGeometry relative="1" as="geometry">
            <Array as="points">
              <mxPoint x="710" y="565" />
              <mxPoint x="710" y="485" />
            </Array>
          </mxGeometry>
        </mxCell>
        <mxCell id="06dLg6VLmYsFRkfAfAwF-41" value="&lt;b&gt;Output Space&lt;br style=&quot;border-color: var(--border-color);&quot;&gt;&lt;/b&gt;&lt;span style=&quot;font-weight: bold; border-color: var(--border-color);&quot;&gt;&quot; &quot;&lt;/span&gt;" style="shape=parallelogram;perimeter=parallelogramPerimeter;whiteSpace=wrap;html=1;fixedSize=1;rounded=1;strokeWidth=2;" vertex="1" parent="1">
          <mxGeometry x="530" y="535" width="110" height="60" as="geometry" />
        </mxCell>
        <mxCell id="06dLg6VLmYsFRkfAfAwF-42" value="" style="endArrow=none;html=1;rounded=0;entryX=0;entryY=0.5;entryDx=0;entryDy=0;strokeWidth=2;" edge="1" parent="1" target="06dLg6VLmYsFRkfAfAwF-39">
          <mxGeometry width="50" height="50" relative="1" as="geometry">
            <mxPoint x="420" y="495" as="sourcePoint" />
            <mxPoint x="540" y="515" as="targetPoint" />
            <Array as="points">
              <mxPoint x="500" y="495" />
              <mxPoint x="500" y="485" />
            </Array>
          </mxGeometry>
        </mxCell>
        <mxCell id="06dLg6VLmYsFRkfAfAwF-43" value="" style="endArrow=classic;html=1;rounded=0;exitX=0;exitY=0.5;exitDx=0;exitDy=0;strokeWidth=2;entryX=1;entryY=0.5;entryDx=0;entryDy=0;" edge="1" parent="1" source="06dLg6VLmYsFRkfAfAwF-36" target="06dLg6VLmYsFRkfAfAwF-48">
          <mxGeometry relative="1" as="geometry">
            <mxPoint x="490" y="695" as="sourcePoint" />
            <mxPoint x="470" y="665" as="targetPoint" />
          </mxGeometry>
        </mxCell>
        <mxCell id="06dLg6VLmYsFRkfAfAwF-44" value="&lt;font style=&quot;font-size: 12px;&quot;&gt;False&lt;/font&gt;" style="edgeLabel;resizable=0;html=1;align=center;verticalAlign=middle;" connectable="0" vertex="1" parent="06dLg6VLmYsFRkfAfAwF-43">
          <mxGeometry relative="1" as="geometry">
            <mxPoint x="5" y="-5" as="offset" />
          </mxGeometry>
        </mxCell>
        <mxCell id="06dLg6VLmYsFRkfAfAwF-45" style="edgeStyle=orthogonalEdgeStyle;rounded=0;orthogonalLoop=1;jettySize=auto;html=1;exitX=0.5;exitY=1;exitDx=0;exitDy=0;entryX=0.5;entryY=0;entryDx=0;entryDy=0;strokeWidth=2;" edge="1" parent="1" source="06dLg6VLmYsFRkfAfAwF-46" target="06dLg6VLmYsFRkfAfAwF-53">
          <mxGeometry relative="1" as="geometry">
            <Array as="points">
              <mxPoint x="240" y="735" />
              <mxPoint x="280" y="735" />
            </Array>
          </mxGeometry>
        </mxCell>
        <mxCell id="06dLg6VLmYsFRkfAfAwF-46" value="Declare and Initialize In &lt;i&gt;betw&amp;nbsp;&lt;/i&gt;For Loop&lt;br style=&quot;border-color: var(--border-color);&quot;&gt;&lt;br style=&quot;border-color: var(--border-color);&quot;&gt;betw = 1" style="rounded=1;whiteSpace=wrap;html=1;strokeWidth=2;" vertex="1" parent="1">
          <mxGeometry x="180" y="635" width="120" height="70" as="geometry" />
        </mxCell>
        <mxCell id="06dLg6VLmYsFRkfAfAwF-47" style="edgeStyle=orthogonalEdgeStyle;rounded=0;orthogonalLoop=1;jettySize=auto;html=1;exitX=0.5;exitY=1;exitDx=0;exitDy=0;entryX=0.5;entryY=0;entryDx=0;entryDy=0;strokeWidth=2;" edge="1" parent="1" source="06dLg6VLmYsFRkfAfAwF-48" target="06dLg6VLmYsFRkfAfAwF-46">
          <mxGeometry relative="1" as="geometry" />
        </mxCell>
        <mxCell id="06dLg6VLmYsFRkfAfAwF-48" value="&lt;b&gt;Output&lt;/b&gt;&lt;br&gt;size+1-row" style="shape=parallelogram;perimeter=parallelogramPerimeter;whiteSpace=wrap;html=1;fixedSize=1;rounded=1;strokeWidth=2;" vertex="1" parent="1">
          <mxGeometry x="180" y="535" width="120" height="60" as="geometry" />
        </mxCell>
        <mxCell id="06dLg6VLmYsFRkfAfAwF-49" value="&lt;font style=&quot;font-size: 12px;&quot;&gt;False&lt;/font&gt;" style="edgeLabel;resizable=0;html=1;align=center;verticalAlign=middle;" connectable="0" vertex="1" parent="1">
          <mxGeometry x="265" y="370" as="geometry">
            <mxPoint x="16" as="offset" />
          </mxGeometry>
        </mxCell>
        <mxCell id="06dLg6VLmYsFRkfAfAwF-50" style="edgeStyle=orthogonalEdgeStyle;rounded=0;orthogonalLoop=1;jettySize=auto;html=1;exitX=0.5;exitY=1;exitDx=0;exitDy=0;entryX=0.5;entryY=0;entryDx=0;entryDy=0;strokeWidth=2;" edge="1" parent="1" source="06dLg6VLmYsFRkfAfAwF-51" target="06dLg6VLmYsFRkfAfAwF-33">
          <mxGeometry relative="1" as="geometry" />
        </mxCell>
        <mxCell id="06dLg6VLmYsFRkfAfAwF-51" value="&lt;b&gt;Declare Variable Inside Loop&lt;/b&gt;&lt;br&gt;int diff = (row-mid-1)" style="rounded=1;whiteSpace=wrap;html=1;strokeWidth=2;" vertex="1" parent="1">
          <mxGeometry x="360" y="290" width="120" height="60" as="geometry" />
        </mxCell>
        <mxCell id="06dLg6VLmYsFRkfAfAwF-52" value="" style="endArrow=none;html=1;rounded=0;strokeWidth=2;entryX=0.5;entryY=1;entryDx=0;entryDy=0;" edge="1" parent="1" target="06dLg6VLmYsFRkfAfAwF-62">
          <mxGeometry width="50" height="50" relative="1" as="geometry">
            <mxPoint x="350" y="185" as="sourcePoint" />
            <mxPoint x="510" y="155" as="targetPoint" />
          </mxGeometry>
        </mxCell>
        <mxCell id="06dLg6VLmYsFRkfAfAwF-53" value="betw &lt;b&gt;&amp;lt;= &lt;/b&gt;diff*2" style="rhombus;whiteSpace=wrap;html=1;strokeWidth=2;" vertex="1" parent="1">
          <mxGeometry x="210" y="780" width="140" height="90" as="geometry" />
        </mxCell>
        <mxCell id="06dLg6VLmYsFRkfAfAwF-54" value="" style="endArrow=classic;html=1;rounded=0;strokeWidth=2;exitX=1;exitY=0.5;exitDx=0;exitDy=0;entryX=0;entryY=0.506;entryDx=0;entryDy=0;entryPerimeter=0;" edge="1" parent="1">
          <mxGeometry relative="1" as="geometry">
            <mxPoint x="350" y="824.5" as="sourcePoint" />
            <mxPoint x="420" y="824.5" as="targetPoint" />
          </mxGeometry>
        </mxCell>
        <mxCell id="06dLg6VLmYsFRkfAfAwF-55" value="True" style="edgeLabel;resizable=0;html=1;align=center;verticalAlign=middle;" connectable="0" vertex="1" parent="06dLg6VLmYsFRkfAfAwF-54">
          <mxGeometry relative="1" as="geometry" />
        </mxCell>
        <mxCell id="06dLg6VLmYsFRkfAfAwF-56" value="&lt;b&gt;Output Space&lt;br style=&quot;border-color: var(--border-color);&quot;&gt;&lt;/b&gt;&lt;span style=&quot;font-weight: bold; border-color: var(--border-color);&quot;&gt;&quot; &quot;&lt;/span&gt;" style="shape=parallelogram;perimeter=parallelogramPerimeter;whiteSpace=wrap;html=1;fixedSize=1;rounded=1;strokeWidth=2;" vertex="1" parent="1">
          <mxGeometry x="410" y="790" width="110" height="60" as="geometry" />
        </mxCell>
        <mxCell id="06dLg6VLmYsFRkfAfAwF-57" style="edgeStyle=orthogonalEdgeStyle;rounded=0;orthogonalLoop=1;jettySize=auto;html=1;strokeWidth=2;exitX=1;exitY=0.5;exitDx=0;exitDy=0;entryX=1;entryY=0.5;entryDx=0;entryDy=0;" edge="1" parent="1" source="06dLg6VLmYsFRkfAfAwF-56" target="06dLg6VLmYsFRkfAfAwF-58">
          <mxGeometry relative="1" as="geometry">
            <mxPoint x="450" y="855" as="sourcePoint" />
            <mxPoint x="440" y="765" as="targetPoint" />
            <Array as="points">
              <mxPoint x="530" y="820" />
              <mxPoint x="530" y="705" />
            </Array>
          </mxGeometry>
        </mxCell>
        <mxCell id="06dLg6VLmYsFRkfAfAwF-58" value="&lt;b&gt;Increment&lt;/b&gt;&lt;br&gt;betw++" style="rounded=1;whiteSpace=wrap;html=1;strokeWidth=2;" vertex="1" parent="1">
          <mxGeometry x="390" y="675" width="90" height="60" as="geometry" />
        </mxCell>
        <mxCell id="06dLg6VLmYsFRkfAfAwF-59" value="" style="endArrow=none;html=1;rounded=0;strokeWidth=2;entryX=0;entryY=0.5;entryDx=0;entryDy=0;" edge="1" parent="1" target="06dLg6VLmYsFRkfAfAwF-58">
          <mxGeometry width="50" height="50" relative="1" as="geometry">
            <mxPoint x="280" y="745" as="sourcePoint" />
            <mxPoint x="380" y="725" as="targetPoint" />
            <Array as="points">
              <mxPoint x="300" y="745" />
              <mxPoint x="330" y="745" />
              <mxPoint x="330" y="705" />
              <mxPoint x="340" y="705" />
            </Array>
          </mxGeometry>
        </mxCell>
        <mxCell id="06dLg6VLmYsFRkfAfAwF-60" value="" style="endArrow=classic;html=1;rounded=0;exitX=0;exitY=0.5;exitDx=0;exitDy=0;strokeWidth=2;entryX=0.5;entryY=0;entryDx=0;entryDy=0;" edge="1" parent="1" source="06dLg6VLmYsFRkfAfAwF-53" target="2NE4A4t6Px2_cOIp3neB-11">
          <mxGeometry relative="1" as="geometry">
            <mxPoint x="200" y="825" as="sourcePoint" />
            <mxPoint x="140" y="820" as="targetPoint" />
            <Array as="points">
              <mxPoint x="110" y="825" />
            </Array>
          </mxGeometry>
        </mxCell>
        <mxCell id="06dLg6VLmYsFRkfAfAwF-61" value="&lt;font style=&quot;font-size: 12px;&quot;&gt;False&lt;/font&gt;" style="edgeLabel;resizable=0;html=1;align=center;verticalAlign=middle;" connectable="0" vertex="1" parent="06dLg6VLmYsFRkfAfAwF-60">
          <mxGeometry relative="1" as="geometry">
            <mxPoint x="20" y="-5" as="offset" />
          </mxGeometry>
        </mxCell>
        <mxCell id="06dLg6VLmYsFRkfAfAwF-62" value="Declare and Initialize In &lt;i&gt;row &lt;/i&gt;For Loop&lt;br&gt;&lt;br&gt;row = mid +1" style="rounded=1;whiteSpace=wrap;html=1;strokeWidth=2;" vertex="1" parent="1">
          <mxGeometry x="300" y="50" width="100" height="80" as="geometry" />
        </mxCell>
        <mxCell id="06dLg6VLmYsFRkfAfAwF-66" value="&lt;b&gt;Increment&lt;/b&gt;&lt;br&gt;row++" style="rounded=1;whiteSpace=wrap;html=1;strokeWidth=2;" vertex="1" parent="1">
          <mxGeometry x="450" y="205" width="120" height="60" as="geometry" />
        </mxCell>
        <mxCell id="06dLg6VLmYsFRkfAfAwF-67" value="" style="endArrow=none;html=1;rounded=0;strokeWidth=2;" edge="1" parent="1">
          <mxGeometry width="50" height="50" relative="1" as="geometry">
            <mxPoint x="260" y="235" as="sourcePoint" />
            <mxPoint x="450" y="235" as="targetPoint" />
          </mxGeometry>
        </mxCell>
        <mxCell id="06dLg6VLmYsFRkfAfAwF-68" value="Exit main&lt;br&gt;&lt;b&gt;return 0&lt;/b&gt;" style="ellipse;whiteSpace=wrap;html=1;strokeWidth=2;" vertex="1" parent="1">
          <mxGeometry x="210" y="395" width="110" height="70" as="geometry" />
        </mxCell>
        <mxCell id="2NE4A4t6Px2_cOIp3neB-1" value="" style="edgeStyle=orthogonalEdgeStyle;rounded=0;orthogonalLoop=1;jettySize=auto;html=1;" edge="1" parent="1" source="2NE4A4t6Px2_cOIp3neB-2" target="2NE4A4t6Px2_cOIp3neB-5">
          <mxGeometry relative="1" as="geometry" />
        </mxCell>
        <mxCell id="2NE4A4t6Px2_cOIp3neB-2" value="space &lt;b&gt;&amp;lt; = &lt;/b&gt;size-row" style="rhombus;whiteSpace=wrap;html=1;strokeWidth=2;" vertex="1" parent="1">
          <mxGeometry x="260" y="947.5" width="120" height="102.5" as="geometry" />
        </mxCell>
        <mxCell id="2NE4A4t6Px2_cOIp3neB-3" value="" style="endArrow=classic;html=1;rounded=0;strokeWidth=2;exitX=1;exitY=0.5;exitDx=0;exitDy=0;entryX=0;entryY=0.5;entryDx=0;entryDy=0;" edge="1" parent="1" source="2NE4A4t6Px2_cOIp3neB-2" target="2NE4A4t6Px2_cOIp3neB-5">
          <mxGeometry relative="1" as="geometry">
            <mxPoint x="370" y="994.5" as="sourcePoint" />
            <mxPoint x="425" y="995" as="targetPoint" />
          </mxGeometry>
        </mxCell>
        <mxCell id="2NE4A4t6Px2_cOIp3neB-4" value="True" style="edgeLabel;resizable=0;html=1;align=center;verticalAlign=middle;" connectable="0" vertex="1" parent="2NE4A4t6Px2_cOIp3neB-3">
          <mxGeometry relative="1" as="geometry">
            <mxPoint x="-5" as="offset" />
          </mxGeometry>
        </mxCell>
        <mxCell id="2NE4A4t6Px2_cOIp3neB-5" value="&lt;b&gt;Output Space&lt;br style=&quot;border-color: var(--border-color);&quot;&gt;&lt;/b&gt;&lt;span style=&quot;font-weight: bold; border-color: var(--border-color);&quot;&gt;&quot; &quot;&lt;/span&gt;" style="shape=parallelogram;perimeter=parallelogramPerimeter;whiteSpace=wrap;html=1;fixedSize=1;rounded=1;strokeWidth=2;" vertex="1" parent="1">
          <mxGeometry x="440" y="968.75" width="110" height="60" as="geometry" />
        </mxCell>
        <mxCell id="2NE4A4t6Px2_cOIp3neB-6" value="&lt;b&gt;Increment&lt;/b&gt;&lt;br&gt;space++" style="rounded=1;whiteSpace=wrap;html=1;strokeWidth=2;" vertex="1" parent="1">
          <mxGeometry x="450" y="870" width="90" height="60" as="geometry" />
        </mxCell>
        <mxCell id="2NE4A4t6Px2_cOIp3neB-7" style="edgeStyle=orthogonalEdgeStyle;rounded=0;orthogonalLoop=1;jettySize=auto;html=1;exitX=1;exitY=0.5;exitDx=0;exitDy=0;strokeWidth=2;" edge="1" parent="1" source="2NE4A4t6Px2_cOIp3neB-5">
          <mxGeometry relative="1" as="geometry">
            <mxPoint x="520" y="990" as="sourcePoint" />
            <mxPoint x="540" y="900" as="targetPoint" />
            <Array as="points">
              <mxPoint x="570" y="999" />
              <mxPoint x="570" y="900" />
            </Array>
          </mxGeometry>
        </mxCell>
        <mxCell id="2NE4A4t6Px2_cOIp3neB-8" value="" style="endArrow=none;html=1;rounded=0;strokeWidth=2;" edge="1" parent="1">
          <mxGeometry width="50" height="50" relative="1" as="geometry">
            <mxPoint x="210" y="1000" as="sourcePoint" />
            <mxPoint x="450" y="900" as="targetPoint" />
            <Array as="points">
              <mxPoint x="210" y="950" />
              <mxPoint x="210" y="900" />
              <mxPoint x="405" y="900" />
              <mxPoint x="430" y="900" />
            </Array>
          </mxGeometry>
        </mxCell>
        <mxCell id="2NE4A4t6Px2_cOIp3neB-19" style="edgeStyle=orthogonalEdgeStyle;rounded=0;orthogonalLoop=1;jettySize=auto;html=1;exitX=1;exitY=0.5;exitDx=0;exitDy=0;entryX=1;entryY=0.5;entryDx=0;entryDy=0;strokeWidth=2;" edge="1" parent="1" source="2NE4A4t6Px2_cOIp3neB-9" target="06dLg6VLmYsFRkfAfAwF-66">
          <mxGeometry relative="1" as="geometry">
            <Array as="points">
              <mxPoint x="755" y="1105" />
              <mxPoint x="755" y="235" />
            </Array>
          </mxGeometry>
        </mxCell>
        <mxCell id="2NE4A4t6Px2_cOIp3neB-9" value="&lt;b&gt;Output New Line&lt;br style=&quot;border-color: var(--border-color);&quot;&gt;&lt;/b&gt;endl" style="shape=parallelogram;perimeter=parallelogramPerimeter;whiteSpace=wrap;html=1;fixedSize=1;rounded=1;strokeWidth=2;" vertex="1" parent="1">
          <mxGeometry x="442.5" y="1075" width="135" height="60" as="geometry" />
        </mxCell>
        <mxCell id="2NE4A4t6Px2_cOIp3neB-10" style="edgeStyle=orthogonalEdgeStyle;rounded=0;orthogonalLoop=1;jettySize=auto;html=1;exitX=0.5;exitY=1;exitDx=0;exitDy=0;entryX=0.5;entryY=0;entryDx=0;entryDy=0;strokeWidth=2;" edge="1" parent="1" source="2NE4A4t6Px2_cOIp3neB-11" target="2NE4A4t6Px2_cOIp3neB-13">
          <mxGeometry relative="1" as="geometry" />
        </mxCell>
        <mxCell id="2NE4A4t6Px2_cOIp3neB-11" value="&lt;b&gt;Output&lt;/b&gt;&lt;br&gt;row" style="shape=parallelogram;perimeter=parallelogramPerimeter;whiteSpace=wrap;html=1;fixedSize=1;rounded=1;strokeWidth=2;" vertex="1" parent="1">
          <mxGeometry x="50" y="855" width="120" height="60" as="geometry" />
        </mxCell>
        <mxCell id="2NE4A4t6Px2_cOIp3neB-12" style="edgeStyle=orthogonalEdgeStyle;rounded=0;orthogonalLoop=1;jettySize=auto;html=1;exitX=1;exitY=0.5;exitDx=0;exitDy=0;entryX=0;entryY=0.5;entryDx=0;entryDy=0;strokeWidth=2;" edge="1" parent="1" source="2NE4A4t6Px2_cOIp3neB-13" target="2NE4A4t6Px2_cOIp3neB-2">
          <mxGeometry relative="1" as="geometry" />
        </mxCell>
        <mxCell id="2NE4A4t6Px2_cOIp3neB-13" value="Declare and Initialize In &lt;i&gt;space&amp;nbsp;&lt;/i&gt;For Loop&lt;br style=&quot;border-color: var(--border-color);&quot;&gt;&lt;br style=&quot;border-color: var(--border-color);&quot;&gt;space = 1" style="rounded=1;whiteSpace=wrap;html=1;strokeWidth=2;" vertex="1" parent="1">
          <mxGeometry x="50" y="963.75" width="120" height="70" as="geometry" />
        </mxCell>
        <mxCell id="2NE4A4t6Px2_cOIp3neB-14" value="" style="endArrow=classic;html=1;rounded=0;exitX=0.5;exitY=1;exitDx=0;exitDy=0;strokeWidth=2;entryX=0;entryY=0.5;entryDx=0;entryDy=0;" edge="1" parent="1" source="2NE4A4t6Px2_cOIp3neB-2" target="2NE4A4t6Px2_cOIp3neB-9">
          <mxGeometry relative="1" as="geometry">
            <mxPoint x="300.03999999999996" y="1060" as="sourcePoint" />
            <mxPoint x="200" y="1110" as="targetPoint" />
            <Array as="points">
              <mxPoint x="320" y="1105" />
            </Array>
          </mxGeometry>
        </mxCell>
        <mxCell id="2NE4A4t6Px2_cOIp3neB-15" value="&lt;font style=&quot;font-size: 12px;&quot;&gt;False&lt;/font&gt;" style="edgeLabel;resizable=0;html=1;align=center;verticalAlign=middle;" connectable="0" vertex="1" parent="2NE4A4t6Px2_cOIp3neB-14">
          <mxGeometry relative="1" as="geometry">
            <mxPoint x="-39" y="-30" as="offset" />
          </mxGeometry>
        </mxCell>
      </root>
    </mxGraphModel>
  </diagram>
</mxfile>
